ISO-10303-21;
HEADER;
/*Generated by software containing ST-Developer
 * from STEP Tools, Inc. (www.steptools.com) 
 */
/*OPTION: using custom renumber hook */
/*description */
/*implementation_level */
FILE_DESCRIPTION(('STEP AP242 Edition 2','STEP AP242 Edition 2''CAx-IF Rec.Pracs.---Representation and Presentation of Product Manufa
cturing Information (PMI)---4.0---2014-10-13','STEP AP242 Edition 2''CAx-IF Rec.Pracs.---Representation and Presentation of Product Manufa
cturing Information (PMI)---4.0---2014-10-13''CAx-IF Rec.Pracs.---3D Tessellated Geometry---0.4---2014-09-14','STEP AP242 Edition 2''CAx-IF Rec.Pracs.---Representation and Presentation of Product Manufa
cturing Information (PMI)---4.0---2014-10-13''CAx-IF Rec.Pracs.---3D Tessellated Geometry---0.4---2014-09-14''2;1','STEP AP242 Edition 2''CAx-IF Rec.Pracs.---Representation and Presentation of Product Manufa
cturing Information (PMI)---4.0---2014-10-13''CAx-IF Rec.Pracs.---3D Tessellated Geometry---0.4---2014-09-14''2;1''CAx-IF Rec.Pracs.---User Defined Attributes---1.5---2016-08-15'),'2;1');
/*name */
/*time_stamp */
/*author */
/*organization */
/*preprocessor_version */
/*originating_system */
/*authorisation */
FILE_NAME('/vol/tmp/translate-554114270439295933/Top_Case - Part 1.step','2026-06-03T03:36:30',(''),(''),'ST-DEVELOPER v20','ONSHAPE BY PTC INC, 1.215','  ');
FILE_SCHEMA(('AP242_MANAGED_MODEL_BASED_3D_ENGINEERING_MIM_LF { 1 0 10303 442 3 1 4 }'));
ENDSEC;
DATA;
#10=SHAPE_REPRESENTATION_RELATIONSHIP('','',#907,#11);
#11=ADVANCED_BREP_SHAPE_REPRESENTATION('',(#905),#1497);
#12=CONICAL_SURFACE('',#983,0.0006,0.785398163397448);
#13=CONICAL_SURFACE('',#986,0.0006,0.785398163397448);
#14=CONICAL_SURFACE('',#987,0.0006,0.785398163397448);
#15=CONICAL_SURFACE('',#990,0.0006,0.785398163397448);
#16=CYLINDRICAL_SURFACE('',#943,0.002);
#17=CYLINDRICAL_SURFACE('',#946,0.002);
#18=CYLINDRICAL_SURFACE('',#949,0.002);
#19=CYLINDRICAL_SURFACE('',#952,0.002);
#20=CYLINDRICAL_SURFACE('',#959,0.001);
#21=CYLINDRICAL_SURFACE('',#962,0.001);
#22=CYLINDRICAL_SURFACE('',#965,0.001);
#23=CYLINDRICAL_SURFACE('',#968,0.001);
#24=CYLINDRICAL_SURFACE('',#971,0.001);
#25=CYLINDRICAL_SURFACE('',#974,0.001);
#26=CYLINDRICAL_SURFACE('',#977,0.001);
#27=CYLINDRICAL_SURFACE('',#980,0.001);
#28=CIRCLE('',#914,0.002);
#29=CIRCLE('',#915,0.002);
#30=CIRCLE('',#916,0.002);
#31=CIRCLE('',#917,0.002);
#32=CIRCLE('',#919,0.001);
#33=CIRCLE('',#920,0.001);
#34=CIRCLE('',#926,0.001);
#35=CIRCLE('',#927,0.001);
#36=CIRCLE('',#937,0.001);
#37=CIRCLE('',#938,0.001);
#38=CIRCLE('',#940,0.001);
#39=CIRCLE('',#941,0.001);
#40=CIRCLE('',#944,0.002);
#41=CIRCLE('',#947,0.002);
#42=CIRCLE('',#950,0.002);
#43=CIRCLE('',#953,0.002);
#44=CIRCLE('',#955,0.0006);
#45=CIRCLE('',#956,0.0006);
#46=CIRCLE('',#957,0.0006);
#47=CIRCLE('',#958,0.0006);
#48=CIRCLE('',#960,0.001);
#49=CIRCLE('',#963,0.001);
#50=CIRCLE('',#966,0.001);
#51=CIRCLE('',#969,0.001);
#52=CIRCLE('',#972,0.001);
#53=CIRCLE('',#975,0.001);
#54=CIRCLE('',#978,0.001);
#55=CIRCLE('',#981,0.001);
#56=ORIENTED_EDGE('',*,*,#288,.F.);
#57=ORIENTED_EDGE('',*,*,#289,.F.);
#58=ORIENTED_EDGE('',*,*,#290,.T.);
#59=ORIENTED_EDGE('',*,*,#291,.T.);
#60=ORIENTED_EDGE('',*,*,#292,.T.);
#61=ORIENTED_EDGE('',*,*,#293,.F.);
#62=ORIENTED_EDGE('',*,*,#294,.F.);
#63=ORIENTED_EDGE('',*,*,#295,.T.);
#64=ORIENTED_EDGE('',*,*,#296,.F.);
#65=ORIENTED_EDGE('',*,*,#291,.F.);
#66=ORIENTED_EDGE('',*,*,#297,.T.);
#67=ORIENTED_EDGE('',*,*,#293,.T.);
#68=ORIENTED_EDGE('',*,*,#290,.F.);
#69=ORIENTED_EDGE('',*,*,#298,.T.);
#70=ORIENTED_EDGE('',*,*,#294,.T.);
#71=ORIENTED_EDGE('',*,*,#297,.F.);
#72=ORIENTED_EDGE('',*,*,#288,.T.);
#73=ORIENTED_EDGE('',*,*,#296,.T.);
#74=ORIENTED_EDGE('',*,*,#292,.F.);
#75=ORIENTED_EDGE('',*,*,#299,.T.);
#76=ORIENTED_EDGE('',*,*,#300,.F.);
#77=ORIENTED_EDGE('',*,*,#301,.T.);
#78=ORIENTED_EDGE('',*,*,#302,.F.);
#79=ORIENTED_EDGE('',*,*,#303,.F.);
#80=ORIENTED_EDGE('',*,*,#304,.F.);
#81=ORIENTED_EDGE('',*,*,#305,.F.);
#82=ORIENTED_EDGE('',*,*,#306,.T.);
#83=ORIENTED_EDGE('',*,*,#307,.F.);
#84=ORIENTED_EDGE('',*,*,#308,.F.);
#85=ORIENTED_EDGE('',*,*,#309,.F.);
#86=ORIENTED_EDGE('',*,*,#310,.T.);
#87=ORIENTED_EDGE('',*,*,#311,.T.);
#88=ORIENTED_EDGE('',*,*,#312,.T.);
#89=ORIENTED_EDGE('',*,*,#313,.F.);
#90=ORIENTED_EDGE('',*,*,#314,.T.);
#91=ORIENTED_EDGE('',*,*,#315,.T.);
#92=ORIENTED_EDGE('',*,*,#316,.T.);
#93=ORIENTED_EDGE('',*,*,#317,.F.);
#94=ORIENTED_EDGE('',*,*,#318,.F.);
#95=ORIENTED_EDGE('',*,*,#319,.F.);
#96=ORIENTED_EDGE('',*,*,#320,.F.);
#97=ORIENTED_EDGE('',*,*,#321,.F.);
#98=ORIENTED_EDGE('',*,*,#322,.T.);
#99=ORIENTED_EDGE('',*,*,#323,.F.);
#100=ORIENTED_EDGE('',*,*,#324,.F.);
#101=ORIENTED_EDGE('',*,*,#325,.F.);
#102=ORIENTED_EDGE('',*,*,#295,.F.);
#103=ORIENTED_EDGE('',*,*,#298,.F.);
#104=ORIENTED_EDGE('',*,*,#289,.T.);
#105=ORIENTED_EDGE('',*,*,#315,.F.);
#106=ORIENTED_EDGE('',*,*,#326,.F.);
#107=ORIENTED_EDGE('',*,*,#327,.T.);
#108=ORIENTED_EDGE('',*,*,#328,.T.);
#109=ORIENTED_EDGE('',*,*,#299,.F.);
#110=ORIENTED_EDGE('',*,*,#311,.F.);
#111=ORIENTED_EDGE('',*,*,#329,.F.);
#112=ORIENTED_EDGE('',*,*,#330,.T.);
#113=ORIENTED_EDGE('',*,*,#331,.T.);
#114=ORIENTED_EDGE('',*,*,#313,.T.);
#115=ORIENTED_EDGE('',*,*,#332,.F.);
#116=ORIENTED_EDGE('',*,*,#333,.F.);
#117=ORIENTED_EDGE('',*,*,#334,.T.);
#118=ORIENTED_EDGE('',*,*,#312,.F.);
#119=ORIENTED_EDGE('',*,*,#331,.F.);
#120=ORIENTED_EDGE('',*,*,#335,.T.);
#121=ORIENTED_EDGE('',*,*,#332,.T.);
#122=ORIENTED_EDGE('',*,*,#330,.F.);
#123=ORIENTED_EDGE('',*,*,#336,.T.);
#124=ORIENTED_EDGE('',*,*,#333,.T.);
#125=ORIENTED_EDGE('',*,*,#335,.F.);
#126=ORIENTED_EDGE('',*,*,#337,.F.);
#127=ORIENTED_EDGE('',*,*,#338,.F.);
#128=ORIENTED_EDGE('',*,*,#334,.F.);
#129=ORIENTED_EDGE('',*,*,#336,.F.);
#130=ORIENTED_EDGE('',*,*,#329,.T.);
#131=ORIENTED_EDGE('',*,*,#310,.F.);
#132=ORIENTED_EDGE('',*,*,#339,.F.);
#133=ORIENTED_EDGE('',*,*,#340,.T.);
#134=ORIENTED_EDGE('',*,*,#326,.T.);
#135=ORIENTED_EDGE('',*,*,#314,.F.);
#136=ORIENTED_EDGE('',*,*,#308,.T.);
#137=ORIENTED_EDGE('',*,*,#341,.F.);
#138=ORIENTED_EDGE('',*,*,#342,.F.);
#139=ORIENTED_EDGE('',*,*,#343,.T.);
#140=ORIENTED_EDGE('',*,*,#307,.T.);
#141=ORIENTED_EDGE('',*,*,#344,.F.);
#142=ORIENTED_EDGE('',*,*,#345,.F.);
#143=ORIENTED_EDGE('',*,*,#341,.T.);
#144=ORIENTED_EDGE('',*,*,#306,.F.);
#145=ORIENTED_EDGE('',*,*,#346,.F.);
#146=ORIENTED_EDGE('',*,*,#347,.T.);
#147=ORIENTED_EDGE('',*,*,#344,.T.);
#148=ORIENTED_EDGE('',*,*,#348,.F.);
#149=ORIENTED_EDGE('',*,*,#342,.T.);
#150=ORIENTED_EDGE('',*,*,#345,.T.);
#151=ORIENTED_EDGE('',*,*,#347,.F.);
#152=ORIENTED_EDGE('',*,*,#303,.T.);
#153=ORIENTED_EDGE('',*,*,#349,.F.);
#154=ORIENTED_EDGE('',*,*,#350,.F.);
#155=ORIENTED_EDGE('',*,*,#351,.T.);
#156=ORIENTED_EDGE('',*,*,#302,.T.);
#157=ORIENTED_EDGE('',*,*,#352,.F.);
#158=ORIENTED_EDGE('',*,*,#353,.F.);
#159=ORIENTED_EDGE('',*,*,#349,.T.);
#160=ORIENTED_EDGE('',*,*,#301,.F.);
#161=ORIENTED_EDGE('',*,*,#354,.F.);
#162=ORIENTED_EDGE('',*,*,#355,.T.);
#163=ORIENTED_EDGE('',*,*,#352,.T.);
#164=ORIENTED_EDGE('',*,*,#356,.F.);
#165=ORIENTED_EDGE('',*,*,#350,.T.);
#166=ORIENTED_EDGE('',*,*,#353,.T.);
#167=ORIENTED_EDGE('',*,*,#355,.F.);
#168=ORIENTED_EDGE('',*,*,#357,.F.);
#169=ORIENTED_EDGE('',*,*,#358,.F.);
#170=ORIENTED_EDGE('',*,*,#343,.F.);
#171=ORIENTED_EDGE('',*,*,#348,.T.);
#172=ORIENTED_EDGE('',*,*,#346,.T.);
#173=ORIENTED_EDGE('',*,*,#305,.T.);
#174=ORIENTED_EDGE('',*,*,#359,.F.);
#175=ORIENTED_EDGE('',*,*,#360,.F.);
#176=ORIENTED_EDGE('',*,*,#339,.T.);
#177=ORIENTED_EDGE('',*,*,#309,.T.);
#178=ORIENTED_EDGE('',*,*,#361,.F.);
#179=ORIENTED_EDGE('',*,*,#362,.F.);
#180=ORIENTED_EDGE('',*,*,#351,.F.);
#181=ORIENTED_EDGE('',*,*,#356,.T.);
#182=ORIENTED_EDGE('',*,*,#354,.T.);
#183=ORIENTED_EDGE('',*,*,#300,.T.);
#184=ORIENTED_EDGE('',*,*,#328,.F.);
#185=ORIENTED_EDGE('',*,*,#363,.F.);
#186=ORIENTED_EDGE('',*,*,#359,.T.);
#187=ORIENTED_EDGE('',*,*,#304,.T.);
#188=ORIENTED_EDGE('',*,*,#364,.F.);
#189=ORIENTED_EDGE('',*,*,#365,.T.);
#190=ORIENTED_EDGE('',*,*,#366,.T.);
#191=ORIENTED_EDGE('',*,*,#316,.F.);
#192=ORIENTED_EDGE('',*,*,#367,.F.);
#193=ORIENTED_EDGE('',*,*,#368,.T.);
#194=ORIENTED_EDGE('',*,*,#364,.T.);
#195=ORIENTED_EDGE('',*,*,#323,.T.);
#196=ORIENTED_EDGE('',*,*,#369,.F.);
#197=ORIENTED_EDGE('',*,*,#370,.T.);
#198=ORIENTED_EDGE('',*,*,#367,.T.);
#199=ORIENTED_EDGE('',*,*,#322,.F.);
#200=ORIENTED_EDGE('',*,*,#371,.F.);
#201=ORIENTED_EDGE('',*,*,#372,.T.);
#202=ORIENTED_EDGE('',*,*,#369,.T.);
#203=ORIENTED_EDGE('',*,*,#321,.T.);
#204=ORIENTED_EDGE('',*,*,#373,.F.);
#205=ORIENTED_EDGE('',*,*,#374,.T.);
#206=ORIENTED_EDGE('',*,*,#371,.T.);
#207=ORIENTED_EDGE('',*,*,#320,.T.);
#208=ORIENTED_EDGE('',*,*,#375,.F.);
#209=ORIENTED_EDGE('',*,*,#376,.T.);
#210=ORIENTED_EDGE('',*,*,#373,.T.);
#211=ORIENTED_EDGE('',*,*,#319,.T.);
#212=ORIENTED_EDGE('',*,*,#377,.F.);
#213=ORIENTED_EDGE('',*,*,#378,.T.);
#214=ORIENTED_EDGE('',*,*,#375,.T.);
#215=ORIENTED_EDGE('',*,*,#318,.T.);
#216=ORIENTED_EDGE('',*,*,#366,.F.);
#217=ORIENTED_EDGE('',*,*,#379,.T.);
#218=ORIENTED_EDGE('',*,*,#377,.T.);
#219=ORIENTED_EDGE('',*,*,#317,.T.);
#220=ORIENTED_EDGE('',*,*,#380,.T.);
#221=ORIENTED_EDGE('',*,*,#381,.T.);
#222=ORIENTED_EDGE('',*,*,#382,.T.);
#223=ORIENTED_EDGE('',*,*,#383,.T.);
#224=ORIENTED_EDGE('',*,*,#384,.T.);
#225=ORIENTED_EDGE('',*,*,#385,.T.);
#226=ORIENTED_EDGE('',*,*,#386,.T.);
#227=ORIENTED_EDGE('',*,*,#387,.T.);
#228=ORIENTED_EDGE('',*,*,#360,.T.);
#229=ORIENTED_EDGE('',*,*,#363,.T.);
#230=ORIENTED_EDGE('',*,*,#327,.F.);
#231=ORIENTED_EDGE('',*,*,#340,.F.);
#232=ORIENTED_EDGE('',*,*,#388,.F.);
#233=ORIENTED_EDGE('',*,*,#362,.T.);
#234=ORIENTED_EDGE('',*,*,#388,.T.);
#235=ORIENTED_EDGE('',*,*,#389,.F.);
#236=ORIENTED_EDGE('',*,*,#361,.T.);
#237=ORIENTED_EDGE('',*,*,#389,.T.);
#238=ORIENTED_EDGE('',*,*,#390,.F.);
#239=ORIENTED_EDGE('',*,*,#358,.T.);
#240=ORIENTED_EDGE('',*,*,#390,.T.);
#241=ORIENTED_EDGE('',*,*,#391,.F.);
#242=ORIENTED_EDGE('',*,*,#357,.T.);
#243=ORIENTED_EDGE('',*,*,#391,.T.);
#244=ORIENTED_EDGE('',*,*,#392,.F.);
#245=ORIENTED_EDGE('',*,*,#338,.T.);
#246=ORIENTED_EDGE('',*,*,#392,.T.);
#247=ORIENTED_EDGE('',*,*,#393,.F.);
#248=ORIENTED_EDGE('',*,*,#337,.T.);
#249=ORIENTED_EDGE('',*,*,#393,.T.);
#250=ORIENTED_EDGE('',*,*,#394,.F.);
#251=ORIENTED_EDGE('',*,*,#325,.T.);
#252=ORIENTED_EDGE('',*,*,#394,.T.);
#253=ORIENTED_EDGE('',*,*,#395,.F.);
#254=ORIENTED_EDGE('',*,*,#324,.T.);
#255=ORIENTED_EDGE('',*,*,#395,.T.);
#256=ORIENTED_EDGE('',*,*,#396,.F.);
#257=ORIENTED_EDGE('',*,*,#368,.F.);
#258=ORIENTED_EDGE('',*,*,#397,.F.);
#259=ORIENTED_EDGE('',*,*,#385,.F.);
#260=ORIENTED_EDGE('',*,*,#397,.T.);
#261=ORIENTED_EDGE('',*,*,#370,.F.);
#262=ORIENTED_EDGE('',*,*,#398,.F.);
#263=ORIENTED_EDGE('',*,*,#386,.F.);
#264=ORIENTED_EDGE('',*,*,#396,.T.);
#265=ORIENTED_EDGE('',*,*,#384,.F.);
#266=ORIENTED_EDGE('',*,*,#399,.F.);
#267=ORIENTED_EDGE('',*,*,#365,.F.);
#268=ORIENTED_EDGE('',*,*,#398,.T.);
#269=ORIENTED_EDGE('',*,*,#372,.F.);
#270=ORIENTED_EDGE('',*,*,#400,.F.);
#271=ORIENTED_EDGE('',*,*,#387,.F.);
#272=ORIENTED_EDGE('',*,*,#399,.T.);
#273=ORIENTED_EDGE('',*,*,#383,.F.);
#274=ORIENTED_EDGE('',*,*,#401,.F.);
#275=ORIENTED_EDGE('',*,*,#379,.F.);
#276=ORIENTED_EDGE('',*,*,#400,.T.);
#277=ORIENTED_EDGE('',*,*,#374,.F.);
#278=ORIENTED_EDGE('',*,*,#402,.F.);
#279=ORIENTED_EDGE('',*,*,#380,.F.);
#280=ORIENTED_EDGE('',*,*,#401,.T.);
#281=ORIENTED_EDGE('',*,*,#382,.F.);
#282=ORIENTED_EDGE('',*,*,#403,.F.);
#283=ORIENTED_EDGE('',*,*,#378,.F.);
#284=ORIENTED_EDGE('',*,*,#402,.T.);
#285=ORIENTED_EDGE('',*,*,#376,.F.);
#286=ORIENTED_EDGE('',*,*,#403,.T.);
#287=ORIENTED_EDGE('',*,*,#381,.F.);
#288=EDGE_CURVE('',#404,#405,#484,.T.);
#289=EDGE_CURVE('',#406,#404,#485,.T.);
#290=EDGE_CURVE('',#406,#407,#486,.T.);
#291=EDGE_CURVE('',#407,#405,#487,.T.);
#292=EDGE_CURVE('',#408,#409,#488,.T.);
#293=EDGE_CURVE('',#410,#409,#489,.T.);
#294=EDGE_CURVE('',#411,#410,#490,.T.);
#295=EDGE_CURVE('',#411,#408,#491,.T.);
#296=EDGE_CURVE('',#405,#409,#492,.T.);
#297=EDGE_CURVE('',#407,#410,#493,.T.);
#298=EDGE_CURVE('',#406,#411,#494,.T.);
#299=EDGE_CURVE('',#408,#412,#495,.T.);
#300=EDGE_CURVE('',#413,#412,#496,.T.);
#301=EDGE_CURVE('',#413,#414,#497,.T.);
#302=EDGE_CURVE('',#415,#414,#498,.F.);
#303=EDGE_CURVE('',#416,#415,#499,.T.);
#304=EDGE_CURVE('',#417,#416,#500,.T.);
#305=EDGE_CURVE('',#418,#417,#501,.T.);
#306=EDGE_CURVE('',#418,#419,#502,.T.);
#307=EDGE_CURVE('',#420,#419,#503,.F.);
#308=EDGE_CURVE('',#421,#420,#504,.T.);
#309=EDGE_CURVE('',#422,#421,#505,.T.);
#310=EDGE_CURVE('',#422,#423,#506,.T.);
#311=EDGE_CURVE('',#423,#424,#507,.T.);
#312=EDGE_CURVE('',#424,#425,#508,.T.);
#313=EDGE_CURVE('',#426,#425,#509,.T.);
#314=EDGE_CURVE('',#426,#427,#510,.T.);
#315=EDGE_CURVE('',#427,#404,#511,.T.);
#316=EDGE_CURVE('',#428,#429,#512,.T.);
#317=EDGE_CURVE('',#430,#429,#28,.T.);
#318=EDGE_CURVE('',#431,#430,#513,.T.);
#319=EDGE_CURVE('',#432,#431,#29,.T.);
#320=EDGE_CURVE('',#433,#432,#514,.T.);
#321=EDGE_CURVE('',#434,#433,#30,.T.);
#322=EDGE_CURVE('',#434,#435,#515,.T.);
#323=EDGE_CURVE('',#428,#435,#31,.T.);
#324=EDGE_CURVE('',#436,#436,#32,.T.);
#325=EDGE_CURVE('',#437,#437,#33,.T.);
#326=EDGE_CURVE('',#438,#427,#516,.T.);
#327=EDGE_CURVE('',#438,#439,#517,.T.);
#328=EDGE_CURVE('',#439,#412,#518,.T.);
#329=EDGE_CURVE('',#440,#423,#519,.T.);
#330=EDGE_CURVE('',#440,#441,#520,.T.);
#331=EDGE_CURVE('',#441,#424,#521,.T.);
#332=EDGE_CURVE('',#442,#425,#522,.T.);
#333=EDGE_CURVE('',#443,#442,#523,.T.);
#334=EDGE_CURVE('',#443,#426,#524,.T.);
#335=EDGE_CURVE('',#441,#442,#525,.T.);
#336=EDGE_CURVE('',#440,#443,#526,.T.);
#337=EDGE_CURVE('',#444,#444,#34,.T.);
#338=EDGE_CURVE('',#445,#445,#35,.T.);
#339=EDGE_CURVE('',#446,#422,#527,.T.);
#340=EDGE_CURVE('',#446,#438,#528,.T.);
#341=EDGE_CURVE('',#447,#420,#529,.F.);
#342=EDGE_CURVE('',#448,#447,#530,.T.);
#343=EDGE_CURVE('',#448,#421,#531,.T.);
#344=EDGE_CURVE('',#449,#419,#532,.F.);
#345=EDGE_CURVE('',#447,#449,#533,.F.);
#346=EDGE_CURVE('',#450,#418,#534,.T.);
#347=EDGE_CURVE('',#450,#449,#535,.T.);
#348=EDGE_CURVE('',#448,#450,#536,.T.);
#349=EDGE_CURVE('',#451,#415,#537,.F.);
#350=EDGE_CURVE('',#452,#451,#538,.T.);
#351=EDGE_CURVE('',#452,#416,#539,.T.);
#352=EDGE_CURVE('',#453,#414,#540,.F.);
#353=EDGE_CURVE('',#451,#453,#541,.F.);
#354=EDGE_CURVE('',#454,#413,#542,.T.);
#355=EDGE_CURVE('',#454,#453,#543,.T.);
#356=EDGE_CURVE('',#452,#454,#544,.T.);
#357=EDGE_CURVE('',#455,#455,#36,.T.);
#358=EDGE_CURVE('',#456,#456,#37,.T.);
#359=EDGE_CURVE('',#457,#417,#545,.T.);
#360=EDGE_CURVE('',#446,#457,#546,.T.);
#361=EDGE_CURVE('',#458,#458,#38,.T.);
#362=EDGE_CURVE('',#459,#459,#39,.T.);
#363=EDGE_CURVE('',#457,#439,#547,.T.);
#364=EDGE_CURVE('',#460,#428,#548,.T.);
#365=EDGE_CURVE('',#460,#461,#549,.T.);
#366=EDGE_CURVE('',#461,#429,#550,.T.);
#367=EDGE_CURVE('',#462,#435,#551,.T.);
#368=EDGE_CURVE('',#462,#460,#40,.F.);
#369=EDGE_CURVE('',#463,#434,#552,.T.);
#370=EDGE_CURVE('',#463,#462,#553,.T.);
#371=EDGE_CURVE('',#464,#433,#554,.T.);
#372=EDGE_CURVE('',#464,#463,#41,.F.);
#373=EDGE_CURVE('',#465,#432,#555,.T.);
#374=EDGE_CURVE('',#465,#464,#556,.T.);
#375=EDGE_CURVE('',#466,#431,#557,.T.);
#376=EDGE_CURVE('',#466,#465,#42,.F.);
#377=EDGE_CURVE('',#467,#430,#558,.T.);
#378=EDGE_CURVE('',#467,#466,#559,.T.);
#379=EDGE_CURVE('',#461,#467,#43,.F.);
#380=EDGE_CURVE('',#468,#469,#560,.T.);
#381=EDGE_CURVE('',#469,#470,#44,.T.);
#382=EDGE_CURVE('',#470,#471,#561,.T.);
#383=EDGE_CURVE('',#471,#472,#45,.T.);
#384=EDGE_CURVE('',#472,#473,#562,.T.);
#385=EDGE_CURVE('',#473,#474,#46,.T.);
#386=EDGE_CURVE('',#474,#475,#563,.T.);
#387=EDGE_CURVE('',#475,#468,#47,.T.);
#388=EDGE_CURVE('',#476,#476,#48,.T.);
#389=EDGE_CURVE('',#477,#477,#49,.T.);
#390=EDGE_CURVE('',#478,#478,#50,.T.);
#391=EDGE_CURVE('',#479,#479,#51,.T.);
#392=EDGE_CURVE('',#480,#480,#52,.T.);
#393=EDGE_CURVE('',#481,#481,#53,.T.);
#394=EDGE_CURVE('',#482,#482,#54,.T.);
#395=EDGE_CURVE('',#483,#483,#55,.T.);
#396=EDGE_CURVE('',#460,#473,#564,.T.);
#397=EDGE_CURVE('',#474,#462,#565,.T.);
#398=EDGE_CURVE('',#475,#463,#566,.T.);
#399=EDGE_CURVE('',#461,#472,#567,.T.);
#400=EDGE_CURVE('',#468,#464,#568,.T.);
#401=EDGE_CURVE('',#467,#471,#569,.T.);
#402=EDGE_CURVE('',#469,#465,#570,.T.);
#403=EDGE_CURVE('',#466,#470,#571,.T.);
#404=VERTEX_POINT('',#1248);
#405=VERTEX_POINT('',#1249);
#406=VERTEX_POINT('',#1251);
#407=VERTEX_POINT('',#1253);
#408=VERTEX_POINT('',#1257);
#409=VERTEX_POINT('',#1258);
#410=VERTEX_POINT('',#1260);
#411=VERTEX_POINT('',#1262);
#412=VERTEX_POINT('',#1271);
#413=VERTEX_POINT('',#1273);
#414=VERTEX_POINT('',#1275);
#415=VERTEX_POINT('',#1277);
#416=VERTEX_POINT('',#1279);
#417=VERTEX_POINT('',#1281);
#418=VERTEX_POINT('',#1283);
#419=VERTEX_POINT('',#1285);
#420=VERTEX_POINT('',#1287);
#421=VERTEX_POINT('',#1289);
#422=VERTEX_POINT('',#1291);
#423=VERTEX_POINT('',#1293);
#424=VERTEX_POINT('',#1295);
#425=VERTEX_POINT('',#1297);
#426=VERTEX_POINT('',#1299);
#427=VERTEX_POINT('',#1301);
#428=VERTEX_POINT('',#1304);
#429=VERTEX_POINT('',#1305);
#430=VERTEX_POINT('',#1307);
#431=VERTEX_POINT('',#1309);
#432=VERTEX_POINT('',#1311);
#433=VERTEX_POINT('',#1313);
#434=VERTEX_POINT('',#1315);
#435=VERTEX_POINT('',#1317);
#436=VERTEX_POINT('',#1321);
#437=VERTEX_POINT('',#1323);
#438=VERTEX_POINT('',#1325);
#439=VERTEX_POINT('',#1327);
#440=VERTEX_POINT('',#1331);
#441=VERTEX_POINT('',#1333);
#442=VERTEX_POINT('',#1337);
#443=VERTEX_POINT('',#1339);
#444=VERTEX_POINT('',#1347);
#445=VERTEX_POINT('',#1349);
#446=VERTEX_POINT('',#1351);
#447=VERTEX_POINT('',#1355);
#448=VERTEX_POINT('',#1357);
#449=VERTEX_POINT('',#1361);
#450=VERTEX_POINT('',#1365);
#451=VERTEX_POINT('',#1371);
#452=VERTEX_POINT('',#1373);
#453=VERTEX_POINT('',#1377);
#454=VERTEX_POINT('',#1381);
#455=VERTEX_POINT('',#1387);
#456=VERTEX_POINT('',#1389);
#457=VERTEX_POINT('',#1391);
#458=VERTEX_POINT('',#1395);
#459=VERTEX_POINT('',#1397);
#460=VERTEX_POINT('',#1401);
#461=VERTEX_POINT('',#1403);
#462=VERTEX_POINT('',#1407);
#463=VERTEX_POINT('',#1411);
#464=VERTEX_POINT('',#1415);
#465=VERTEX_POINT('',#1419);
#466=VERTEX_POINT('',#1423);
#467=VERTEX_POINT('',#1427);
#468=VERTEX_POINT('',#1433);
#469=VERTEX_POINT('',#1434);
#470=VERTEX_POINT('',#1436);
#471=VERTEX_POINT('',#1438);
#472=VERTEX_POINT('',#1440);
#473=VERTEX_POINT('',#1442);
#474=VERTEX_POINT('',#1444);
#475=VERTEX_POINT('',#1446);
#476=VERTEX_POINT('',#1450);
#477=VERTEX_POINT('',#1454);
#478=VERTEX_POINT('',#1458);
#479=VERTEX_POINT('',#1462);
#480=VERTEX_POINT('',#1466);
#481=VERTEX_POINT('',#1470);
#482=VERTEX_POINT('',#1474);
#483=VERTEX_POINT('',#1478);
#484=LINE('',#1247,#572);
#485=LINE('',#1250,#573);
#486=LINE('',#1252,#574);
#487=LINE('',#1254,#575);
#488=LINE('',#1256,#576);
#489=LINE('',#1259,#577);
#490=LINE('',#1261,#578);
#491=LINE('',#1263,#579);
#492=LINE('',#1265,#580);
#493=LINE('',#1266,#581);
#494=LINE('',#1268,#582);
#495=LINE('',#1270,#583);
#496=LINE('',#1272,#584);
#497=LINE('',#1274,#585);
#498=LINE('',#1276,#586);
#499=LINE('',#1278,#587);
#500=LINE('',#1280,#588);
#501=LINE('',#1282,#589);
#502=LINE('',#1284,#590);
#503=LINE('',#1286,#591);
#504=LINE('',#1288,#592);
#505=LINE('',#1290,#593);
#506=LINE('',#1292,#594);
#507=LINE('',#1294,#595);
#508=LINE('',#1296,#596);
#509=LINE('',#1298,#597);
#510=LINE('',#1300,#598);
#511=LINE('',#1302,#599);
#512=LINE('',#1303,#600);
#513=LINE('',#1308,#601);
#514=LINE('',#1312,#602);
#515=LINE('',#1316,#603);
#516=LINE('',#1324,#604);
#517=LINE('',#1326,#605);
#518=LINE('',#1328,#606);
#519=LINE('',#1330,#607);
#520=LINE('',#1332,#608);
#521=LINE('',#1334,#609);
#522=LINE('',#1336,#610);
#523=LINE('',#1338,#611);
#524=LINE('',#1340,#612);
#525=LINE('',#1342,#613);
#526=LINE('',#1344,#614);
#527=LINE('',#1350,#615);
#528=LINE('',#1352,#616);
#529=LINE('',#1354,#617);
#530=LINE('',#1356,#618);
#531=LINE('',#1358,#619);
#532=LINE('',#1360,#620);
#533=LINE('',#1362,#621);
#534=LINE('',#1364,#622);
#535=LINE('',#1366,#623);
#536=LINE('',#1368,#624);
#537=LINE('',#1370,#625);
#538=LINE('',#1372,#626);
#539=LINE('',#1374,#627);
#540=LINE('',#1376,#628);
#541=LINE('',#1378,#629);
#542=LINE('',#1380,#630);
#543=LINE('',#1382,#631);
#544=LINE('',#1384,#632);
#545=LINE('',#1390,#633);
#546=LINE('',#1392,#634);
#547=LINE('',#1398,#635);
#548=LINE('',#1400,#636);
#549=LINE('',#1402,#637);
#550=LINE('',#1404,#638);
#551=LINE('',#1406,#639);
#552=LINE('',#1410,#640);
#553=LINE('',#1412,#641);
#554=LINE('',#1414,#642);
#555=LINE('',#1418,#643);
#556=LINE('',#1420,#644);
#557=LINE('',#1422,#645);
#558=LINE('',#1426,#646);
#559=LINE('',#1428,#647);
#560=LINE('',#1432,#648);
#561=LINE('',#1437,#649);
#562=LINE('',#1441,#650);
#563=LINE('',#1445,#651);
#564=LINE('',#1481,#652);
#565=LINE('',#1482,#653);
#566=LINE('',#1484,#654);
#567=LINE('',#1486,#655);
#568=LINE('',#1488,#656);
#569=LINE('',#1490,#657);
#570=LINE('',#1492,#658);
#571=LINE('',#1494,#659);
#572=VECTOR('',#995,1.);
#573=VECTOR('',#996,1.);
#574=VECTOR('',#997,1.);
#575=VECTOR('',#998,1.);
#576=VECTOR('',#1001,1.);
#577=VECTOR('',#1002,1.);
#578=VECTOR('',#1003,1.);
#579=VECTOR('',#1004,1.);
#580=VECTOR('',#1007,1.);
#581=VECTOR('',#1008,1.);
#582=VECTOR('',#1011,1.);
#583=VECTOR('',#1014,1.);
#584=VECTOR('',#1015,1.);
#585=VECTOR('',#1016,1.);
#586=VECTOR('',#1017,1.);
#587=VECTOR('',#1018,1.);
#588=VECTOR('',#1019,1.);
#589=VECTOR('',#1020,1.);
#590=VECTOR('',#1021,1.);
#591=VECTOR('',#1022,1.);
#592=VECTOR('',#1023,1.);
#593=VECTOR('',#1024,1.);
#594=VECTOR('',#1025,1.);
#595=VECTOR('',#1026,1.);
#596=VECTOR('',#1027,1.);
#597=VECTOR('',#1028,1.);
#598=VECTOR('',#1029,1.);
#599=VECTOR('',#1030,1.);
#600=VECTOR('',#1031,1.);
#601=VECTOR('',#1034,1.);
#602=VECTOR('',#1037,1.);
#603=VECTOR('',#1040,1.);
#604=VECTOR('',#1049,1.);
#605=VECTOR('',#1050,1.);
#606=VECTOR('',#1051,1.);
#607=VECTOR('',#1054,1.);
#608=VECTOR('',#1055,1.);
#609=VECTOR('',#1056,1.);
#610=VECTOR('',#1059,1.);
#611=VECTOR('',#1060,1.);
#612=VECTOR('',#1061,1.);
#613=VECTOR('',#1064,1.);
#614=VECTOR('',#1067,1.);
#615=VECTOR('',#1074,1.);
#616=VECTOR('',#1075,1.);
#617=VECTOR('',#1078,1.);
#618=VECTOR('',#1079,1.);
#619=VECTOR('',#1080,1.);
#620=VECTOR('',#1083,1.);
#621=VECTOR('',#1084,1.);
#622=VECTOR('',#1087,1.);
#623=VECTOR('',#1088,1.);
#624=VECTOR('',#1091,1.);
#625=VECTOR('',#1094,1.);
#626=VECTOR('',#1095,1.);
#627=VECTOR('',#1096,1.);
#628=VECTOR('',#1099,1.);
#629=VECTOR('',#1100,1.);
#630=VECTOR('',#1103,1.);
#631=VECTOR('',#1104,1.);
#632=VECTOR('',#1107,1.);
#633=VECTOR('',#1114,1.);
#634=VECTOR('',#1115,1.);
#635=VECTOR('',#1122,1.);
#636=VECTOR('',#1125,1.);
#637=VECTOR('',#1126,1.);
#638=VECTOR('',#1127,1.);
#639=VECTOR('',#1130,1.);
#640=VECTOR('',#1135,1.);
#641=VECTOR('',#1136,1.);
#642=VECTOR('',#1139,1.);
#643=VECTOR('',#1144,1.);
#644=VECTOR('',#1145,1.);
#645=VECTOR('',#1148,1.);
#646=VECTOR('',#1153,1.);
#647=VECTOR('',#1154,1.);
#648=VECTOR('',#1161,1.);
#649=VECTOR('',#1164,1.);
#650=VECTOR('',#1167,1.);
#651=VECTOR('',#1170,1.);
#652=VECTOR('',#1223,1.);
#653=VECTOR('',#1224,1.);
#654=VECTOR('',#1227,1.);
#655=VECTOR('',#1230,1.);
#656=VECTOR('',#1233,1.);
#657=VECTOR('',#1236,1.);
#658=VECTOR('',#1239,1.);
#659=VECTOR('',#1242,1.);
#660=EDGE_LOOP('',(#56,#57,#58,#59));
#661=EDGE_LOOP('',(#60,#61,#62,#63));
#662=EDGE_LOOP('',(#64,#65,#66,#67));
#663=EDGE_LOOP('',(#68,#69,#70,#71));
#664=EDGE_LOOP('',(#72,#73,#74,#75,#76,#77,#78,#79,#80,#81,#82,#83,#84,#85,#86,#87,#88,#89,#90,#91));
#665=EDGE_LOOP('',(#92,#93,#94,#95,#96,#97,#98,#99));
#666=EDGE_LOOP('',(#100));
#667=EDGE_LOOP('',(#101));
#668=EDGE_LOOP('',(#102,#103,#104,#105,#106,#107,#108,#109));
#669=EDGE_LOOP('',(#110,#111,#112,#113));
#670=EDGE_LOOP('',(#114,#115,#116,#117));
#671=EDGE_LOOP('',(#118,#119,#120,#121));
#672=EDGE_LOOP('',(#122,#123,#124,#125));
#673=EDGE_LOOP('',(#126));
#674=EDGE_LOOP('',(#127));
#675=EDGE_LOOP('',(#128,#129,#130,#131,#132,#133,#134,#135));
#676=EDGE_LOOP('',(#136,#137,#138,#139));
#677=EDGE_LOOP('',(#140,#141,#142,#143));
#678=EDGE_LOOP('',(#144,#145,#146,#147));
#679=EDGE_LOOP('',(#148,#149,#150,#151));
#680=EDGE_LOOP('',(#152,#153,#154,#155));
#681=EDGE_LOOP('',(#156,#157,#158,#159));
#682=EDGE_LOOP('',(#160,#161,#162,#163));
#683=EDGE_LOOP('',(#164,#165,#166,#167));
#684=EDGE_LOOP('',(#168));
#685=EDGE_LOOP('',(#169));
#686=EDGE_LOOP('',(#170,#171,#172,#173,#174,#175,#176,#177));
#687=EDGE_LOOP('',(#178));
#688=EDGE_LOOP('',(#179));
#689=EDGE_LOOP('',(#180,#181,#182,#183,#184,#185,#186,#187));
#690=EDGE_LOOP('',(#188,#189,#190,#191));
#691=EDGE_LOOP('',(#192,#193,#194,#195));
#692=EDGE_LOOP('',(#196,#197,#198,#199));
#693=EDGE_LOOP('',(#200,#201,#202,#203));
#694=EDGE_LOOP('',(#204,#205,#206,#207));
#695=EDGE_LOOP('',(#208,#209,#210,#211));
#696=EDGE_LOOP('',(#212,#213,#214,#215));
#697=EDGE_LOOP('',(#216,#217,#218,#219));
#698=EDGE_LOOP('',(#220,#221,#222,#223,#224,#225,#226,#227));
#699=EDGE_LOOP('',(#228,#229,#230,#231));
#700=EDGE_LOOP('',(#232));
#701=EDGE_LOOP('',(#233));
#702=EDGE_LOOP('',(#234));
#703=EDGE_LOOP('',(#235));
#704=EDGE_LOOP('',(#236));
#705=EDGE_LOOP('',(#237));
#706=EDGE_LOOP('',(#238));
#707=EDGE_LOOP('',(#239));
#708=EDGE_LOOP('',(#240));
#709=EDGE_LOOP('',(#241));
#710=EDGE_LOOP('',(#242));
#711=EDGE_LOOP('',(#243));
#712=EDGE_LOOP('',(#244));
#713=EDGE_LOOP('',(#245));
#714=EDGE_LOOP('',(#246));
#715=EDGE_LOOP('',(#247));
#716=EDGE_LOOP('',(#248));
#717=EDGE_LOOP('',(#249));
#718=EDGE_LOOP('',(#250));
#719=EDGE_LOOP('',(#251));
#720=EDGE_LOOP('',(#252));
#721=EDGE_LOOP('',(#253));
#722=EDGE_LOOP('',(#254));
#723=EDGE_LOOP('',(#255));
#724=EDGE_LOOP('',(#256,#257,#258,#259));
#725=EDGE_LOOP('',(#260,#261,#262,#263));
#726=EDGE_LOOP('',(#264,#265,#266,#267));
#727=EDGE_LOOP('',(#268,#269,#270,#271));
#728=EDGE_LOOP('',(#272,#273,#274,#275));
#729=EDGE_LOOP('',(#276,#277,#278,#279));
#730=EDGE_LOOP('',(#280,#281,#282,#283));
#731=EDGE_LOOP('',(#284,#285,#286,#287));
#732=FACE_BOUND('',#660,.T.);
#733=FACE_BOUND('',#661,.T.);
#734=FACE_BOUND('',#662,.T.);
#735=FACE_BOUND('',#663,.T.);
#736=FACE_BOUND('',#664,.T.);
#737=FACE_BOUND('',#665,.T.);
#738=FACE_BOUND('',#666,.T.);
#739=FACE_BOUND('',#667,.T.);
#740=FACE_BOUND('',#668,.T.);
#741=FACE_BOUND('',#669,.T.);
#742=FACE_BOUND('',#670,.T.);
#743=FACE_BOUND('',#671,.T.);
#744=FACE_BOUND('',#672,.T.);
#745=FACE_BOUND('',#673,.T.);
#746=FACE_BOUND('',#674,.T.);
#747=FACE_BOUND('',#675,.T.);
#748=FACE_BOUND('',#676,.T.);
#749=FACE_BOUND('',#677,.T.);
#750=FACE_BOUND('',#678,.T.);
#751=FACE_BOUND('',#679,.T.);
#752=FACE_BOUND('',#680,.T.);
#753=FACE_BOUND('',#681,.T.);
#754=FACE_BOUND('',#682,.T.);
#755=FACE_BOUND('',#683,.T.);
#756=FACE_BOUND('',#684,.T.);
#757=FACE_BOUND('',#685,.T.);
#758=FACE_BOUND('',#686,.T.);
#759=FACE_BOUND('',#687,.T.);
#760=FACE_BOUND('',#688,.T.);
#761=FACE_BOUND('',#689,.T.);
#762=FACE_BOUND('',#690,.T.);
#763=FACE_BOUND('',#691,.T.);
#764=FACE_BOUND('',#692,.T.);
#765=FACE_BOUND('',#693,.T.);
#766=FACE_BOUND('',#694,.T.);
#767=FACE_BOUND('',#695,.T.);
#768=FACE_BOUND('',#696,.T.);
#769=FACE_BOUND('',#697,.T.);
#770=FACE_BOUND('',#698,.T.);
#771=FACE_BOUND('',#699,.T.);
#772=FACE_BOUND('',#700,.T.);
#773=FACE_BOUND('',#701,.T.);
#774=FACE_BOUND('',#702,.T.);
#775=FACE_BOUND('',#703,.T.);
#776=FACE_BOUND('',#704,.T.);
#777=FACE_BOUND('',#705,.T.);
#778=FACE_BOUND('',#706,.T.);
#779=FACE_BOUND('',#707,.T.);
#780=FACE_BOUND('',#708,.T.);
#781=FACE_BOUND('',#709,.T.);
#782=FACE_BOUND('',#710,.T.);
#783=FACE_BOUND('',#711,.T.);
#784=FACE_BOUND('',#712,.T.);
#785=FACE_BOUND('',#713,.T.);
#786=FACE_BOUND('',#714,.T.);
#787=FACE_BOUND('',#715,.T.);
#788=FACE_BOUND('',#716,.T.);
#789=FACE_BOUND('',#717,.T.);
#790=FACE_BOUND('',#718,.T.);
#791=FACE_BOUND('',#719,.T.);
#792=FACE_BOUND('',#720,.T.);
#793=FACE_BOUND('',#721,.T.);
#794=FACE_BOUND('',#722,.T.);
#795=FACE_BOUND('',#723,.T.);
#796=FACE_BOUND('',#724,.T.);
#797=FACE_BOUND('',#725,.T.);
#798=FACE_BOUND('',#726,.T.);
#799=FACE_BOUND('',#727,.T.);
#800=FACE_BOUND('',#728,.T.);
#801=FACE_BOUND('',#729,.T.);
#802=FACE_BOUND('',#730,.T.);
#803=FACE_BOUND('',#731,.T.);
#804=PLANE('',#909);
#805=PLANE('',#910);
#806=PLANE('',#911);
#807=PLANE('',#912);
#808=PLANE('',#913);
#809=PLANE('',#918);
#810=PLANE('',#921);
#811=PLANE('',#922);
#812=PLANE('',#923);
#813=PLANE('',#924);
#814=PLANE('',#925);
#815=PLANE('',#928);
#816=PLANE('',#929);
#817=PLANE('',#930);
#818=PLANE('',#931);
#819=PLANE('',#932);
#820=PLANE('',#933);
#821=PLANE('',#934);
#822=PLANE('',#935);
#823=PLANE('',#936);
#824=PLANE('',#939);
#825=PLANE('',#942);
#826=PLANE('',#945);
#827=PLANE('',#948);
#828=PLANE('',#951);
#829=PLANE('',#954);
#830=PLANE('',#961);
#831=PLANE('',#964);
#832=PLANE('',#967);
#833=PLANE('',#970);
#834=PLANE('',#973);
#835=PLANE('',#976);
#836=PLANE('',#979);
#837=PLANE('',#982);
#838=PLANE('',#984);
#839=PLANE('',#985);
#840=PLANE('',#988);
#841=PLANE('',#989);
#842=ADVANCED_FACE('',(#732),#804,.T.);
#843=ADVANCED_FACE('',(#733),#805,.F.);
#844=ADVANCED_FACE('',(#734),#806,.T.);
#845=ADVANCED_FACE('',(#735),#807,.T.);
#846=ADVANCED_FACE('',(#736,#737),#808,.F.);
#847=ADVANCED_FACE('',(#738,#739,#740),#809,.T.);
#848=ADVANCED_FACE('',(#741),#810,.T.);
#849=ADVANCED_FACE('',(#742),#811,.F.);
#850=ADVANCED_FACE('',(#743),#812,.T.);
#851=ADVANCED_FACE('',(#744),#813,.T.);
#852=ADVANCED_FACE('',(#745,#746,#747),#814,.T.);
#853=ADVANCED_FACE('',(#748),#815,.F.);
#854=ADVANCED_FACE('',(#749),#816,.T.);
#855=ADVANCED_FACE('',(#750),#817,.T.);
#856=ADVANCED_FACE('',(#751),#818,.T.);
#857=ADVANCED_FACE('',(#752),#819,.F.);
#858=ADVANCED_FACE('',(#753),#820,.T.);
#859=ADVANCED_FACE('',(#754),#821,.T.);
#860=ADVANCED_FACE('',(#755),#822,.T.);
#861=ADVANCED_FACE('',(#756,#757,#758),#823,.F.);
#862=ADVANCED_FACE('',(#759,#760,#761),#824,.F.);
#863=ADVANCED_FACE('',(#762),#825,.T.);
#864=ADVANCED_FACE('',(#763),#16,.T.);
#865=ADVANCED_FACE('',(#764),#826,.T.);
#866=ADVANCED_FACE('',(#765),#17,.T.);
#867=ADVANCED_FACE('',(#766),#827,.F.);
#868=ADVANCED_FACE('',(#767),#18,.T.);
#869=ADVANCED_FACE('',(#768),#828,.F.);
#870=ADVANCED_FACE('',(#769),#19,.T.);
#871=ADVANCED_FACE('',(#770,#771),#829,.T.);
#872=ADVANCED_FACE('',(#772,#773),#20,.F.);
#873=ADVANCED_FACE('',(#774),#830,.T.);
#874=ADVANCED_FACE('',(#775,#776),#21,.F.);
#875=ADVANCED_FACE('',(#777),#831,.T.);
#876=ADVANCED_FACE('',(#778,#779),#22,.F.);
#877=ADVANCED_FACE('',(#780),#832,.T.);
#878=ADVANCED_FACE('',(#781,#782),#23,.F.);
#879=ADVANCED_FACE('',(#783),#833,.T.);
#880=ADVANCED_FACE('',(#784,#785),#24,.F.);
#881=ADVANCED_FACE('',(#786),#834,.T.);
#882=ADVANCED_FACE('',(#787,#788),#25,.F.);
#883=ADVANCED_FACE('',(#789),#835,.T.);
#884=ADVANCED_FACE('',(#790,#791),#26,.F.);
#885=ADVANCED_FACE('',(#792),#836,.T.);
#886=ADVANCED_FACE('',(#793,#794),#27,.F.);
#887=ADVANCED_FACE('',(#795),#837,.T.);
#888=ADVANCED_FACE('',(#796),#12,.T.);
#889=ADVANCED_FACE('',(#797),#838,.F.);
#890=ADVANCED_FACE('',(#798),#839,.F.);
#891=ADVANCED_FACE('',(#799),#13,.T.);
#892=ADVANCED_FACE('',(#800),#14,.T.);
#893=ADVANCED_FACE('',(#801),#840,.T.);
#894=ADVANCED_FACE('',(#802),#841,.T.);
#895=ADVANCED_FACE('',(#803),#15,.T.);
#896=CLOSED_SHELL('',(#842,#843,#844,#845,#846,#847,#848,#849,#850,#851,#852,#853,#854,#855,#856,#857,#858,#859,#860,#861,#862,#863,#864,#865,#866,#867,#868,#869,#870,#871,#872,#873,#874,#875,#876,#877,#878,#879,#880,#881,#882,#883,#884,#885,#886,#887,#888,#889,#890,#891,#892,#893,#894,#895));
#897=STYLED_ITEM('',(#898),#905);
#898=PRESENTATION_STYLE_ASSIGNMENT((#899));
#899=SURFACE_STYLE_USAGE(.BOTH.,#900);
#900=SURFACE_SIDE_STYLE('',(#901));
#901=SURFACE_STYLE_FILL_AREA(#902);
#902=FILL_AREA_STYLE('',(#903));
#903=FILL_AREA_STYLE_COLOUR('',#904);
#904=COLOUR_RGB('',0.96078431372549,0.96078431372549,0.96078431372549);
#905=MANIFOLD_SOLID_BREP('Part 1',#896);
#906=SHAPE_DEFINITION_REPRESENTATION(#1502,#907);
#907=SHAPE_REPRESENTATION('Part 1',(#908),#1497);
#908=AXIS2_PLACEMENT_3D('',#1245,#991,#992);
#909=AXIS2_PLACEMENT_3D('',#1246,#993,#994);
#910=AXIS2_PLACEMENT_3D('',#1255,#999,#1000);
#911=AXIS2_PLACEMENT_3D('',#1264,#1005,#1006);
#912=AXIS2_PLACEMENT_3D('',#1267,#1009,#1010);
#913=AXIS2_PLACEMENT_3D('',#1269,#1012,#1013);
#914=AXIS2_PLACEMENT_3D('',#1306,#1032,#1033);
#915=AXIS2_PLACEMENT_3D('',#1310,#1035,#1036);
#916=AXIS2_PLACEMENT_3D('',#1314,#1038,#1039);
#917=AXIS2_PLACEMENT_3D('',#1318,#1041,#1042);
#918=AXIS2_PLACEMENT_3D('',#1319,#1043,#1044);
#919=AXIS2_PLACEMENT_3D('',#1320,#1045,#1046);
#920=AXIS2_PLACEMENT_3D('',#1322,#1047,#1048);
#921=AXIS2_PLACEMENT_3D('',#1329,#1052,#1053);
#922=AXIS2_PLACEMENT_3D('',#1335,#1057,#1058);
#923=AXIS2_PLACEMENT_3D('',#1341,#1062,#1063);
#924=AXIS2_PLACEMENT_3D('',#1343,#1065,#1066);
#925=AXIS2_PLACEMENT_3D('',#1345,#1068,#1069);
#926=AXIS2_PLACEMENT_3D('',#1346,#1070,#1071);
#927=AXIS2_PLACEMENT_3D('',#1348,#1072,#1073);
#928=AXIS2_PLACEMENT_3D('',#1353,#1076,#1077);
#929=AXIS2_PLACEMENT_3D('',#1359,#1081,#1082);
#930=AXIS2_PLACEMENT_3D('',#1363,#1085,#1086);
#931=AXIS2_PLACEMENT_3D('',#1367,#1089,#1090);
#932=AXIS2_PLACEMENT_3D('',#1369,#1092,#1093);
#933=AXIS2_PLACEMENT_3D('',#1375,#1097,#1098);
#934=AXIS2_PLACEMENT_3D('',#1379,#1101,#1102);
#935=AXIS2_PLACEMENT_3D('',#1383,#1105,#1106);
#936=AXIS2_PLACEMENT_3D('',#1385,#1108,#1109);
#937=AXIS2_PLACEMENT_3D('',#1386,#1110,#1111);
#938=AXIS2_PLACEMENT_3D('',#1388,#1112,#1113);
#939=AXIS2_PLACEMENT_3D('',#1393,#1116,#1117);
#940=AXIS2_PLACEMENT_3D('',#1394,#1118,#1119);
#941=AXIS2_PLACEMENT_3D('',#1396,#1120,#1121);
#942=AXIS2_PLACEMENT_3D('',#1399,#1123,#1124);
#943=AXIS2_PLACEMENT_3D('',#1405,#1128,#1129);
#944=AXIS2_PLACEMENT_3D('',#1408,#1131,#1132);
#945=AXIS2_PLACEMENT_3D('',#1409,#1133,#1134);
#946=AXIS2_PLACEMENT_3D('',#1413,#1137,#1138);
#947=AXIS2_PLACEMENT_3D('',#1416,#1140,#1141);
#948=AXIS2_PLACEMENT_3D('',#1417,#1142,#1143);
#949=AXIS2_PLACEMENT_3D('',#1421,#1146,#1147);
#950=AXIS2_PLACEMENT_3D('',#1424,#1149,#1150);
#951=AXIS2_PLACEMENT_3D('',#1425,#1151,#1152);
#952=AXIS2_PLACEMENT_3D('',#1429,#1155,#1156);
#953=AXIS2_PLACEMENT_3D('',#1430,#1157,#1158);
#954=AXIS2_PLACEMENT_3D('',#1431,#1159,#1160);
#955=AXIS2_PLACEMENT_3D('',#1435,#1162,#1163);
#956=AXIS2_PLACEMENT_3D('',#1439,#1165,#1166);
#957=AXIS2_PLACEMENT_3D('',#1443,#1168,#1169);
#958=AXIS2_PLACEMENT_3D('',#1447,#1171,#1172);
#959=AXIS2_PLACEMENT_3D('',#1448,#1173,#1174);
#960=AXIS2_PLACEMENT_3D('',#1449,#1175,#1176);
#961=AXIS2_PLACEMENT_3D('',#1451,#1177,#1178);
#962=AXIS2_PLACEMENT_3D('',#1452,#1179,#1180);
#963=AXIS2_PLACEMENT_3D('',#1453,#1181,#1182);
#964=AXIS2_PLACEMENT_3D('',#1455,#1183,#1184);
#965=AXIS2_PLACEMENT_3D('',#1456,#1185,#1186);
#966=AXIS2_PLACEMENT_3D('',#1457,#1187,#1188);
#967=AXIS2_PLACEMENT_3D('',#1459,#1189,#1190);
#968=AXIS2_PLACEMENT_3D('',#1460,#1191,#1192);
#969=AXIS2_PLACEMENT_3D('',#1461,#1193,#1194);
#970=AXIS2_PLACEMENT_3D('',#1463,#1195,#1196);
#971=AXIS2_PLACEMENT_3D('',#1464,#1197,#1198);
#972=AXIS2_PLACEMENT_3D('',#1465,#1199,#1200);
#973=AXIS2_PLACEMENT_3D('',#1467,#1201,#1202);
#974=AXIS2_PLACEMENT_3D('',#1468,#1203,#1204);
#975=AXIS2_PLACEMENT_3D('',#1469,#1205,#1206);
#976=AXIS2_PLACEMENT_3D('',#1471,#1207,#1208);
#977=AXIS2_PLACEMENT_3D('',#1472,#1209,#1210);
#978=AXIS2_PLACEMENT_3D('',#1473,#1211,#1212);
#979=AXIS2_PLACEMENT_3D('',#1475,#1213,#1214);
#980=AXIS2_PLACEMENT_3D('',#1476,#1215,#1216);
#981=AXIS2_PLACEMENT_3D('',#1477,#1217,#1218);
#982=AXIS2_PLACEMENT_3D('',#1479,#1219,#1220);
#983=AXIS2_PLACEMENT_3D('',#1480,#1221,#1222);
#984=AXIS2_PLACEMENT_3D('',#1483,#1225,#1226);
#985=AXIS2_PLACEMENT_3D('',#1485,#1228,#1229);
#986=AXIS2_PLACEMENT_3D('',#1487,#1231,#1232);
#987=AXIS2_PLACEMENT_3D('',#1489,#1234,#1235);
#988=AXIS2_PLACEMENT_3D('',#1491,#1237,#1238);
#989=AXIS2_PLACEMENT_3D('',#1493,#1240,#1241);
#990=AXIS2_PLACEMENT_3D('',#1495,#1243,#1244);
#991=DIRECTION('',(0.,0.,1.));
#992=DIRECTION('',(1.,0.,0.));
#993=DIRECTION('',(-1.,-2.16840434497101E-15,0.));
#994=DIRECTION('',(2.16840434497101E-15,-1.,0.));
#995=DIRECTION('',(-2.16840434497101E-15,1.,0.));
#996=DIRECTION('',(0.,0.,-1.));
#997=DIRECTION('',(-2.16840434497101E-15,1.,0.));
#998=DIRECTION('',(3.39213173696452E-16,-0.156434465040231,-0.987688340595138));
#999=DIRECTION('',(-1.,0.,0.));
#1000=DIRECTION('',(0.,0.,1.));
#1001=DIRECTION('',(0.,1.,0.));
#1002=DIRECTION('',(0.,-0.156434465040231,-0.987688340595138));
#1003=DIRECTION('',(0.,1.,0.));
#1004=DIRECTION('',(0.,0.,-1.));
#1005=DIRECTION('',(-3.42673230275792E-16,0.987688340595138,-0.156434465040231));
#1006=DIRECTION('',(5.42741077914323E-17,-0.156434465040231,-0.987688340595138));
#1007=DIRECTION('',(1.,3.46944695195362E-16,0.));
#1008=DIRECTION('',(1.,3.46944695195362E-16,0.));
#1009=DIRECTION('',(0.,0.,1.));
#1010=DIRECTION('',(1.,0.,0.));
#1011=DIRECTION('',(1.,1.3010426069826E-16,0.));
#1012=DIRECTION('',(0.,0.,1.));
#1013=DIRECTION('',(1.,0.,0.));
#1014=DIRECTION('',(1.,1.22106298168241E-16,0.));
#1015=DIRECTION('',(8.14041987788272E-17,-1.,0.));
#1016=DIRECTION('',(-1.,0.,0.));
#1017=DIRECTION('',(-5.20417042793042E-16,1.,0.));
#1018=DIRECTION('',(-1.,0.,0.));
#1019=DIRECTION('',(8.14041987788272E-17,-1.,0.));
#1020=DIRECTION('',(1.,0.,0.));
#1021=DIRECTION('',(0.,-1.,0.));
#1022=DIRECTION('',(-1.,0.,0.));
#1023=DIRECTION('',(0.,-1.,0.));
#1024=DIRECTION('',(1.,0.,0.));
#1025=DIRECTION('',(0.,-1.,0.));
#1026=DIRECTION('',(1.,0.,0.));
#1027=DIRECTION('',(6.93889390390723E-16,-1.,0.));
#1028=DIRECTION('',(1.,0.,0.));
#1029=DIRECTION('',(0.,-1.,0.));
#1030=DIRECTION('',(1.,1.22106298168241E-16,0.));
#1031=DIRECTION('',(6.12323399573677E-17,-1.,0.));
#1032=DIRECTION('',(0.,0.,1.));
#1033=DIRECTION('',(1.,0.,0.));
#1034=DIRECTION('',(1.,1.22464679914735E-16,0.));
#1035=DIRECTION('',(0.,0.,1.));
#1036=DIRECTION('',(1.,0.,0.));
#1037=DIRECTION('',(0.,-1.,0.));
#1038=DIRECTION('',(0.,0.,1.));
#1039=DIRECTION('',(1.,0.,0.));
#1040=DIRECTION('',(1.,0.,0.));
#1041=DIRECTION('',(0.,0.,1.));
#1042=DIRECTION('',(1.,0.,0.));
#1043=DIRECTION('',(-1.22106298168241E-16,1.,0.));
#1044=DIRECTION('',(-1.,-1.22106298168241E-16,0.));
#1045=DIRECTION('',(-1.22106298168241E-16,1.,0.));
#1046=DIRECTION('',(-1.,-1.22106298168241E-16,0.));
#1047=DIRECTION('',(-1.22106298168241E-16,1.,0.));
#1048=DIRECTION('',(-1.,-1.22106298168241E-16,0.));
#1049=DIRECTION('',(0.,0.,-1.));
#1050=DIRECTION('',(1.,1.22106298168241E-16,0.));
#1051=DIRECTION('',(0.,0.,-1.));
#1052=DIRECTION('',(0.,1.,0.));
#1053=DIRECTION('',(0.,0.,1.));
#1054=DIRECTION('',(0.,0.,-1.));
#1055=DIRECTION('',(1.,0.,0.));
#1056=DIRECTION('',(-0.156434465040231,0.,-0.987688340595138));
#1057=DIRECTION('',(0.,1.,0.));
#1058=DIRECTION('',(0.,0.,1.));
#1059=DIRECTION('',(-0.156434465040231,0.,-0.987688340595138));
#1060=DIRECTION('',(1.,0.,0.));
#1061=DIRECTION('',(0.,0.,-1.));
#1062=DIRECTION('',(0.987688340595138,6.85346460551585E-16,-0.156434465040231));
#1063=DIRECTION('',(-0.156434465040231,-1.08548215582865E-16,-0.987688340595138));
#1064=DIRECTION('',(6.93889390390723E-16,-1.,0.));
#1065=DIRECTION('',(0.,0.,1.));
#1066=DIRECTION('',(1.,0.,0.));
#1067=DIRECTION('',(6.93889390390723E-16,-1.,0.));
#1068=DIRECTION('',(1.,0.,0.));
#1069=DIRECTION('',(0.,0.,-1.));
#1070=DIRECTION('',(1.,0.,0.));
#1071=DIRECTION('',(0.,0.,-1.));
#1072=DIRECTION('',(1.,0.,0.));
#1073=DIRECTION('',(0.,0.,-1.));
#1074=DIRECTION('',(0.,0.,-1.));
#1075=DIRECTION('',(0.,-1.,0.));
#1076=DIRECTION('',(1.,0.,0.));
#1077=DIRECTION('',(0.,0.,-1.));
#1078=DIRECTION('',(0.,-0.156434465040231,0.987688340595138));
#1079=DIRECTION('',(0.,-1.,0.));
#1080=DIRECTION('',(0.,0.,-1.));
#1081=DIRECTION('',(0.,-0.987688340595138,-0.156434465040231));
#1082=DIRECTION('',(0.,0.156434465040231,-0.987688340595138));
#1083=DIRECTION('',(0.,-0.156434465040231,0.987688340595138));
#1084=DIRECTION('',(-1.,0.,0.));
#1085=DIRECTION('',(1.,0.,0.));
#1086=DIRECTION('',(0.,0.,-1.));
#1087=DIRECTION('',(0.,0.,-1.));
#1088=DIRECTION('',(0.,-1.,0.));
#1089=DIRECTION('',(0.,0.,1.));
#1090=DIRECTION('',(1.,0.,0.));
#1091=DIRECTION('',(1.,0.,0.));
#1092=DIRECTION('',(0.,-1.,0.));
#1093=DIRECTION('',(0.,0.,-1.));
#1094=DIRECTION('',(-0.156434465040231,0.,0.987688340595138));
#1095=DIRECTION('',(-1.,0.,0.));
#1096=DIRECTION('',(0.,0.,-1.));
#1097=DIRECTION('',(-0.987688340595138,-5.14009845413689E-16,-0.156434465040231));
#1098=DIRECTION('',(0.156434465040231,8.14111616871485E-17,-0.987688340595138));
#1099=DIRECTION('',(-0.156434465040231,0.,0.987688340595138));
#1100=DIRECTION('',(-5.20417042793042E-16,1.,0.));
#1101=DIRECTION('',(0.,-1.,0.));
#1102=DIRECTION('',(0.,0.,-1.));
#1103=DIRECTION('',(0.,0.,-1.));
#1104=DIRECTION('',(-1.,0.,0.));
#1105=DIRECTION('',(0.,0.,1.));
#1106=DIRECTION('',(1.,0.,0.));
#1107=DIRECTION('',(4.33680868994202E-17,-1.,0.));
#1108=DIRECTION('',(0.,1.,0.));
#1109=DIRECTION('',(0.,0.,1.));
#1110=DIRECTION('',(0.,-1.,0.));
#1111=DIRECTION('',(0.,0.,-1.));
#1112=DIRECTION('',(0.,-1.,0.));
#1113=DIRECTION('',(0.,0.,-1.));
#1114=DIRECTION('',(0.,0.,-1.));
#1115=DIRECTION('',(1.,0.,0.));
#1116=DIRECTION('',(1.,8.14041987788272E-17,0.));
#1117=DIRECTION('',(-8.14041987788272E-17,1.,0.));
#1118=DIRECTION('',(-1.,-8.14041987788272E-17,0.));
#1119=DIRECTION('',(8.14041987788272E-17,-1.,0.));
#1120=DIRECTION('',(-1.,-8.14041987788272E-17,0.));
#1121=DIRECTION('',(8.14041987788272E-17,-1.,0.));
#1122=DIRECTION('',(8.14041987788272E-17,-1.,0.));
#1123=DIRECTION('',(1.,6.12323399573677E-17,0.));
#1124=DIRECTION('',(-6.12323399573677E-17,1.,0.));
#1125=DIRECTION('',(0.,0.,-1.));
#1126=DIRECTION('',(6.12323399573677E-17,-1.,0.));
#1127=DIRECTION('',(0.,0.,-1.));
#1128=DIRECTION('',(0.,0.,-1.));
#1129=DIRECTION('',(-1.,0.,0.));
#1130=DIRECTION('',(0.,0.,-1.));
#1131=DIRECTION('',(0.,0.,1.));
#1132=DIRECTION('',(1.,0.,0.));
#1133=DIRECTION('',(0.,1.,0.));
#1134=DIRECTION('',(0.,0.,1.));
#1135=DIRECTION('',(0.,0.,-1.));
#1136=DIRECTION('',(1.,0.,0.));
#1137=DIRECTION('',(0.,0.,-1.));
#1138=DIRECTION('',(-1.,0.,0.));
#1139=DIRECTION('',(0.,0.,-1.));
#1140=DIRECTION('',(0.,0.,1.));
#1141=DIRECTION('',(1.,0.,0.));
#1142=DIRECTION('',(1.,0.,0.));
#1143=DIRECTION('',(0.,0.,-1.));
#1144=DIRECTION('',(0.,0.,-1.));
#1145=DIRECTION('',(0.,1.,0.));
#1146=DIRECTION('',(0.,0.,-1.));
#1147=DIRECTION('',(-1.,0.,0.));
#1148=DIRECTION('',(0.,0.,-1.));
#1149=DIRECTION('',(0.,0.,1.));
#1150=DIRECTION('',(1.,0.,0.));
#1151=DIRECTION('',(-1.22464679914735E-16,1.,0.));
#1152=DIRECTION('',(-1.,-1.22464679914735E-16,0.));
#1153=DIRECTION('',(0.,0.,-1.));
#1154=DIRECTION('',(-1.,-1.22464679914735E-16,0.));
#1155=DIRECTION('',(0.,0.,-1.));
#1156=DIRECTION('',(-1.,0.,0.));
#1157=DIRECTION('',(0.,0.,1.));
#1158=DIRECTION('',(1.,0.,0.));
#1159=DIRECTION('',(0.,0.,1.));
#1160=DIRECTION('',(1.,0.,0.));
#1161=DIRECTION('',(0.,-1.,0.));
#1162=DIRECTION('',(0.,0.,1.));
#1163=DIRECTION('',(1.,0.,0.));
#1164=DIRECTION('',(1.,1.22464679914735E-16,0.));
#1165=DIRECTION('',(0.,0.,1.));
#1166=DIRECTION('',(1.,0.,0.));
#1167=DIRECTION('',(-6.12323399573677E-17,1.,0.));
#1168=DIRECTION('',(0.,0.,1.));
#1169=DIRECTION('',(1.,0.,0.));
#1170=DIRECTION('',(-1.,0.,0.));
#1171=DIRECTION('',(0.,0.,1.));
#1172=DIRECTION('',(1.,0.,0.));
#1173=DIRECTION('',(-1.,-8.14041987788272E-17,0.));
#1174=DIRECTION('',(8.14041987788272E-17,-1.,0.));
#1175=DIRECTION('',(-1.,-8.14041987788272E-17,0.));
#1176=DIRECTION('',(8.14041987788272E-17,-1.,0.));
#1177=DIRECTION('',(-1.,-8.14041987788272E-17,0.));
#1178=DIRECTION('',(8.14041987788272E-17,-1.,0.));
#1179=DIRECTION('',(-1.,-8.14041987788272E-17,0.));
#1180=DIRECTION('',(8.14041987788272E-17,-1.,0.));
#1181=DIRECTION('',(-1.,-8.14041987788272E-17,0.));
#1182=DIRECTION('',(8.14041987788272E-17,-1.,0.));
#1183=DIRECTION('',(-1.,-8.14041987788272E-17,0.));
#1184=DIRECTION('',(8.14041987788272E-17,-1.,0.));
#1185=DIRECTION('',(0.,-1.,0.));
#1186=DIRECTION('',(0.,0.,-1.));
#1187=DIRECTION('',(0.,-1.,0.));
#1188=DIRECTION('',(0.,0.,-1.));
#1189=DIRECTION('',(0.,-1.,0.));
#1190=DIRECTION('',(1.,0.,0.));
#1191=DIRECTION('',(0.,-1.,0.));
#1192=DIRECTION('',(0.,0.,-1.));
#1193=DIRECTION('',(0.,-1.,0.));
#1194=DIRECTION('',(0.,0.,-1.));
#1195=DIRECTION('',(0.,-1.,0.));
#1196=DIRECTION('',(1.,0.,0.));
#1197=DIRECTION('',(1.,0.,0.));
#1198=DIRECTION('',(0.,0.,-1.));
#1199=DIRECTION('',(1.,0.,0.));
#1200=DIRECTION('',(0.,0.,-1.));
#1201=DIRECTION('',(1.,0.,0.));
#1202=DIRECTION('',(0.,1.,0.));
#1203=DIRECTION('',(1.,0.,0.));
#1204=DIRECTION('',(0.,0.,-1.));
#1205=DIRECTION('',(1.,0.,0.));
#1206=DIRECTION('',(0.,0.,-1.));
#1207=DIRECTION('',(1.,0.,0.));
#1208=DIRECTION('',(0.,1.,0.));
#1209=DIRECTION('',(-1.22106298168241E-16,1.,0.));
#1210=DIRECTION('',(-1.,-1.22106298168241E-16,0.));
#1211=DIRECTION('',(-1.22106298168241E-16,1.,0.));
#1212=DIRECTION('',(-1.,-1.22106298168241E-16,0.));
#1213=DIRECTION('',(-1.22106298168241E-16,1.,0.));
#1214=DIRECTION('',(-1.,-1.22106298168241E-16,0.));
#1215=DIRECTION('',(-1.22106298168241E-16,1.,0.));
#1216=DIRECTION('',(-1.,-1.22106298168241E-16,0.));
#1217=DIRECTION('',(-1.22106298168241E-16,1.,0.));
#1218=DIRECTION('',(-1.,-1.22106298168241E-16,0.));
#1219=DIRECTION('',(-1.22106298168241E-16,1.,0.));
#1220=DIRECTION('',(-1.,-1.22106298168241E-16,0.));
#1221=DIRECTION('',(0.,0.,-1.));
#1222=DIRECTION('',(-1.,0.,0.));
#1223=DIRECTION('',(-0.707106781186547,0.,0.707106781186548));
#1224=DIRECTION('',(-2.19041916669053E-16,0.707106781186547,-0.707106781186548));
#1225=DIRECTION('',(0.,-0.707106781186548,-0.707106781186547));
#1226=DIRECTION('',(1.,0.,0.));
#1227=DIRECTION('',(0.,0.707106781186547,-0.707106781186548));
#1228=DIRECTION('',(-0.707106781186548,-4.32978028117747E-17,-0.707106781186547));
#1229=DIRECTION('',(6.12323399573677E-17,-1.,0.));
#1230=DIRECTION('',(-0.707106781186547,-2.19041916669053E-16,0.707106781186548));
#1231=DIRECTION('',(0.,0.,-1.));
#1232=DIRECTION('',(-1.,0.,0.));
#1233=DIRECTION('',(-0.707106781186547,0.,-0.707106781186548));
#1234=DIRECTION('',(0.,0.,-1.));
#1235=DIRECTION('',(-1.,0.,0.));
#1236=DIRECTION('',(0.,0.707106781186547,0.707106781186548));
#1237=DIRECTION('',(-0.707106781186548,0.,0.707106781186547));
#1238=DIRECTION('',(0.,1.,0.));
#1239=DIRECTION('',(-0.707106781186547,0.,-0.707106781186548));
#1240=DIRECTION('',(8.65956056235494E-17,-0.707106781186548,0.707106781186547));
#1241=DIRECTION('',(-1.,-1.22464679914735E-16,0.));
#1242=DIRECTION('',(0.,0.707106781186547,0.707106781186548));
#1243=DIRECTION('',(0.,0.,-1.));
#1244=DIRECTION('',(-1.,0.,0.));
#1245=CARTESIAN_POINT('',(0.,0.,0.));
#1246=CARTESIAN_POINT('',(-0.012025,0.0020975,0.005));
#1247=CARTESIAN_POINT('',(-0.012025,0.0020975,0.));
#1248=CARTESIAN_POINT('',(-0.012025,0.0016975,0.));
#1249=CARTESIAN_POINT('',(-0.012025,0.00170557779837732,0.));
#1250=CARTESIAN_POINT('',(-0.012025,0.0016975,0.005));
#1251=CARTESIAN_POINT('',(-0.012025,0.0016975,0.005));
#1252=CARTESIAN_POINT('',(-0.012025,0.0020975,0.005));
#1253=CARTESIAN_POINT('',(-0.012025,0.0024975,0.005));
#1254=CARTESIAN_POINT('',(-0.012025,0.00248771130325903,0.00493819660112501));
#1255=CARTESIAN_POINT('',(-0.007025,0.0020975,0.005));
#1256=CARTESIAN_POINT('',(-0.007025,0.0020975,0.));
#1257=CARTESIAN_POINT('',(-0.007025,0.0016975,0.));
#1258=CARTESIAN_POINT('',(-0.007025,0.00170557779837732,0.));
#1259=CARTESIAN_POINT('',(-0.007025,0.00248771130325904,0.00493819660112501));
#1260=CARTESIAN_POINT('',(-0.007025,0.0024975,0.005));
#1261=CARTESIAN_POINT('',(-0.007025,0.0020975,0.005));
#1262=CARTESIAN_POINT('',(-0.007025,0.0016975,0.005));
#1263=CARTESIAN_POINT('',(-0.007025,0.0016975,0.005));
#1264=CARTESIAN_POINT('',(-0.009525,0.0024975,0.005));
#1265=CARTESIAN_POINT('',(-0.009525,0.00170557779837732,0.));
#1266=CARTESIAN_POINT('',(-0.009525,0.0024975,0.005));
#1267=CARTESIAN_POINT('',(-0.009525,0.009525,0.005));
#1268=CARTESIAN_POINT('',(-0.009525,0.0016975,0.005));
#1269=CARTESIAN_POINT('',(-0.009525,0.009525,0.));
#1270=CARTESIAN_POINT('',(-0.00436125,0.0016975,0.));
#1271=CARTESIAN_POINT('',(-0.0016975,0.0016975,0.));
#1272=CARTESIAN_POINT('',(-0.0016975,0.01468875,0.));
#1273=CARTESIAN_POINT('',(-0.0016975,0.007025,0.));
#1274=CARTESIAN_POINT('',(-0.0020975,0.007025,0.));
#1275=CARTESIAN_POINT('',(-0.00170557779837732,0.007025,0.));
#1276=CARTESIAN_POINT('',(-0.00170557779837732,0.009525,0.));
#1277=CARTESIAN_POINT('',(-0.00170557779837732,0.012025,0.));
#1278=CARTESIAN_POINT('',(-0.0020975,0.012025,0.));
#1279=CARTESIAN_POINT('',(-0.0016975,0.012025,0.));
#1280=CARTESIAN_POINT('',(-0.0016975,0.01468875,0.));
#1281=CARTESIAN_POINT('',(-0.0016975,0.0173525,0.));
#1282=CARTESIAN_POINT('',(-0.01468875,0.0173525,0.));
#1283=CARTESIAN_POINT('',(-0.007025,0.0173525,0.));
#1284=CARTESIAN_POINT('',(-0.007025,0.0169525,0.));
#1285=CARTESIAN_POINT('',(-0.007025,0.0173444222016227,0.));
#1286=CARTESIAN_POINT('',(-0.009525,0.0173444222016227,0.));
#1287=CARTESIAN_POINT('',(-0.012025,0.0173444222016227,0.));
#1288=CARTESIAN_POINT('',(-0.012025,0.0169525,0.));
#1289=CARTESIAN_POINT('',(-0.012025,0.0173525,0.));
#1290=CARTESIAN_POINT('',(-0.01468875,0.0173525,0.));
#1291=CARTESIAN_POINT('',(-0.0173525,0.0173525,0.));
#1292=CARTESIAN_POINT('',(-0.0173525,0.00436125,0.));
#1293=CARTESIAN_POINT('',(-0.0173525,0.012025,0.));
#1294=CARTESIAN_POINT('',(-0.0169525,0.012025,0.));
#1295=CARTESIAN_POINT('',(-0.0173444222016227,0.012025,0.));
#1296=CARTESIAN_POINT('',(-0.0173444222016227,0.009525,0.));
#1297=CARTESIAN_POINT('',(-0.0173444222016227,0.007025,0.));
#1298=CARTESIAN_POINT('',(-0.0169525,0.007025,0.));
#1299=CARTESIAN_POINT('',(-0.0173525,0.007025,0.));
#1300=CARTESIAN_POINT('',(-0.0173525,0.00436125,0.));
#1301=CARTESIAN_POINT('',(-0.0173525,0.0016975,0.));
#1302=CARTESIAN_POINT('',(-0.00436125,0.0016975,0.));
#1303=CARTESIAN_POINT('',(-8.36441771566603E-20,0.009525,0.));
#1304=CARTESIAN_POINT('',(-5.44417535335852E-19,0.01705,0.));
#1305=CARTESIAN_POINT('',(8.67361737988404E-19,0.002,0.));
#1306=CARTESIAN_POINT('',(-0.002,0.002,0.));
#1307=CARTESIAN_POINT('',(-0.002,3.32066930814077E-19,0.));
#1308=CARTESIAN_POINT('',(-0.009525,-5.89479785544307E-19,0.));
#1309=CARTESIAN_POINT('',(-0.01705,3.90312782094781E-18,0.));
#1310=CARTESIAN_POINT('',(-0.01705,0.002,0.));
#1311=CARTESIAN_POINT('',(-0.01905,0.002,0.));
#1312=CARTESIAN_POINT('',(-0.01905,0.009525,0.));
#1313=CARTESIAN_POINT('',(-0.01905,0.01705,0.));
#1314=CARTESIAN_POINT('',(-0.01705,0.01705,0.));
#1315=CARTESIAN_POINT('',(-0.01705,0.01905,0.));
#1316=CARTESIAN_POINT('',(-0.009525,0.01905,0.));
#1317=CARTESIAN_POINT('',(-0.002,0.01905,0.));
#1318=CARTESIAN_POINT('',(-0.002,0.01705,0.));
#1319=CARTESIAN_POINT('',(-0.00436125,0.0016975,0.0062));
#1320=CARTESIAN_POINT('',(-0.004525,0.0016975,0.0031));
#1321=CARTESIAN_POINT('',(-0.005525,0.0016975,0.0031));
#1322=CARTESIAN_POINT('',(-0.014525,0.0016975,0.0031));
#1323=CARTESIAN_POINT('',(-0.015525,0.0016975,0.0031));
#1324=CARTESIAN_POINT('',(-0.0173525,0.0016975,0.0062));
#1325=CARTESIAN_POINT('',(-0.0173525,0.0016975,0.0062));
#1326=CARTESIAN_POINT('',(-0.00436125,0.0016975,0.0062));
#1327=CARTESIAN_POINT('',(-0.0016975,0.0016975,0.0062));
#1328=CARTESIAN_POINT('',(-0.0016975,0.0016975,0.0062));
#1329=CARTESIAN_POINT('',(-0.0169525,0.012025,0.005));
#1330=CARTESIAN_POINT('',(-0.0173525,0.012025,0.005));
#1331=CARTESIAN_POINT('',(-0.0173525,0.012025,0.005));
#1332=CARTESIAN_POINT('',(-0.0169525,0.012025,0.005));
#1333=CARTESIAN_POINT('',(-0.0165525,0.012025,0.005));
#1334=CARTESIAN_POINT('',(-0.016562288696741,0.012025,0.00493819660112501));
#1335=CARTESIAN_POINT('',(-0.0169525,0.007025,0.005));
#1336=CARTESIAN_POINT('',(-0.016562288696741,0.007025,0.00493819660112501));
#1337=CARTESIAN_POINT('',(-0.0165525,0.007025,0.005));
#1338=CARTESIAN_POINT('',(-0.0169525,0.007025,0.005));
#1339=CARTESIAN_POINT('',(-0.0173525,0.007025,0.005));
#1340=CARTESIAN_POINT('',(-0.0173525,0.007025,0.005));
#1341=CARTESIAN_POINT('',(-0.0165525,0.009525,0.005));
#1342=CARTESIAN_POINT('',(-0.0165525,0.009525,0.005));
#1343=CARTESIAN_POINT('',(-0.009525,0.009525,0.005));
#1344=CARTESIAN_POINT('',(-0.0173525,0.009525,0.005));
#1345=CARTESIAN_POINT('',(-0.0173525,0.00436125,0.0062));
#1346=CARTESIAN_POINT('',(-0.0173525,0.004525,0.0031));
#1347=CARTESIAN_POINT('',(-0.0173525,0.004525,0.0021));
#1348=CARTESIAN_POINT('',(-0.0173525,0.014525,0.0031));
#1349=CARTESIAN_POINT('',(-0.0173525,0.014525,0.0021));
#1350=CARTESIAN_POINT('',(-0.0173525,0.0173525,0.0062));
#1351=CARTESIAN_POINT('',(-0.0173525,0.0173525,0.0062));
#1352=CARTESIAN_POINT('',(-0.0173525,0.00436125,0.0062));
#1353=CARTESIAN_POINT('',(-0.012025,0.0169525,0.005));
#1354=CARTESIAN_POINT('',(-0.012025,0.0165525,0.005));
#1355=CARTESIAN_POINT('',(-0.012025,0.0165525,0.005));
#1356=CARTESIAN_POINT('',(-0.012025,0.0169525,0.005));
#1357=CARTESIAN_POINT('',(-0.012025,0.0173525,0.005));
#1358=CARTESIAN_POINT('',(-0.012025,0.0173525,0.005));
#1359=CARTESIAN_POINT('',(-0.009525,0.0165525,0.005));
#1360=CARTESIAN_POINT('',(-0.007025,0.0165525,0.005));
#1361=CARTESIAN_POINT('',(-0.007025,0.0165525,0.005));
#1362=CARTESIAN_POINT('',(-0.009525,0.0165525,0.005));
#1363=CARTESIAN_POINT('',(-0.007025,0.0169525,0.005));
#1364=CARTESIAN_POINT('',(-0.007025,0.0173525,0.005));
#1365=CARTESIAN_POINT('',(-0.007025,0.0173525,0.005));
#1366=CARTESIAN_POINT('',(-0.007025,0.0169525,0.005));
#1367=CARTESIAN_POINT('',(-0.009525,0.009525,0.005));
#1368=CARTESIAN_POINT('',(-0.009525,0.0173525,0.005));
#1369=CARTESIAN_POINT('',(-0.0020975,0.012025,0.005));
#1370=CARTESIAN_POINT('',(-0.0024975,0.012025,0.005));
#1371=CARTESIAN_POINT('',(-0.0024975,0.012025,0.005));
#1372=CARTESIAN_POINT('',(-0.0020975,0.012025,0.005));
#1373=CARTESIAN_POINT('',(-0.0016975,0.012025,0.005));
#1374=CARTESIAN_POINT('',(-0.0016975,0.012025,0.005));
#1375=CARTESIAN_POINT('',(-0.0024975,0.009525,0.005));
#1376=CARTESIAN_POINT('',(-0.0024975,0.007025,0.005));
#1377=CARTESIAN_POINT('',(-0.0024975,0.007025,0.005));
#1378=CARTESIAN_POINT('',(-0.0024975,0.009525,0.005));
#1379=CARTESIAN_POINT('',(-0.0020975,0.007025,0.005));
#1380=CARTESIAN_POINT('',(-0.0016975,0.007025,0.005));
#1381=CARTESIAN_POINT('',(-0.0016975,0.007025,0.005));
#1382=CARTESIAN_POINT('',(-0.0020975,0.007025,0.005));
#1383=CARTESIAN_POINT('',(-0.009525,0.009525,0.005));
#1384=CARTESIAN_POINT('',(-0.0016975,0.009525,0.005));
#1385=CARTESIAN_POINT('',(-0.01468875,0.0173525,0.0062));
#1386=CARTESIAN_POINT('',(-0.014525,0.0173525,0.0031));
#1387=CARTESIAN_POINT('',(-0.014525,0.0173525,0.0021));
#1388=CARTESIAN_POINT('',(-0.004525,0.0173525,0.0031));
#1389=CARTESIAN_POINT('',(-0.004525,0.0173525,0.0021));
#1390=CARTESIAN_POINT('',(-0.0016975,0.0173525,0.0062));
#1391=CARTESIAN_POINT('',(-0.0016975,0.0173525,0.0062));
#1392=CARTESIAN_POINT('',(-0.01468875,0.0173525,0.0062));
#1393=CARTESIAN_POINT('',(-0.0016975,0.01468875,0.0062));
#1394=CARTESIAN_POINT('',(-0.0016975,0.014525,0.0031));
#1395=CARTESIAN_POINT('',(-0.0016975,0.013525,0.0031));
#1396=CARTESIAN_POINT('',(-0.0016975,0.004525,0.0031));
#1397=CARTESIAN_POINT('',(-0.0016975,0.003525,0.0031));
#1398=CARTESIAN_POINT('',(-0.0016975,0.01468875,0.0062));
#1399=CARTESIAN_POINT('',(-8.36441771566603E-20,0.009525,0.0062));
#1400=CARTESIAN_POINT('',(-5.44417535335852E-19,0.01705,0.0062));
#1401=CARTESIAN_POINT('',(-5.44417535335852E-19,0.01705,0.0048));
#1402=CARTESIAN_POINT('',(-8.36441771566603E-20,0.009525,0.0048));
#1403=CARTESIAN_POINT('',(8.67361737988404E-19,0.002,0.0048));
#1404=CARTESIAN_POINT('',(8.67361737988404E-19,0.002,0.0062));
#1405=CARTESIAN_POINT('',(-0.002,0.01705,0.0062));
#1406=CARTESIAN_POINT('',(-0.002,0.01905,0.0062));
#1407=CARTESIAN_POINT('',(-0.002,0.01905,0.0048));
#1408=CARTESIAN_POINT('',(-0.002,0.01705,0.0048));
#1409=CARTESIAN_POINT('',(-0.009525,0.01905,0.0062));
#1410=CARTESIAN_POINT('',(-0.01705,0.01905,0.0062));
#1411=CARTESIAN_POINT('',(-0.01705,0.01905,0.0048));
#1412=CARTESIAN_POINT('',(-0.009525,0.01905,0.0048));
#1413=CARTESIAN_POINT('',(-0.01705,0.01705,0.0062));
#1414=CARTESIAN_POINT('',(-0.01905,0.01705,0.0062));
#1415=CARTESIAN_POINT('',(-0.01905,0.01705,0.0048));
#1416=CARTESIAN_POINT('',(-0.01705,0.01705,0.0048));
#1417=CARTESIAN_POINT('',(-0.01905,0.009525,0.0062));
#1418=CARTESIAN_POINT('',(-0.01905,0.002,0.0062));
#1419=CARTESIAN_POINT('',(-0.01905,0.002,0.0048));
#1420=CARTESIAN_POINT('',(-0.01905,0.01705,0.0048));
#1421=CARTESIAN_POINT('',(-0.01705,0.002,0.0062));
#1422=CARTESIAN_POINT('',(-0.01705,3.90312782094781E-18,0.0062));
#1423=CARTESIAN_POINT('',(-0.01705,3.90312782094781E-18,0.0048));
#1424=CARTESIAN_POINT('',(-0.01705,0.002,0.0048));
#1425=CARTESIAN_POINT('',(-0.009525,-5.89479785544307E-19,0.0062));
#1426=CARTESIAN_POINT('',(-0.002,3.32066930814077E-19,0.0062));
#1427=CARTESIAN_POINT('',(-0.002,3.32066930814077E-19,0.0048));
#1428=CARTESIAN_POINT('',(-0.01705,-1.51102650190269E-18,0.0048));
#1429=CARTESIAN_POINT('',(-0.002,0.002,0.0062));
#1430=CARTESIAN_POINT('',(-0.002,0.002,0.0048));
#1431=CARTESIAN_POINT('',(-0.009525,0.009525,0.0062));
#1432=CARTESIAN_POINT('',(-0.01765,0.002,0.0062));
#1433=CARTESIAN_POINT('',(-0.01765,0.01705,0.0062));
#1434=CARTESIAN_POINT('',(-0.01765,0.002,0.0062));
#1435=CARTESIAN_POINT('',(-0.01705,0.002,0.0062));
#1436=CARTESIAN_POINT('',(-0.01705,0.0014,0.0062));
#1437=CARTESIAN_POINT('',(-0.002,0.0014,0.0062));
#1438=CARTESIAN_POINT('',(-0.002,0.0014,0.0062));
#1439=CARTESIAN_POINT('',(-0.002,0.002,0.0062));
#1440=CARTESIAN_POINT('',(-0.0014,0.002,0.0062));
#1441=CARTESIAN_POINT('',(-0.0014,0.009525,0.0062));
#1442=CARTESIAN_POINT('',(-0.0014,0.01705,0.0062));
#1443=CARTESIAN_POINT('',(-0.002,0.01705,0.0062));
#1444=CARTESIAN_POINT('',(-0.002,0.01765,0.0062));
#1445=CARTESIAN_POINT('',(-0.009525,0.01765,0.0062));
#1446=CARTESIAN_POINT('',(-0.01705,0.01765,0.0062));
#1447=CARTESIAN_POINT('',(-0.01705,0.01705,0.0062));
#1448=CARTESIAN_POINT('',(-0.0011475,0.004525,0.0031));
#1449=CARTESIAN_POINT('',(-0.0011475,0.004525,0.0031));
#1450=CARTESIAN_POINT('',(-0.0011475,0.003525,0.0031));
#1451=CARTESIAN_POINT('',(-0.0011475,0.009525,0.0031));
#1452=CARTESIAN_POINT('',(-0.0011475,0.014525,0.0031));
#1453=CARTESIAN_POINT('',(-0.0011475,0.014525,0.0031));
#1454=CARTESIAN_POINT('',(-0.0011475,0.013525,0.0031));
#1455=CARTESIAN_POINT('',(-0.0011475,0.009525,0.0031));
#1456=CARTESIAN_POINT('',(-0.004525,0.0179025,0.0031));
#1457=CARTESIAN_POINT('',(-0.004525,0.0179025,0.0031));
#1458=CARTESIAN_POINT('',(-0.004525,0.0179025,0.0021));
#1459=CARTESIAN_POINT('',(-0.009525,0.0179025,0.0031));
#1460=CARTESIAN_POINT('',(-0.014525,0.0179025,0.0031));
#1461=CARTESIAN_POINT('',(-0.014525,0.0179025,0.0031));
#1462=CARTESIAN_POINT('',(-0.014525,0.0179025,0.0021));
#1463=CARTESIAN_POINT('',(-0.009525,0.0179025,0.0031));
#1464=CARTESIAN_POINT('',(-0.0179025,0.014525,0.0031));
#1465=CARTESIAN_POINT('',(-0.0179025,0.014525,0.0031));
#1466=CARTESIAN_POINT('',(-0.0179025,0.014525,0.0021));
#1467=CARTESIAN_POINT('',(-0.0179025,0.009525,0.0031));
#1468=CARTESIAN_POINT('',(-0.0179025,0.004525,0.0031));
#1469=CARTESIAN_POINT('',(-0.0179025,0.004525,0.0031));
#1470=CARTESIAN_POINT('',(-0.0179025,0.004525,0.0021));
#1471=CARTESIAN_POINT('',(-0.0179025,0.009525,0.0031));
#1472=CARTESIAN_POINT('',(-0.014525,0.0011475,0.0031));
#1473=CARTESIAN_POINT('',(-0.014525,0.0011475,0.0031));
#1474=CARTESIAN_POINT('',(-0.015525,0.0011475,0.0031));
#1475=CARTESIAN_POINT('',(-0.009525,0.0011475,0.0031));
#1476=CARTESIAN_POINT('',(-0.004525,0.0011475,0.0031));
#1477=CARTESIAN_POINT('',(-0.004525,0.0011475,0.0031));
#1478=CARTESIAN_POINT('',(-0.005525,0.0011475,0.0031));
#1479=CARTESIAN_POINT('',(-0.009525,0.0011475,0.0031));
#1480=CARTESIAN_POINT('',(-0.002,0.01705,0.0062));
#1481=CARTESIAN_POINT('',(-4.01386448728947E-18,0.01705,0.0048));
#1482=CARTESIAN_POINT('',(-0.002,0.01765,0.0062));
#1483=CARTESIAN_POINT('',(-0.009525,0.01905,0.0048));
#1484=CARTESIAN_POINT('',(-0.01705,0.01765,0.0062));
#1485=CARTESIAN_POINT('',(-8.36441771566603E-20,0.009525,0.0048));
#1486=CARTESIAN_POINT('',(3.77129181022532E-19,0.002,0.0048));
#1487=CARTESIAN_POINT('',(-0.01705,0.01705,0.0062));
#1488=CARTESIAN_POINT('',(-0.01765,0.01705,0.0062));
#1489=CARTESIAN_POINT('',(-0.002,0.002,0.0062));
#1490=CARTESIAN_POINT('',(-0.002,-1.01613938180125E-19,0.0048));
#1491=CARTESIAN_POINT('',(-0.01765,0.009525,0.0062));
#1492=CARTESIAN_POINT('',(-0.01765,0.002,0.0062));
#1493=CARTESIAN_POINT('',(-0.009525,0.0014,0.0062));
#1494=CARTESIAN_POINT('',(-0.01705,-1.51102650190269E-18,0.0048));
#1495=CARTESIAN_POINT('',(-0.01705,0.002,0.0062));
#1496=MECHANICAL_DESIGN_GEOMETRIC_PRESENTATION_REPRESENTATION('',(#897),#1497);
#1497=(
GEOMETRIC_REPRESENTATION_CONTEXT(3)
GLOBAL_UNCERTAINTY_ASSIGNED_CONTEXT((#1498))
GLOBAL_UNIT_ASSIGNED_CONTEXT((#1501,#1500,#1499))
REPRESENTATION_CONTEXT('Part 1','TOP_LEVEL_ASSEMBLY_PART')
);
#1498=UNCERTAINTY_MEASURE_WITH_UNIT(LENGTH_MEASURE(1.E-08),#1501,'DISTANCE_ACCURACY_VALUE','Maximum Tolerance applied to model');
#1499=(
NAMED_UNIT(*)
SI_UNIT($,.STERADIAN.)
SOLID_ANGLE_UNIT()
);
#1500=(
NAMED_UNIT(*)
PLANE_ANGLE_UNIT()
SI_UNIT($,.RADIAN.)
);
#1501=(
LENGTH_UNIT()
NAMED_UNIT(*)
SI_UNIT($,.METRE.)
);
#1502=PRODUCT_DEFINITION_SHAPE('','',#1503);
#1503=PRODUCT_DEFINITION('','',#1505,#1504);
#1504=PRODUCT_DEFINITION_CONTEXT('',#1511,'design');
#1505=PRODUCT_DEFINITION_FORMATION_WITH_SPECIFIED_SOURCE('','',#1507,.NOT_KNOWN.);
#1506=PRODUCT_RELATED_PRODUCT_CATEGORY('','',(#1507));
#1507=PRODUCT('Part 1','Part 1','Part 1',(#1509));
#1508=PRODUCT_CATEGORY('','');
#1509=PRODUCT_CONTEXT('',#1511,'mechanical');
#1510=APPLICATION_PROTOCOL_DEFINITION('international standard','ap242_managed_model_based_3d_engineering',2020,#1511);
#1511=APPLICATION_CONTEXT('managed model based 3d engineering');
#1512=COMPOSITE_SHAPE_ASPECT('DISTANCE.FITQzK1UluWM8tF_0',$,#1502,$);
#1513=SHAPE_ASPECT('DISTANCE.FITQzK1UluWM8tF_0',$,#1502,.T.);
#1514=GEOMETRIC_ITEM_SPECIFIC_USAGE('','',#1513,#11,#846);
#1515=SHAPE_ASPECT_RELATIONSHIP('','',#1512,#1513);
#1516=SHAPE_ASPECT('DISTANCE.FITQzK1UluWM8tF_0',$,#1502,.T.);
#1517=GEOMETRIC_ITEM_SPECIFIC_USAGE('','',#1516,#11,#846);
#1518=SHAPE_ASPECT_RELATIONSHIP('','',#1512,#1516);
#1519=SHAPE_ASPECT('DISTANCE.FITQzK1UluWM8tF_0',$,#1502,.T.);
#1520=GEOMETRIC_ITEM_SPECIFIC_USAGE('','',#1519,#11,#846);
#1521=SHAPE_ASPECT_RELATIONSHIP('','',#1512,#1519);
#1522=SHAPE_ASPECT('DISTANCE.FITQzK1UluWM8tF_0',$,#1502,.T.);
#1523=GEOMETRIC_ITEM_SPECIFIC_USAGE('','',#1522,#11,#846);
#1524=SHAPE_ASPECT_RELATIONSHIP('','',#1512,#1522);
#1525=COMPOSITE_SHAPE_ASPECT('DISTANCE.FITQzK1UluWM8tF_0',$,#1502,$);
#1526=SHAPE_ASPECT('DISTANCE.FITQzK1UluWM8tF_0',$,#1502,.T.);
#1527=GEOMETRIC_ITEM_SPECIFIC_USAGE('','',#1526,#11,#856);
#1528=SHAPE_ASPECT_RELATIONSHIP('','',#1525,#1526);
#1529=SHAPE_ASPECT('DISTANCE.FITQzK1UluWM8tF_0',$,#1502,.T.);
#1530=GEOMETRIC_ITEM_SPECIFIC_USAGE('','',#1529,#11,#845);
#1531=SHAPE_ASPECT_RELATIONSHIP('','',#1525,#1529);
#1532=SHAPE_ASPECT('DISTANCE.FITQzK1UluWM8tF_0',$,#1502,.T.);
#1533=GEOMETRIC_ITEM_SPECIFIC_USAGE('','',#1532,#11,#851);
#1534=SHAPE_ASPECT_RELATIONSHIP('','',#1525,#1532);
#1535=SHAPE_ASPECT('DISTANCE.FITQzK1UluWM8tF_0',$,#1502,.T.);
#1536=GEOMETRIC_ITEM_SPECIFIC_USAGE('','',#1535,#11,#860);
#1537=SHAPE_ASPECT_RELATIONSHIP('','',#1525,#1535);
#1538=DIMENSIONAL_LOCATION('linear distance','DISTANCE.FITQzK1UluWM8tF_0',#1512,#1525);
#1540=(
LENGTH_UNIT()
NAMED_UNIT(*)
SI_UNIT(.MILLI.,.METRE.)
);
#1541=PRECISION_QUALIFIER(3);
#1539=(
LENGTH_MEASURE_WITH_UNIT()
MEASURE_REPRESENTATION_ITEM()
MEASURE_WITH_UNIT(POSITIVE_LENGTH_MEASURE(5.),#1540)
QUALIFIED_REPRESENTATION_ITEM((#1541))
REPRESENTATION_ITEM('nominal value')
);
#1542=SHAPE_DIMENSION_REPRESENTATION('',(#1539),#1497);
#1543=DIMENSIONAL_CHARACTERISTIC_REPRESENTATION(#1538,#1542);
#1544=PRESENTATION_STYLE_ASSIGNMENT((NULL_STYLE(.NULL.)));
#1545=CARTESIAN_POINT('',(-0.009525,0.0163525,0.0025));
#1546=DIRECTION('',(1.,0.,0.));
#1547=DIRECTION('',(0.,0.,1.));
#1548=AXIS2_PLACEMENT_3D('',#1545,#1546,#1547);
#1549=PLANE('',#1548);
#1550=ANNOTATION_PLANE('',(#1544),#1549,(#1577));
#1551=CARTESIAN_POINT('',(0.,0.,0.));
#1552=DIRECTION('',(0.,0.,1.));
#1553=DIRECTION('',(1.,0.,0.));
#1554=AXIS2_PLACEMENT_3D('',#1551,#1552,#1553);
#1555=CARTESIAN_POINT('',(0.,0.,0.));
#1556=DIRECTION('',(0.,0.,1.));
#1557=DIRECTION('',(1.,0.,0.));
#1558=AXIS2_PLACEMENT_3D('',#1555,#1556,#1557);
#1559=SHAPE_REPRESENTATION('',(#1558,#905),#1497);
#1560=REPRESENTATION_MAP(#1554,#1559);
#1561=MAPPED_ITEM('',#1560,#1554);
#1562=PRESENTATION_STYLE_ASSIGNMENT((NULL_STYLE(.NULL.)));
#1563=STYLED_ITEM('',(#1562),#1561);
#1564=DRAUGHTING_MODEL('',(#1550,#1554,#1561,#1563),#1497);
#1565=DRAUGHTING_PRE_DEFINED_CURVE_FONT('continuous');
#1566=COLOUR_RGB('',0.,0.,0.);
#1567=CURVE_STYLE('',#1565,POSITIVE_LENGTH_MEASURE(0.02),#1566);
#1568=PRESENTATION_STYLE_ASSIGNMENT((#1567));
#1569=COORDINATES_LIST('coordinates',372,((-0.0095250,0.0154581,0.0026833),(-0.0095250,0.0163525,0.),(-0.0095250,0.0172469,0.0026833),(-0.0095250,0.0172469,0.0023167),(-0.0095250,0.0163525,0.0050000),(-0.0095250,0.0154581,0.0023167),(-0.0095250,0.0151052,0.0015249),(-0.0095250,0.0151973,0.0015009),(-0.0095250,0.0152460,0.0014988),(-0.0095250,0.0151052,0.0015249),(-0.0095250,0.0152460,0.0014988),(-0.0095250,0.0154024,0.0015758),(-0.0095250,0.0151052,0.0015249),(-0.0095250,0.0154024,0.0015758),(-0.0095250,0.0154431,0.0016355),(-0.0095250,0.0151052,0.0015249),(-0.0095250,0.0154431,0.0016355),(-0.0095250,0.0154587,0.0017094),(-0.0095250,0.0151052,0.0015249),(-0.0095250,0.0154587,0.0017094),(-0.0095250,0.0154587,0.0017168),(-0.0095250,0.0151052,0.0015249),(-0.0095250,0.0154587,0.0017168),(-0.0095250,0.0154172,0.0018274),(-0.0095250,0.0151052,0.0015249),(-0.0095250,0.0154172,0.0018274),(-0.0095250,0.0153653,0.0018760),(-0.0095250,0.0151052,0.0015249),(-0.0095250,0.0153653,0.0018760),(-0.0095250,0.0152926,0.0019200),(-0.0095250,0.0151052,0.0015249),(-0.0095250,0.0152926,0.0019200),(-0.0095250,0.0151735,0.0019519),(-0.0095250,0.0151052,0.0015249),(-0.0095250,0.0151735,0.0019519),(-0.0095250,0.0150735,0.0019915),(-0.0095250,0.0151052,0.0015249),(-0.0095250,0.0150735,0.0019915),(-0.0095250,0.0149306,0.0020936),(-0.0095250,0.0151052,0.0015249),(-0.0095250,0.0149306,0.0020936),(-0.0095250,0.0148519,0.0021958),(-0.0095250,0.0151052,0.0015249),(-0.0095250,0.0148519,0.0021958),(-0.0095250,0.0147957,0.0022981),(-0.0095250,0.0161323,0.0019106),(-0.0095250,0.0160472,0.0018766),(-0.0095250,0.0159456,0.0018142),(-0.0095250,0.0161323,0.0019106),(-0.0095250,0.0159456,0.0018142),(-0.0095250,0.0159051,0.0017420),(-0.0095250,0.0162162,0.0019597),(-0.0095250,0.0161323,0.0019106),(-0.0095250,0.0159051,0.0017420),(-0.0095250,0.0162162,0.0019597),(-0.0095250,0.0159051,0.0017420),(-0.0095250,0.0158916,0.0016607),(-0.0095250,0.0162990,0.0020239),(-0.0095250,0.0162162,0.0019597),(-0.0095250,0.0158916,0.0016607),(-0.0095250,0.0162990,0.0020239),(-0.0095250,0.0158916,0.0016607),(-0.0095250,0.0159096,0.0015777),(-0.0095250,0.0163805,0.0021031),(-0.0095250,0.0162990,0.0020239),(-0.0095250,0.0159096,0.0015777),(-0.0095250,0.0163805,0.0021031),(-0.0095250,0.0159096,0.0015777),(-0.0095250,0.0159636,0.0015126),(-0.0095250,0.0164583,0.0021987),(-0.0095250,0.0163805,0.0021031),(-0.0095250,0.0159636,0.0015126),(-0.0095250,0.0164583,0.0021987),(-0.0095250,0.0159636,0.0015126),(-0.0095250,0.0160345,0.0014729),(-0.0095250,0.0164583,0.0021987),(-0.0095250,0.0160345,0.0014729),(-0.0095250,0.0161138,0.0014597),(-0.0095250,0.0165139,0.0022981),(-0.0095250,0.0164583,0.0021987),(-0.0095250,0.0161138,0.0014597),(-0.0095250,0.0161138,0.0014597),(-0.0095250,0.0181787,0.0015401),(-0.0095250,0.0182575,0.0015560),(-0.0095250,0.0161138,0.0014597),(-0.0095250,0.0182575,0.0015560),(-0.0095250,0.0183226,0.0016036),(-0.0095250,0.0161138,0.0014597),(-0.0095250,0.0183226,0.0016036),(-0.0095250,0.0183647,0.0016734),(-0.0095250,0.0161138,0.0014597),(-0.0095250,0.0183647,0.0016734),(-0.0095250,0.0183787,0.0017539),(-0.0095250,0.0183787,0.0017539),(-0.0095250,0.0183787,0.0032260),(-0.0095250,0.0183628,0.0033075),(-0.0095250,0.0183787,0.0017539),(-0.0095250,0.0183628,0.0033075),(-0.0095250,0.0183152,0.0033763),(-0.0095250,0.0183787,0.0017539),(-0.0095250,0.0183152,0.0033763),(-0.0095250,0.0182467,0.0034231),(-0.0095250,0.0183787,0.0017539),(-0.0095250,0.0182467,0.0034231),(-0.0095250,0.0181660,0.0034387),(-0.0095250,0.0183787,0.0017539),(-0.0095250,0.0181660,0.0034387),(-0.0095250,0.0180850,0.0034231),(-0.0095250,0.0183787,0.0017539),(-0.0095250,0.0180850,0.0034231),(-0.0095250,0.0180157,0.0033763),(-0.0095250,0.0183787,0.0017539),(-0.0095250,0.0180157,0.0033763),(-0.0095250,0.0179680,0.0033075),(-0.0095250,0.0183787,0.0017539),(-0.0095250,0.0179680,0.0033075),(-0.0095250,0.0179522,0.0032260),(-0.0095250,0.0183787,0.0017539),(-0.0095250,0.0179522,0.0032260),(-0.0095250,0.0179522,0.0019507),(-0.0095250,0.0161138,0.0014597),(-0.0095250,0.0183787,0.0017539),(-0.0095250,0.0179522,0.0019507),(-0.0095250,0.0161138,0.0014597),(-0.0095250,0.0179522,0.0019507),(-0.0095250,0.0167742,0.0019084),(-0.0095250,0.0165139,0.0022981),(-0.0095250,0.0161138,0.0014597),(-0.0095250,0.0167742,0.0019084),(-0.0095250,0.0165472,0.0024014),(-0.0095250,0.0165139,0.0022981),(-0.0095250,0.0167742,0.0019084),(-0.0095250,0.0165583,0.0025085),(-0.0095250,0.0165472,0.0024014),(-0.0095250,0.0167742,0.0019084),(-0.0095250,0.0165472,0.0026150),(-0.0095250,0.0165583,0.0025085),(-0.0095250,0.0167742,0.0019084),(-0.0095250,0.0165472,0.0026150),(-0.0095250,0.0167742,0.0019084),(-0.0095250,0.0168655,0.0020407),(-0.0095250,0.0165139,0.0027175),(-0.0095250,0.0165472,0.0026150),(-0.0095250,0.0168655,0.0020407),(-0.0095250,0.0165139,0.0027175),(-0.0095250,0.0168655,0.0020407),(-0.0095250,0.0169306,0.0021849),(-0.0095250,0.0164583,0.0028160),(-0.0095250,0.0165139,0.0027175),(-0.0095250,0.0169306,0.0021849),(-0.0095250,0.0164583,0.0028160),(-0.0095250,0.0169306,0.0021849),(-0.0095250,0.0169534,0.0022614),(-0.0095250,0.0163805,0.0029106),(-0.0095250,0.0164583,0.0028160),(-0.0095250,0.0169534,0.0022614),(-0.0095250,0.0163805,0.0029106),(-0.0095250,0.0169534,0.0022614),(-0.0095250,0.0169697,0.0023408),(-0.0095250,0.0163805,0.0029106),(-0.0095250,0.0169697,0.0023408),(-0.0095250,0.0169795,0.0024232),(-0.0095250,0.0163805,0.0029106),(-0.0095250,0.0169795,0.0024232),(-0.0095250,0.0169827,0.0025085),(-0.0095250,0.0162520,0.0030009),(-0.0095250,0.0163805,0.0029106),(-0.0095250,0.0169827,0.0025085),(-0.0095250,0.0162520,0.0030009),(-0.0095250,0.0169827,0.0025085),(-0.0095250,0.0169781,0.0026044),(-0.0095250,0.0162520,0.0030009),(-0.0095250,0.0169781,0.0026044),(-0.0095250,0.0169642,0.0026980),(-0.0095250,0.0162520,0.0030009),(-0.0095250,0.0169642,0.0026980),(-0.0095250,0.0169411,0.0027892),(-0.0095250,0.0161658,0.0030364),(-0.0095250,0.0162520,0.0030009),(-0.0095250,0.0169411,0.0027892),(-0.0095250,0.0161658,0.0030364),(-0.0095250,0.0169411,0.0027892),(-0.0095250,0.0169087,0.0028781),(-0.0095250,0.0160652,0.0030654),(-0.0095250,0.0161658,0.0030364),(-0.0095250,0.0169087,0.0028781),(-0.0095250,0.0160652,0.0030654),(-0.0095250,0.0169087,0.0028781),(-0.0095250,0.0168670,0.0029646),(-0.0095250,0.0159499,0.0030880),(-0.0095250,0.0160652,0.0030654),(-0.0095250,0.0168670,0.0029646),(-0.0095250,0.0159499,0.0030880),(-0.0095250,0.0168670,0.0029646),(-0.0095250,0.0168161,0.0030488),(-0.0095250,0.0158202,0.0031041),(-0.0095250,0.0159499,0.0030880),(-0.0095250,0.0168161,0.0030488),(-0.0095250,0.0156758,0.0031138),(-0.0095250,0.0158202,0.0031041),(-0.0095250,0.0168161,0.0030488),(-0.0095250,0.0156758,0.0031138),(-0.0095250,0.0168161,0.0030488),(-0.0095250,0.0167559,0.0031307),(-0.0095250,0.0155169,0.0031170),(-0.0095250,0.0156758,0.0031138),(-0.0095250,0.0167559,0.0031307),(-0.0095250,0.0155169,0.0031170),(-0.0095250,0.0167559,0.0031307),(-0.0095250,0.0166864,0.0032101),(-0.0095250,0.0154255,0.0031136),(-0.0095250,0.0155169,0.0031170),(-0.0095250,0.0166864,0.0032101),(-0.0095250,0.0154255,0.0031136),(-0.0095250,0.0166864,0.0032101),(-0.0095250,0.0165971,0.0032875),(-0.0095250,0.0153390,0.0031033),(-0.0095250,0.0154255,0.0031136),(-0.0095250,0.0165971,0.0032875),(-0.0095250,0.0153390,0.0031033),(-0.0095250,0.0165971,0.0032875),(-0.0095250,0.0164916,0.0033546),(-0.0095250,0.0152575,0.0030861),(-0.0095250,0.0153390,0.0031033),(-0.0095250,0.0164916,0.0033546),(-0.0095250,0.0152575,0.0030861),(-0.0095250,0.0164916,0.0033546),(-0.0095250,0.0163699,0.0034114),(-0.0095250,0.0152575,0.0030861),(-0.0095250,0.0163699,0.0034114),(-0.0095250,0.0162321,0.0034578),(-0.0095250,0.0151809,0.0030620),(-0.0095250,0.0152575,0.0030861),(-0.0095250,0.0162321,0.0034578),(-0.0095250,0.0151809,0.0030620),(-0.0095250,0.0162321,0.0034578),(-0.0095250,0.0161571,0.0034771),(-0.0095250,0.0151809,0.0030620),(-0.0095250,0.0161571,0.0034771),(-0.0095250,0.0160781,0.0034939),(-0.0095250,0.0151809,0.0030620),(-0.0095250,0.0160781,0.0034939),(-0.0095250,0.0159950,0.0035081),(-0.0095250,0.0150427,0.0029932),(-0.0095250,0.0151809,0.0030620),(-0.0095250,0.0159950,0.0035081),(-0.0095250,0.0150427,0.0029932),(-0.0095250,0.0159950,0.0035081),(-0.0095250,0.0159079,0.0035197),(-0.0095250,0.0150427,0.0029932),(-0.0095250,0.0159079,0.0035197),(-0.0095250,0.0158168,0.0035287),(-0.0095250,0.0150427,0.0029932),(-0.0095250,0.0158168,0.0035287),(-0.0095250,0.0157216,0.0035352),(-0.0095250,0.0150427,0.0029932),(-0.0095250,0.0157216,0.0035352),(-0.0095250,0.0156223,0.0035391),(-0.0095250,0.0149243,0.0028969),(-0.0095250,0.0150427,0.0029932),(-0.0095250,0.0156223,0.0035391),(-0.0095250,0.0149243,0.0028969),(-0.0095250,0.0156223,0.0035391),(-0.0095250,0.0155191,0.0035403),(-0.0095250,0.0149243,0.0028969),(-0.0095250,0.0155191,0.0035403),(-0.0095250,0.0153845,0.0035350),(-0.0095250,0.0148483,0.0028056),(-0.0095250,0.0149243,0.0028969),(-0.0095250,0.0153845,0.0035350),(-0.0095250,0.0148483,0.0028056),(-0.0095250,0.0153845,0.0035350),(-0.0095250,0.0152566,0.0035190),(-0.0095250,0.0148483,0.0028056),(-0.0095250,0.0152566,0.0035190),(-0.0095250,0.0151353,0.0034923),(-0.0095250,0.0147941,0.0027095),(-0.0095250,0.0148483,0.0028056),(-0.0095250,0.0151353,0.0034923),(-0.0095250,0.0147941,0.0027095),(-0.0095250,0.0151353,0.0034923),(-0.0095250,0.0150206,0.0034549),(-0.0095250,0.0147616,0.0026087),(-0.0095250,0.0147941,0.0027095),(-0.0095250,0.0150206,0.0034549),(-0.0095250,0.0147616,0.0026087),(-0.0095250,0.0150206,0.0034549),(-0.0095250,0.0149125,0.0034068),(-0.0095250,0.0147616,0.0026087),(-0.0095250,0.0149125,0.0034068),(-0.0095250,0.0148110,0.0033481),(-0.0095250,0.0147507,0.0025032),(-0.0095250,0.0147616,0.0026087),(-0.0095250,0.0148110,0.0033481),(-0.0095250,0.0147507,0.0025032),(-0.0095250,0.0148110,0.0033481),(-0.0095250,0.0147162,0.0032786),(-0.0095250,0.0147507,0.0025032),(-0.0095250,0.0147162,0.0032786),(-0.0095250,0.0146279,0.0031985),(-0.0095250,0.0147620,0.0024006),(-0.0095250,0.0147507,0.0025032),(-0.0095250,0.0146279,0.0031985),(-0.0095250,0.0147620,0.0024006),(-0.0095250,0.0146279,0.0031985),(-0.0095250,0.0145573,0.0031218),(-0.0095250,0.0147620,0.0024006),(-0.0095250,0.0145573,0.0031218),(-0.0095250,0.0144960,0.0030424),(-0.0095250,0.0147957,0.0022981),(-0.0095250,0.0147620,0.0024006),(-0.0095250,0.0144960,0.0030424),(-0.0095250,0.0151052,0.0015249),(-0.0095250,0.0147957,0.0022981),(-0.0095250,0.0144960,0.0030424),(-0.0095250,0.0151052,0.0015249),(-0.0095250,0.0144960,0.0030424),(-0.0095250,0.0144441,0.0029604),(-0.0095250,0.0151052,0.0015249),(-0.0095250,0.0144441,0.0029604),(-0.0095250,0.0144017,0.0028757),(-0.0095250,0.0151052,0.0015249),(-0.0095250,0.0144017,0.0028757),(-0.0095250,0.0143687,0.0027884),(-0.0095250,0.0151052,0.0015249),(-0.0095250,0.0143687,0.0027884),(-0.0095250,0.0143452,0.0026984),(-0.0095250,0.0151052,0.0015249),(-0.0095250,0.0143452,0.0026984),(-0.0095250,0.0143310,0.0026058),(-0.0095250,0.0151052,0.0015249),(-0.0095250,0.0143310,0.0026058),(-0.0095250,0.0143263,0.0025106),(-0.0095250,0.0151052,0.0015249),(-0.0095250,0.0143263,0.0025106),(-0.0095250,0.0143310,0.0024146),(-0.0095250,0.0151052,0.0015249),(-0.0095250,0.0143310,0.0024146),(-0.0095250,0.0143448,0.0023207),(-0.0095250,0.0151052,0.0015249),(-0.0095250,0.0143448,0.0023207),(-0.0095250,0.0143680,0.0022290),(-0.0095250,0.0151052,0.0015249),(-0.0095250,0.0143680,0.0022290),(-0.0095250,0.0144004,0.0021394),(-0.0095250,0.0151052,0.0015249),(-0.0095250,0.0144004,0.0021394),(-0.0095250,0.0144421,0.0020519),(-0.0095250,0.0151052,0.0015249),(-0.0095250,0.0144421,0.0020519),(-0.0095250,0.0144930,0.0019667),(-0.0095250,0.0151052,0.0015249),(-0.0095250,0.0144930,0.0019667),(-0.0095250,0.0145532,0.0018835),(-0.0095250,0.0151052,0.0015249),(-0.0095250,0.0145532,0.0018835),(-0.0095250,0.0146227,0.0018026),(-0.0095250,0.0151052,0.0015249),(-0.0095250,0.0146227,0.0018026),(-0.0095250,0.0147316,0.0017035),(-0.0095250,0.0151052,0.0015249),(-0.0095250,0.0147316,0.0017035),(-0.0095250,0.0147947,0.0016599),(-0.0095250,0.0151052,0.0015249),(-0.0095250,0.0147947,0.0016599),(-0.0095250,0.0148637,0.0016203),(-0.0095250,0.0151052,0.0015249),(-0.0095250,0.0148637,0.0016203),(-0.0095250,0.0149384,0.0015845),(-0.0095250,0.0151052,0.0015249),(-0.0095250,0.0149384,0.0015845),(-0.0095250,0.0150189,0.0015527)));
#1570=COMPLEX_TRIANGULATED_SURFACE_SET('surface set',#1569,372,(),(),(),((1,2,3),(4,5,6),(7,8,9),(10,11,12),(13,14,15),(16,17,18),(19,20,21),(22,23,24),(25,26,27),(28,29,30),(31,32,33),(34,35,36),(37,38,39),(40,41,42),(43,44,45),(46,47,48),(49,50,51),(52,53,54),(55,56,57),(58,59,60),(61,62,63),(64,65,66),(67,68,69),(70,71,72),(73,74,75),(76,77,78),(79,80,81),(82,83,84),(85,86,87),(88,89,90),(91,92,93),(94,95,96),(97,98,99),(100,101,102),(103,104,105),(106,107,108),(109,110,111),(112,113,114),(115,116,117),(118,119,120),(121,122,123),(124,125,126),(127,128,129),(130,131,132),(133,134,135),(136,137,138),(139,140,141),(142,143,144),(145,146,147),(148,149,150),(151,152,153),(154,155,156),(157,158,159),(160,161,162),(163,164,165),(166,167,168),(169,170,171),(172,173,174),(175,176,177),(178,179,180),(181,182,183),(184,185,186),(187,188,189),(190,191,192),(193,194,195),(196,197,198),(199,200,201),(202,203,204),(205,206,207),(208,209,210),(211,212,213),(214,215,216),(217,218,219),(220,221,222),(223,224,225),(226,227,228),(229,230,231),(232,233,234),(235,236,237),(238,239,240),(241,242,243),(244,245,246),(247,248,249),(250,251,252),(253,254,255),(256,257,258),(259,260,261),(262,263,264),(265,266,267),(268,269,270),(271,272,273),(274,275,276),(277,278,279),(280,281,282),(283,284,285),(286,287,288),(289,290,291),(292,293,294),(295,296,297),(298,299,300),(301,302,303),(304,305,306),(307,308,309),(310,311,312),(313,314,315),(316,317,318),(319,320,321),(322,323,324),(325,326,327),(328,329,330),(331,332,333),(334,335,336),(337,338,339),(340,341,342),(343,344,345),(346,347,348),(349,350,351),(352,353,354),(355,356,357),(358,359,360),(361,362,363),(364,365,366),(367,368,369),(370,371,372)));
#1571=TESSELLATED_GEOMETRIC_SET('linear dimension',(#1570));
#1572=COORDINATES_LIST('coordinates',8,((-0.0095250,0.0173444,0.),(-0.0095250,0.0163525,0.),(-0.0095250,0.0165525,0.0050000),(-0.0095250,0.0163525,0.0050000),(-0.0095250,0.0163525,0.),(-0.0095250,0.0163525,0.0004597),(-0.0095250,0.0163525,0.0045403),(-0.0095250,0.0163525,0.0050000)));
#1573=TESSELLATED_CURVE_SET('curve set',#1572,((1,2),(3,4),(5,6),(7,8)));
#1574=TESSELLATED_GEOMETRIC_SET('linear dimension',(#1573));
#1575=TESSELLATED_ANNOTATION_OCCURRENCE('linear dimension',(#1568),#1571);
#1576=TESSELLATED_ANNOTATION_OCCURRENCE('linear dimension',(#1568),#1574);
#1577=DRAUGHTING_CALLOUT('linear dimension',(#1575,#1576));
#1578=DRAUGHTING_MODEL_ITEM_ASSOCIATION('','',#1512,#1564,#1577);
#1579=DRAUGHTING_MODEL_ITEM_ASSOCIATION('','',#1525,#1564,#1577);
#1580=DRAUGHTING_MODEL_ITEM_ASSOCIATION('','',#1538,#1564,#1577);
ENDSEC;
END-ISO-10303-21;
