ISO-10303-21;
HEADER;
/* Generated by software containing ST-Developer
 * from STEP Tools, Inc. (www.steptools.com) 
 */
/* OPTION: using custom renumber hook */

FILE_DESCRIPTION(
/* description */ ('STEP AP242 Edition 2',
'CAx-IF Rec.Pracs.---Representation and Presentation of Product Manufa
cturing Information (PMI)---4.0---2014-10-13',
'CAx-IF Rec.Pracs.---3D Tessellated Geometry---0.4---2014-09-14','2;1',
'CAx-IF Rec.Pracs.---User Defined Attributes---1.5---2016-08-15'),
/* implementation_level */ '2;1');

FILE_NAME(
/* name */ 'Cherry MX keycaps parts - 1x1 R4 v6',
/* time_stamp */ '2026-06-03T03:37:50Z',
/* author */ (''),
/* organization */ (''),
/* preprocessor_version */ 'ST-DEVELOPER v20',
/* originating_system */ 'ONSHAPE BY PTC INC, 1.215',
/* authorisation */ '  ');

FILE_SCHEMA (('AP242_MANAGED_MODEL_BASED_3D_ENGINEERING_MIM_LF { 1 0 10303 442 3 1 4 }'));
ENDSEC;

DATA;
#10=SHAPE_REPRESENTATION_RELATIONSHIP('','',#651,#11);
#11=ADVANCED_BREP_SHAPE_REPRESENTATION('',(#649),#1405);
#12=CIRCLE('',#678,0.0028);
#13=ELLIPSE('',#655,0.00108639985745744,0.001);
#14=ELLIPSE('',#658,0.00108639985745744,0.001);
#15=ELLIPSE('',#661,0.00102921409994037,0.001);
#16=ELLIPSE('',#663,0.00102921409994037,0.001);
#17=ELLIPSE('',#670,0.0456791599164024,0.0456386854637354);
#18=ELLIPSE('',#671,0.0456791599164024,0.0456386854637354);
#19=ELLIPSE('',#672,0.0456791599164024,0.0456386854637354);
#20=ELLIPSE('',#673,0.0456791599164024,0.0456386854637354);
#21=ELLIPSE('',#674,0.0456791599164024,0.0456386854637354);
#22=ELLIPSE('',#675,0.0456791599164024,0.0456386854637354);
#23=CYLINDRICAL_SURFACE('',#654,0.001);
#24=CYLINDRICAL_SURFACE('',#657,0.001);
#25=CYLINDRICAL_SURFACE('',#660,0.001);
#26=CYLINDRICAL_SURFACE('',#665,0.001);
#27=CYLINDRICAL_SURFACE('',#669,0.0456386854637354);
#28=CYLINDRICAL_SURFACE('',#685,0.0028);
#29=LINE('',#903,#79);
#30=LINE('',#911,#80);
#31=LINE('',#913,#81);
#32=LINE('',#956,#82);
#33=LINE('',#992,#83);
#34=LINE('',#995,#84);
#35=LINE('',#1067,#85);
#36=LINE('',#1098,#86);
#37=LINE('',#1101,#87);
#38=LINE('',#1139,#88);
#39=LINE('',#1170,#89);
#40=LINE('',#1173,#90);
#41=LINE('',#1175,#91);
#42=LINE('',#1177,#92);
#43=LINE('',#1180,#93);
#44=LINE('',#1182,#94);
#45=LINE('',#1268,#95);
#46=LINE('',#1270,#96);
#47=LINE('',#1277,#97);
#48=LINE('',#1284,#98);
#49=LINE('',#1297,#99);
#50=LINE('',#1301,#100);
#51=LINE('',#1305,#101);
#52=LINE('',#1309,#102);
#53=LINE('',#1313,#103);
#54=LINE('',#1317,#104);
#55=LINE('',#1353,#105);
#56=LINE('',#1356,#106);
#57=LINE('',#1358,#107);
#58=LINE('',#1360,#108);
#59=LINE('',#1362,#109);
#60=LINE('',#1364,#110);
#61=LINE('',#1366,#111);
#62=LINE('',#1368,#112);
#63=LINE('',#1370,#113);
#64=LINE('',#1372,#114);
#65=LINE('',#1374,#115);
#66=LINE('',#1376,#116);
#67=LINE('',#1380,#117);
#68=LINE('',#1381,#118);
#69=LINE('',#1383,#119);
#70=LINE('',#1385,#120);
#71=LINE('',#1387,#121);
#72=LINE('',#1389,#122);
#73=LINE('',#1391,#123);
#74=LINE('',#1394,#124);
#75=LINE('',#1396,#125);
#76=LINE('',#1398,#126);
#77=LINE('',#1400,#127);
#78=LINE('',#1402,#128);
#79=VECTOR('',#696,1.);
#80=VECTOR('',#697,1.);
#81=VECTOR('',#698,1.);
#82=VECTOR('',#703,1.);
#83=VECTOR('',#706,1.);
#84=VECTOR('',#707,1.);
#85=VECTOR('',#712,1.);
#86=VECTOR('',#715,1.);
#87=VECTOR('',#716,1.);
#88=VECTOR('',#721,1.);
#89=VECTOR('',#724,1.);
#90=VECTOR('',#725,1.);
#91=VECTOR('',#726,1.);
#92=VECTOR('',#727,1.);
#93=VECTOR('',#730,1.);
#94=VECTOR('',#733,1.);
#95=VECTOR('',#738,1.);
#96=VECTOR('',#739,1.);
#97=VECTOR('',#742,1.);
#98=VECTOR('',#743,1.);
#99=VECTOR('',#750,1.);
#100=VECTOR('',#753,1.);
#101=VECTOR('',#756,1.);
#102=VECTOR('',#759,1.);
#103=VECTOR('',#762,1.);
#104=VECTOR('',#765,1.);
#105=VECTOR('',#770,1.);
#106=VECTOR('',#771,1.);
#107=VECTOR('',#772,1.);
#108=VECTOR('',#773,1.);
#109=VECTOR('',#774,1.);
#110=VECTOR('',#775,1.);
#111=VECTOR('',#776,1.);
#112=VECTOR('',#777,1.);
#113=VECTOR('',#778,1.);
#114=VECTOR('',#779,1.);
#115=VECTOR('',#780,1.);
#116=VECTOR('',#781,1.);
#117=VECTOR('',#786,1.);
#118=VECTOR('',#787,1.);
#119=VECTOR('',#790,1.);
#120=VECTOR('',#793,1.);
#121=VECTOR('',#796,1.);
#122=VECTOR('',#799,1.);
#123=VECTOR('',#802,1.);
#124=VECTOR('',#807,1.);
#125=VECTOR('',#810,1.);
#126=VECTOR('',#813,1.);
#127=VECTOR('',#816,1.);
#128=VECTOR('',#819,1.);
#129=PLANE('',#653);
#130=PLANE('',#656);
#131=PLANE('',#659);
#132=PLANE('',#662);
#133=PLANE('',#664);
#134=PLANE('',#666);
#135=PLANE('',#667);
#136=PLANE('',#668);
#137=PLANE('',#676);
#138=PLANE('',#677);
#139=PLANE('',#679);
#140=PLANE('',#680);
#141=PLANE('',#681);
#142=PLANE('',#682);
#143=PLANE('',#683);
#144=PLANE('',#684);
#145=PLANE('',#686);
#146=PLANE('',#687);
#147=PLANE('',#688);
#148=PLANE('',#689);
#149=PLANE('',#690);
#150=PLANE('',#691);
#151=ORIENTED_EDGE('',*,*,#331,.F.);
#152=ORIENTED_EDGE('',*,*,#332,.F.);
#153=ORIENTED_EDGE('',*,*,#333,.F.);
#154=ORIENTED_EDGE('',*,*,#334,.F.);
#155=ORIENTED_EDGE('',*,*,#335,.F.);
#156=ORIENTED_EDGE('',*,*,#336,.F.);
#157=ORIENTED_EDGE('',*,*,#337,.F.);
#158=ORIENTED_EDGE('',*,*,#338,.F.);
#159=ORIENTED_EDGE('',*,*,#339,.F.);
#160=ORIENTED_EDGE('',*,*,#340,.F.);
#161=ORIENTED_EDGE('',*,*,#341,.F.);
#162=ORIENTED_EDGE('',*,*,#342,.F.);
#163=ORIENTED_EDGE('',*,*,#343,.F.);
#164=ORIENTED_EDGE('',*,*,#338,.T.);
#165=ORIENTED_EDGE('',*,*,#344,.F.);
#166=ORIENTED_EDGE('',*,*,#340,.T.);
#167=ORIENTED_EDGE('',*,*,#345,.T.);
#168=ORIENTED_EDGE('',*,*,#341,.T.);
#169=ORIENTED_EDGE('',*,*,#346,.F.);
#170=ORIENTED_EDGE('',*,*,#347,.T.);
#171=ORIENTED_EDGE('',*,*,#348,.T.);
#172=ORIENTED_EDGE('',*,*,#346,.T.);
#173=ORIENTED_EDGE('',*,*,#344,.T.);
#174=ORIENTED_EDGE('',*,*,#337,.T.);
#175=ORIENTED_EDGE('',*,*,#349,.F.);
#176=ORIENTED_EDGE('',*,*,#350,.F.);
#177=ORIENTED_EDGE('',*,*,#347,.F.);
#178=ORIENTED_EDGE('',*,*,#351,.F.);
#179=ORIENTED_EDGE('',*,*,#352,.F.);
#180=ORIENTED_EDGE('',*,*,#351,.T.);
#181=ORIENTED_EDGE('',*,*,#348,.F.);
#182=ORIENTED_EDGE('',*,*,#336,.T.);
#183=ORIENTED_EDGE('',*,*,#353,.T.);
#184=ORIENTED_EDGE('',*,*,#349,.T.);
#185=ORIENTED_EDGE('',*,*,#354,.F.);
#186=ORIENTED_EDGE('',*,*,#355,.T.);
#187=ORIENTED_EDGE('',*,*,#356,.T.);
#188=ORIENTED_EDGE('',*,*,#354,.T.);
#189=ORIENTED_EDGE('',*,*,#352,.T.);
#190=ORIENTED_EDGE('',*,*,#335,.T.);
#191=ORIENTED_EDGE('',*,*,#357,.F.);
#192=ORIENTED_EDGE('',*,*,#358,.F.);
#193=ORIENTED_EDGE('',*,*,#355,.F.);
#194=ORIENTED_EDGE('',*,*,#359,.F.);
#195=ORIENTED_EDGE('',*,*,#360,.F.);
#196=ORIENTED_EDGE('',*,*,#359,.T.);
#197=ORIENTED_EDGE('',*,*,#356,.F.);
#198=ORIENTED_EDGE('',*,*,#334,.T.);
#199=ORIENTED_EDGE('',*,*,#361,.T.);
#200=ORIENTED_EDGE('',*,*,#357,.T.);
#201=ORIENTED_EDGE('',*,*,#362,.F.);
#202=ORIENTED_EDGE('',*,*,#363,.T.);
#203=ORIENTED_EDGE('',*,*,#364,.T.);
#204=ORIENTED_EDGE('',*,*,#362,.T.);
#205=ORIENTED_EDGE('',*,*,#360,.T.);
#206=ORIENTED_EDGE('',*,*,#333,.T.);
#207=ORIENTED_EDGE('',*,*,#365,.T.);
#208=ORIENTED_EDGE('',*,*,#366,.T.);
#209=ORIENTED_EDGE('',*,*,#367,.T.);
#210=ORIENTED_EDGE('',*,*,#368,.T.);
#211=ORIENTED_EDGE('',*,*,#369,.F.);
#212=ORIENTED_EDGE('',*,*,#342,.T.);
#213=ORIENTED_EDGE('',*,*,#345,.F.);
#214=ORIENTED_EDGE('',*,*,#350,.T.);
#215=ORIENTED_EDGE('',*,*,#353,.F.);
#216=ORIENTED_EDGE('',*,*,#358,.T.);
#217=ORIENTED_EDGE('',*,*,#361,.F.);
#218=ORIENTED_EDGE('',*,*,#370,.T.);
#219=ORIENTED_EDGE('',*,*,#371,.F.);
#220=ORIENTED_EDGE('',*,*,#370,.F.);
#221=ORIENTED_EDGE('',*,*,#363,.F.);
#222=ORIENTED_EDGE('',*,*,#372,.F.);
#223=ORIENTED_EDGE('',*,*,#373,.F.);
#224=ORIENTED_EDGE('',*,*,#372,.T.);
#225=ORIENTED_EDGE('',*,*,#364,.F.);
#226=ORIENTED_EDGE('',*,*,#332,.T.);
#227=ORIENTED_EDGE('',*,*,#369,.T.);
#228=ORIENTED_EDGE('',*,*,#371,.T.);
#229=ORIENTED_EDGE('',*,*,#374,.F.);
#230=ORIENTED_EDGE('',*,*,#339,.T.);
#231=ORIENTED_EDGE('',*,*,#343,.T.);
#232=ORIENTED_EDGE('',*,*,#374,.T.);
#233=ORIENTED_EDGE('',*,*,#373,.T.);
#234=ORIENTED_EDGE('',*,*,#331,.T.);
#235=ORIENTED_EDGE('',*,*,#375,.F.);
#236=ORIENTED_EDGE('',*,*,#366,.F.);
#237=ORIENTED_EDGE('',*,*,#376,.T.);
#238=ORIENTED_EDGE('',*,*,#377,.F.);
#239=ORIENTED_EDGE('',*,*,#378,.T.);
#240=ORIENTED_EDGE('',*,*,#379,.F.);
#241=ORIENTED_EDGE('',*,*,#380,.T.);
#242=ORIENTED_EDGE('',*,*,#368,.F.);
#243=ORIENTED_EDGE('',*,*,#376,.F.);
#244=ORIENTED_EDGE('',*,*,#365,.F.);
#245=ORIENTED_EDGE('',*,*,#380,.F.);
#246=ORIENTED_EDGE('',*,*,#381,.F.);
#247=ORIENTED_EDGE('',*,*,#382,.T.);
#248=ORIENTED_EDGE('',*,*,#383,.T.);
#249=ORIENTED_EDGE('',*,*,#384,.T.);
#250=ORIENTED_EDGE('',*,*,#385,.T.);
#251=ORIENTED_EDGE('',*,*,#386,.T.);
#252=ORIENTED_EDGE('',*,*,#387,.T.);
#253=ORIENTED_EDGE('',*,*,#388,.T.);
#254=ORIENTED_EDGE('',*,*,#389,.T.);
#255=ORIENTED_EDGE('',*,*,#390,.T.);
#256=ORIENTED_EDGE('',*,*,#391,.T.);
#257=ORIENTED_EDGE('',*,*,#392,.T.);
#258=ORIENTED_EDGE('',*,*,#393,.T.);
#259=ORIENTED_EDGE('',*,*,#375,.T.);
#260=ORIENTED_EDGE('',*,*,#394,.F.);
#261=ORIENTED_EDGE('',*,*,#378,.F.);
#262=ORIENTED_EDGE('',*,*,#367,.F.);
#263=ORIENTED_EDGE('',*,*,#395,.T.);
#264=ORIENTED_EDGE('',*,*,#377,.T.);
#265=ORIENTED_EDGE('',*,*,#381,.T.);
#266=ORIENTED_EDGE('',*,*,#379,.T.);
#267=ORIENTED_EDGE('',*,*,#394,.T.);
#268=ORIENTED_EDGE('',*,*,#396,.F.);
#269=ORIENTED_EDGE('',*,*,#397,.F.);
#270=ORIENTED_EDGE('',*,*,#398,.F.);
#271=ORIENTED_EDGE('',*,*,#399,.F.);
#272=ORIENTED_EDGE('',*,*,#400,.F.);
#273=ORIENTED_EDGE('',*,*,#401,.F.);
#274=ORIENTED_EDGE('',*,*,#402,.F.);
#275=ORIENTED_EDGE('',*,*,#403,.F.);
#276=ORIENTED_EDGE('',*,*,#404,.F.);
#277=ORIENTED_EDGE('',*,*,#405,.F.);
#278=ORIENTED_EDGE('',*,*,#406,.F.);
#279=ORIENTED_EDGE('',*,*,#407,.F.);
#280=ORIENTED_EDGE('',*,*,#408,.F.);
#281=ORIENTED_EDGE('',*,*,#389,.F.);
#282=ORIENTED_EDGE('',*,*,#409,.F.);
#283=ORIENTED_EDGE('',*,*,#396,.T.);
#284=ORIENTED_EDGE('',*,*,#410,.T.);
#285=ORIENTED_EDGE('',*,*,#390,.F.);
#286=ORIENTED_EDGE('',*,*,#410,.F.);
#287=ORIENTED_EDGE('',*,*,#407,.T.);
#288=ORIENTED_EDGE('',*,*,#411,.T.);
#289=ORIENTED_EDGE('',*,*,#391,.F.);
#290=ORIENTED_EDGE('',*,*,#411,.F.);
#291=ORIENTED_EDGE('',*,*,#406,.T.);
#292=ORIENTED_EDGE('',*,*,#412,.T.);
#293=ORIENTED_EDGE('',*,*,#392,.F.);
#294=ORIENTED_EDGE('',*,*,#412,.F.);
#295=ORIENTED_EDGE('',*,*,#405,.T.);
#296=ORIENTED_EDGE('',*,*,#413,.T.);
#297=ORIENTED_EDGE('',*,*,#393,.F.);
#298=ORIENTED_EDGE('',*,*,#413,.F.);
#299=ORIENTED_EDGE('',*,*,#404,.T.);
#300=ORIENTED_EDGE('',*,*,#414,.T.);
#301=ORIENTED_EDGE('',*,*,#388,.F.);
#302=ORIENTED_EDGE('',*,*,#415,.F.);
#303=ORIENTED_EDGE('',*,*,#397,.T.);
#304=ORIENTED_EDGE('',*,*,#409,.T.);
#305=ORIENTED_EDGE('',*,*,#395,.F.);
#306=ORIENTED_EDGE('',*,*,#408,.T.);
#307=ORIENTED_EDGE('',*,*,#382,.F.);
#308=ORIENTED_EDGE('',*,*,#414,.F.);
#309=ORIENTED_EDGE('',*,*,#403,.T.);
#310=ORIENTED_EDGE('',*,*,#416,.T.);
#311=ORIENTED_EDGE('',*,*,#383,.F.);
#312=ORIENTED_EDGE('',*,*,#416,.F.);
#313=ORIENTED_EDGE('',*,*,#402,.T.);
#314=ORIENTED_EDGE('',*,*,#417,.T.);
#315=ORIENTED_EDGE('',*,*,#384,.F.);
#316=ORIENTED_EDGE('',*,*,#417,.F.);
#317=ORIENTED_EDGE('',*,*,#401,.T.);
#318=ORIENTED_EDGE('',*,*,#418,.T.);
#319=ORIENTED_EDGE('',*,*,#385,.F.);
#320=ORIENTED_EDGE('',*,*,#418,.F.);
#321=ORIENTED_EDGE('',*,*,#400,.T.);
#322=ORIENTED_EDGE('',*,*,#419,.T.);
#323=ORIENTED_EDGE('',*,*,#386,.F.);
#324=ORIENTED_EDGE('',*,*,#419,.F.);
#325=ORIENTED_EDGE('',*,*,#399,.T.);
#326=ORIENTED_EDGE('',*,*,#420,.T.);
#327=ORIENTED_EDGE('',*,*,#387,.F.);
#328=ORIENTED_EDGE('',*,*,#420,.F.);
#329=ORIENTED_EDGE('',*,*,#398,.T.);
#330=ORIENTED_EDGE('',*,*,#415,.T.);
#331=EDGE_CURVE('',#421,#422,#479,.F.);
#332=EDGE_CURVE('',#423,#421,#480,.F.);
#333=EDGE_CURVE('',#424,#423,#481,.F.);
#334=EDGE_CURVE('',#425,#424,#482,.T.);
#335=EDGE_CURVE('',#426,#425,#483,.F.);
#336=EDGE_CURVE('',#427,#426,#484,.F.);
#337=EDGE_CURVE('',#428,#427,#485,.F.);
#338=EDGE_CURVE('',#422,#428,#486,.T.);
#339=EDGE_CURVE('',#429,#430,#29,.T.);
#340=EDGE_CURVE('',#431,#429,#487,.T.);
#341=EDGE_CURVE('',#432,#431,#30,.T.);
#342=EDGE_CURVE('',#430,#432,#31,.T.);
#343=EDGE_CURVE('',#422,#429,#488,.F.);
#344=EDGE_CURVE('',#431,#428,#489,.F.);
#345=EDGE_CURVE('',#433,#432,#13,.T.);
#346=EDGE_CURVE('',#434,#431,#490,.F.);
#347=EDGE_CURVE('',#434,#433,#32,.T.);
#348=EDGE_CURVE('',#427,#434,#491,.T.);
#349=EDGE_CURVE('',#435,#436,#33,.T.);
#350=EDGE_CURVE('',#433,#435,#34,.T.);
#351=EDGE_CURVE('',#436,#434,#492,.T.);
#352=EDGE_CURVE('',#436,#426,#493,.F.);
#353=EDGE_CURVE('',#437,#435,#14,.T.);
#354=EDGE_CURVE('',#438,#436,#494,.F.);
#355=EDGE_CURVE('',#438,#437,#35,.T.);
#356=EDGE_CURVE('',#425,#438,#495,.T.);
#357=EDGE_CURVE('',#439,#440,#36,.T.);
#358=EDGE_CURVE('',#437,#439,#37,.T.);
#359=EDGE_CURVE('',#440,#438,#496,.T.);
#360=EDGE_CURVE('',#440,#424,#497,.F.);
#361=EDGE_CURVE('',#441,#439,#15,.T.);
#362=EDGE_CURVE('',#442,#440,#498,.F.);
#363=EDGE_CURVE('',#442,#441,#38,.T.);
#364=EDGE_CURVE('',#423,#442,#499,.T.);
#365=EDGE_CURVE('',#443,#444,#39,.T.);
#366=EDGE_CURVE('',#444,#445,#40,.T.);
#367=EDGE_CURVE('',#445,#446,#41,.T.);
#368=EDGE_CURVE('',#446,#443,#42,.T.);
#369=EDGE_CURVE('',#430,#447,#16,.T.);
#370=EDGE_CURVE('',#441,#447,#43,.T.);
#371=EDGE_CURVE('',#447,#448,#44,.T.);
#372=EDGE_CURVE('',#448,#442,#500,.T.);
#373=EDGE_CURVE('',#448,#421,#501,.F.);
#374=EDGE_CURVE('',#429,#448,#502,.F.);
#375=EDGE_CURVE('',#445,#449,#45,.T.);
#376=EDGE_CURVE('',#444,#450,#46,.T.);
#377=EDGE_CURVE('',#449,#450,#503,.T.);
#378=EDGE_CURVE('',#446,#451,#47,.T.);
#379=EDGE_CURVE('',#452,#451,#504,.T.);
#380=EDGE_CURVE('',#452,#443,#48,.T.);
#381=EDGE_CURVE('',#450,#452,#505,.T.);
#382=EDGE_CURVE('',#453,#454,#17,.T.);
#383=EDGE_CURVE('',#454,#455,#49,.T.);
#384=EDGE_CURVE('',#455,#456,#18,.T.);
#385=EDGE_CURVE('',#456,#457,#50,.T.);
#386=EDGE_CURVE('',#457,#458,#19,.T.);
#387=EDGE_CURVE('',#458,#459,#51,.T.);
#388=EDGE_CURVE('',#459,#460,#20,.T.);
#389=EDGE_CURVE('',#460,#461,#52,.F.);
#390=EDGE_CURVE('',#461,#462,#21,.T.);
#391=EDGE_CURVE('',#462,#463,#53,.F.);
#392=EDGE_CURVE('',#463,#464,#22,.T.);
#393=EDGE_CURVE('',#464,#453,#54,.F.);
#394=EDGE_CURVE('',#451,#449,#506,.T.);
#395=EDGE_CURVE('',#465,#465,#507,.T.);
#396=EDGE_CURVE('',#466,#467,#55,.T.);
#397=EDGE_CURVE('',#468,#466,#56,.T.);
#398=EDGE_CURVE('',#469,#468,#57,.T.);
#399=EDGE_CURVE('',#470,#469,#58,.T.);
#400=EDGE_CURVE('',#471,#470,#59,.T.);
#401=EDGE_CURVE('',#472,#471,#60,.T.);
#402=EDGE_CURVE('',#473,#472,#61,.T.);
#403=EDGE_CURVE('',#474,#473,#62,.T.);
#404=EDGE_CURVE('',#475,#474,#63,.T.);
#405=EDGE_CURVE('',#476,#475,#64,.T.);
#406=EDGE_CURVE('',#477,#476,#65,.T.);
#407=EDGE_CURVE('',#467,#477,#66,.T.);
#408=EDGE_CURVE('',#478,#478,#12,.T.);
#409=EDGE_CURVE('',#466,#460,#67,.T.);
#410=EDGE_CURVE('',#467,#461,#68,.T.);
#411=EDGE_CURVE('',#477,#462,#69,.T.);
#412=EDGE_CURVE('',#476,#463,#70,.T.);
#413=EDGE_CURVE('',#475,#464,#71,.T.);
#414=EDGE_CURVE('',#474,#453,#72,.T.);
#415=EDGE_CURVE('',#468,#459,#73,.T.);
#416=EDGE_CURVE('',#473,#454,#74,.T.);
#417=EDGE_CURVE('',#472,#455,#75,.T.);
#418=EDGE_CURVE('',#471,#456,#76,.T.);
#419=EDGE_CURVE('',#470,#457,#77,.T.);
#420=EDGE_CURVE('',#469,#458,#78,.T.);
#421=VERTEX_POINT('',#850);
#422=VERTEX_POINT('',#851);
#423=VERTEX_POINT('',#861);
#424=VERTEX_POINT('',#867);
#425=VERTEX_POINT('',#872);
#426=VERTEX_POINT('',#878);
#427=VERTEX_POINT('',#891);
#428=VERTEX_POINT('',#897);
#429=VERTEX_POINT('',#904);
#430=VERTEX_POINT('',#905);
#431=VERTEX_POINT('',#910);
#432=VERTEX_POINT('',#912);
#433=VERTEX_POINT('',#944);
#434=VERTEX_POINT('',#955);
#435=VERTEX_POINT('',#993);
#436=VERTEX_POINT('',#994);
#437=VERTEX_POINT('',#1056);
#438=VERTEX_POINT('',#1066);
#439=VERTEX_POINT('',#1099);
#440=VERTEX_POINT('',#1100);
#441=VERTEX_POINT('',#1132);
#442=VERTEX_POINT('',#1138);
#443=VERTEX_POINT('',#1171);
#444=VERTEX_POINT('',#1172);
#445=VERTEX_POINT('',#1174);
#446=VERTEX_POINT('',#1176);
#447=VERTEX_POINT('',#1179);
#448=VERTEX_POINT('',#1183);
#449=VERTEX_POINT('',#1269);
#450=VERTEX_POINT('',#1271);
#451=VERTEX_POINT('',#1278);
#452=VERTEX_POINT('',#1283);
#453=VERTEX_POINT('',#1295);
#454=VERTEX_POINT('',#1296);
#455=VERTEX_POINT('',#1298);
#456=VERTEX_POINT('',#1300);
#457=VERTEX_POINT('',#1302);
#458=VERTEX_POINT('',#1304);
#459=VERTEX_POINT('',#1306);
#460=VERTEX_POINT('',#1308);
#461=VERTEX_POINT('',#1310);
#462=VERTEX_POINT('',#1312);
#463=VERTEX_POINT('',#1314);
#464=VERTEX_POINT('',#1316);
#465=VERTEX_POINT('',#1351);
#466=VERTEX_POINT('',#1354);
#467=VERTEX_POINT('',#1355);
#468=VERTEX_POINT('',#1357);
#469=VERTEX_POINT('',#1359);
#470=VERTEX_POINT('',#1361);
#471=VERTEX_POINT('',#1363);
#472=VERTEX_POINT('',#1365);
#473=VERTEX_POINT('',#1367);
#474=VERTEX_POINT('',#1369);
#475=VERTEX_POINT('',#1371);
#476=VERTEX_POINT('',#1373);
#477=VERTEX_POINT('',#1375);
#478=VERTEX_POINT('',#1378);
#479=B_SPLINE_CURVE_WITH_KNOTS('',3,(#845,#846,#847,#848,#849),
 .UNSPECIFIED.,.F.,.F.,(4,1,4),(0.,0.5,1.),.UNSPECIFIED.);
#480=B_SPLINE_CURVE_WITH_KNOTS('',3,(#852,#853,#854,#855,#856,#857,#858,
#859,#860),.UNSPECIFIED.,.F.,.F.,(4,1,1,1,1,1,4),(0.,0.25,0.375,0.5,0.625,
0.75,1.),.UNSPECIFIED.);
#481=B_SPLINE_CURVE_WITH_KNOTS('',3,(#862,#863,#864,#865,#866),
 .UNSPECIFIED.,.F.,.F.,(4,1,4),(0.,0.5,1.),.UNSPECIFIED.);
#482=B_SPLINE_CURVE_WITH_KNOTS('',3,(#868,#869,#870,#871),.UNSPECIFIED.,
 .F.,.F.,(4,4),(0.488219134735675,1.73133714327112),.UNSPECIFIED.);
#483=B_SPLINE_CURVE_WITH_KNOTS('',3,(#873,#874,#875,#876,#877),
 .UNSPECIFIED.,.F.,.F.,(4,1,4),(0.,0.5,1.),.UNSPECIFIED.);
#484=B_SPLINE_CURVE_WITH_KNOTS('',3,(#879,#880,#881,#882,#883,#884,#885,
#886,#887,#888,#889,#890),.UNSPECIFIED.,.F.,.F.,(4,1,1,1,1,1,1,1,1,4),(0.,
0.125,0.25,0.375,0.4375,0.5,0.625,0.75,0.875,1.),.UNSPECIFIED.);
#485=B_SPLINE_CURVE_WITH_KNOTS('',3,(#892,#893,#894,#895,#896),
 .UNSPECIFIED.,.F.,.F.,(4,1,4),(0.,0.5,1.),.UNSPECIFIED.);
#486=B_SPLINE_CURVE_WITH_KNOTS('',3,(#898,#899,#900,#901),.UNSPECIFIED.,
 .F.,.F.,(4,4),(0.130102567440264,1.3732205759757),.UNSPECIFIED.);
#487=B_SPLINE_CURVE_WITH_KNOTS('',3,(#906,#907,#908,#909),.UNSPECIFIED.,
 .F.,.F.,(4,4),(-1.37322057599783,-0.130102567440264),.UNSPECIFIED.);
#488=B_SPLINE_CURVE_WITH_KNOTS('',3,(#934,#935,#936,#937),.UNSPECIFIED.,
 .F.,.F.,(4,4),(0.,1.),.UNSPECIFIED.);
#489=B_SPLINE_CURVE_WITH_KNOTS('',3,(#938,#939,#940,#941),.UNSPECIFIED.,
 .F.,.F.,(4,4),(0.,1.),.UNSPECIFIED.);
#490=B_SPLINE_CURVE_WITH_KNOTS('',3,(#945,#946,#947,#948,#949,#950,#951,
#952,#953,#954),.UNSPECIFIED.,.F.,.F.,(4,1,1,1,1,1,1,4),(0.,0.125,0.25,
0.375,0.5,0.625,0.75,1.),.UNSPECIFIED.);
#491=B_SPLINE_CURVE_WITH_KNOTS('',3,(#987,#988,#989,#990),.UNSPECIFIED.,
 .F.,.F.,(4,4),(0.,1.),.UNSPECIFIED.);
#492=B_SPLINE_CURVE_WITH_KNOTS('',3,(#996,#997,#998,#999,#1000,#1001,#1002,
#1003,#1004),.UNSPECIFIED.,.F.,.F.,(4,1,1,1,1,1,4),(-1.42985819588032,-1.26949677685314,
-1.10913535782596,-0.788412519771595,-0.628051100744413,-0.46768968171723,
-0.307328262690048),.UNSPECIFIED.);
#493=B_SPLINE_CURVE_WITH_KNOTS('',3,(#1050,#1051,#1052,#1053),
 .UNSPECIFIED.,.F.,.F.,(4,4),(0.,1.),.UNSPECIFIED.);
#494=B_SPLINE_CURVE_WITH_KNOTS('',3,(#1057,#1058,#1059,#1060,#1061,#1062,
#1063,#1064,#1065),.UNSPECIFIED.,.F.,.F.,(4,1,1,1,1,1,4),(0.,0.25,0.5,0.625,
0.75,0.875,1.),.UNSPECIFIED.);
#495=B_SPLINE_CURVE_WITH_KNOTS('',3,(#1093,#1094,#1095,#1096),
 .UNSPECIFIED.,.F.,.F.,(4,4),(0.,1.),.UNSPECIFIED.);
#496=B_SPLINE_CURVE_WITH_KNOTS('',3,(#1102,#1103,#1104,#1105),
 .UNSPECIFIED.,.F.,.F.,(4,4),(-1.73133714327111,-0.488219134713553),
 .UNSPECIFIED.);
#497=B_SPLINE_CURVE_WITH_KNOTS('',3,(#1126,#1127,#1128,#1129),
 .UNSPECIFIED.,.F.,.F.,(4,4),(0.,1.),.UNSPECIFIED.);
#498=B_SPLINE_CURVE_WITH_KNOTS('',3,(#1133,#1134,#1135,#1136,#1137),
 .UNSPECIFIED.,.F.,.F.,(4,1,4),(0.,0.5,1.),.UNSPECIFIED.);
#499=B_SPLINE_CURVE_WITH_KNOTS('',3,(#1165,#1166,#1167,#1168),
 .UNSPECIFIED.,.F.,.F.,(4,4),(0.,1.),.UNSPECIFIED.);
#500=B_SPLINE_CURVE_WITH_KNOTS('',3,(#1184,#1185,#1186,#1187,#1188,#1189,
#1190,#1191),.UNSPECIFIED.,.F.,.F.,(4,1,1,1,1,4),(-1.25925567826227,-1.0658450648003,
-0.949798696723114,-0.640341715183962,-0.485613224414386,-0.176156242875233),
 .UNSPECIFIED.);
#501=B_SPLINE_CURVE_WITH_KNOTS('',3,(#1232,#1233,#1234,#1235),
 .UNSPECIFIED.,.F.,.F.,(4,4),(0.,1.),.UNSPECIFIED.);
#502=B_SPLINE_CURVE_WITH_KNOTS('',3,(#1237,#1238,#1239,#1240,#1241),
 .UNSPECIFIED.,.F.,.F.,(4,1,4),(0.,0.5,1.),.UNSPECIFIED.);
#503=B_SPLINE_CURVE_WITH_KNOTS('',3,(#1272,#1273,#1274,#1275),
 .UNSPECIFIED.,.F.,.F.,(4,4),(1.87420755859283E-15,0.012273707026768),
 .UNSPECIFIED.);
#504=B_SPLINE_CURVE_WITH_KNOTS('',3,(#1279,#1280,#1281,#1282),
 .UNSPECIFIED.,.F.,.F.,(4,4),(0.,0.0122737073111598),.UNSPECIFIED.);
#505=B_SPLINE_CURVE_WITH_KNOTS('',3,(#1286,#1287,#1288,#1289,#1290,#1291,
#1292),.UNSPECIFIED.,.F.,.F.,(4,1,1,1,4),(3.51300300776005E-12,0.00269772195145756,
0.00539544389940212,0.00809316584734669,0.0107908877952912),
 .UNSPECIFIED.);
#506=B_SPLINE_CURVE_WITH_KNOTS('',3,(#1319,#1320,#1321,#1322,#1323,#1324,
#1325),.UNSPECIFIED.,.F.,.F.,(4,1,1,1,4),(1.83359808257869E-13,0.00275981572691681,
0.00551963145365026,0.00827944718038371,0.0110392629071172),
 .UNSPECIFIED.);
#507=B_SPLINE_CURVE_WITH_KNOTS('',3,(#1340,#1341,#1342,#1343,#1344,#1345,
#1346,#1347,#1348,#1349,#1350),.UNSPECIFIED.,.T.,.F.,(1,1,1,1,1,1,1,1,1,
1,1,1,1,1,1),(-0.00656936638123622,-0.00437957758748686,-0.0021897887937375,
1.18638313774806E-14,0.00218978879376123,0.00437957758751059,0.00656936638125996,
0.00875915517500932,0.0109489439687587,0.013138732762508,0.0153285215562574,
0.0175183103500068,0.0197080991437561,0.0218978879375055,0.0240876767312549),
 .UNSPECIFIED.);
#508=EDGE_LOOP('',(#151,#152,#153,#154,#155,#156,#157,#158));
#509=EDGE_LOOP('',(#159,#160,#161,#162));
#510=EDGE_LOOP('',(#163,#164,#165,#166));
#511=EDGE_LOOP('',(#167,#168,#169,#170));
#512=EDGE_LOOP('',(#171,#172,#173,#174));
#513=EDGE_LOOP('',(#175,#176,#177,#178));
#514=EDGE_LOOP('',(#179,#180,#181,#182));
#515=EDGE_LOOP('',(#183,#184,#185,#186));
#516=EDGE_LOOP('',(#187,#188,#189,#190));
#517=EDGE_LOOP('',(#191,#192,#193,#194));
#518=EDGE_LOOP('',(#195,#196,#197,#198));
#519=EDGE_LOOP('',(#199,#200,#201,#202));
#520=EDGE_LOOP('',(#203,#204,#205,#206));
#521=EDGE_LOOP('',(#207,#208,#209,#210));
#522=EDGE_LOOP('',(#211,#212,#213,#214,#215,#216,#217,#218));
#523=EDGE_LOOP('',(#219,#220,#221,#222));
#524=EDGE_LOOP('',(#223,#224,#225,#226));
#525=EDGE_LOOP('',(#227,#228,#229,#230));
#526=EDGE_LOOP('',(#231,#232,#233,#234));
#527=EDGE_LOOP('',(#235,#236,#237,#238));
#528=EDGE_LOOP('',(#239,#240,#241,#242));
#529=EDGE_LOOP('',(#243,#244,#245,#246));
#530=EDGE_LOOP('',(#247,#248,#249,#250,#251,#252,#253,#254,#255,#256,#257,
#258));
#531=EDGE_LOOP('',(#259,#260,#261,#262));
#532=EDGE_LOOP('',(#263));
#533=EDGE_LOOP('',(#264,#265,#266,#267));
#534=EDGE_LOOP('',(#268,#269,#270,#271,#272,#273,#274,#275,#276,#277,#278,
#279));
#535=EDGE_LOOP('',(#280));
#536=EDGE_LOOP('',(#281,#282,#283,#284));
#537=EDGE_LOOP('',(#285,#286,#287,#288));
#538=EDGE_LOOP('',(#289,#290,#291,#292));
#539=EDGE_LOOP('',(#293,#294,#295,#296));
#540=EDGE_LOOP('',(#297,#298,#299,#300));
#541=EDGE_LOOP('',(#301,#302,#303,#304));
#542=EDGE_LOOP('',(#305));
#543=EDGE_LOOP('',(#306));
#544=EDGE_LOOP('',(#307,#308,#309,#310));
#545=EDGE_LOOP('',(#311,#312,#313,#314));
#546=EDGE_LOOP('',(#315,#316,#317,#318));
#547=EDGE_LOOP('',(#319,#320,#321,#322));
#548=EDGE_LOOP('',(#323,#324,#325,#326));
#549=EDGE_LOOP('',(#327,#328,#329,#330));
#550=FACE_BOUND('',#508,.T.);
#551=FACE_BOUND('',#509,.T.);
#552=FACE_BOUND('',#510,.T.);
#553=FACE_BOUND('',#511,.T.);
#554=FACE_BOUND('',#512,.T.);
#555=FACE_BOUND('',#513,.T.);
#556=FACE_BOUND('',#514,.T.);
#557=FACE_BOUND('',#515,.T.);
#558=FACE_BOUND('',#516,.T.);
#559=FACE_BOUND('',#517,.T.);
#560=FACE_BOUND('',#518,.T.);
#561=FACE_BOUND('',#519,.T.);
#562=FACE_BOUND('',#520,.T.);
#563=FACE_BOUND('',#521,.T.);
#564=FACE_BOUND('',#522,.T.);
#565=FACE_BOUND('',#523,.T.);
#566=FACE_BOUND('',#524,.T.);
#567=FACE_BOUND('',#525,.T.);
#568=FACE_BOUND('',#526,.T.);
#569=FACE_BOUND('',#527,.T.);
#570=FACE_BOUND('',#528,.T.);
#571=FACE_BOUND('',#529,.T.);
#572=FACE_BOUND('',#530,.T.);
#573=FACE_BOUND('',#531,.T.);
#574=FACE_BOUND('',#532,.T.);
#575=FACE_BOUND('',#533,.T.);
#576=FACE_BOUND('',#534,.T.);
#577=FACE_BOUND('',#535,.T.);
#578=FACE_BOUND('',#536,.T.);
#579=FACE_BOUND('',#537,.T.);
#580=FACE_BOUND('',#538,.T.);
#581=FACE_BOUND('',#539,.T.);
#582=FACE_BOUND('',#540,.T.);
#583=FACE_BOUND('',#541,.T.);
#584=FACE_BOUND('',#542,.T.);
#585=FACE_BOUND('',#543,.T.);
#586=FACE_BOUND('',#544,.T.);
#587=FACE_BOUND('',#545,.T.);
#588=FACE_BOUND('',#546,.T.);
#589=FACE_BOUND('',#547,.T.);
#590=FACE_BOUND('',#548,.T.);
#591=FACE_BOUND('',#549,.T.);
#592=B_SPLINE_SURFACE_WITH_KNOTS('',3,1,((#823,#824),(#825,#826),(#827,
#828),(#829,#830),(#831,#832),(#833,#834),(#835,#836),(#837,#838),(#839,
#840),(#841,#842),(#843,#844)),.SURF_OF_LINEAR_EXTRUSION.,.F.,.F.,.F.,(4,
1,1,1,1,1,1,1,4),(2,2),(0.294774463217242,0.613744227518322,0.932713991819403,
1.25168375612048,1.57065352042156,1.88962328472264,2.20859304902372,2.5275628133248,
2.84653257762588),(0.,1.),.UNSPECIFIED.);
#593=B_SPLINE_SURFACE_WITH_KNOTS('',3,3,((#914,#915,#916,#917),(#918,#919,
#920,#921),(#922,#923,#924,#925),(#926,#927,#928,#929),(#930,#931,#932,
#933)),.UNSPECIFIED.,.F.,.F.,.F.,(4,1,4),(4,4),(0.,0.5,1.),(0.130102567440264,
1.37322057599783),.UNSPECIFIED.);
#594=B_SPLINE_SURFACE_WITH_KNOTS('',3,3,((#957,#958,#959,#960,#961,#962),
(#963,#964,#965,#966,#967,#968),(#969,#970,#971,#972,#973,#974),(#975,#976,
#977,#978,#979,#980),(#981,#982,#983,#984,#985,#986)),.UNSPECIFIED.,.F.,
 .F.,.F.,(4,1,4),(4,1,1,4),(0.,0.5,1.),(0.,0.0470829409573317,0.0784715682622195,
0.109860195567107),.UNSPECIFIED.);
#595=B_SPLINE_SURFACE_WITH_KNOTS('',3,3,((#1005,#1006,#1007,#1008,#1009,
#1010,#1011,#1012,#1013),(#1014,#1015,#1016,#1017,#1018,#1019,#1020,#1021,
#1022),(#1023,#1024,#1025,#1026,#1027,#1028,#1029,#1030,#1031),(#1032,#1033,
#1034,#1035,#1036,#1037,#1038,#1039,#1040),(#1041,#1042,#1043,#1044,#1045,
#1046,#1047,#1048,#1049)),.UNSPECIFIED.,.F.,.F.,.F.,(4,1,4),(4,1,1,1,1,
1,4),(0.,0.571428571428571,1.),(0.307328262690048,0.46768968171723,0.628051100744413,
0.788412519771595,1.10913535782596,1.26949677685314,1.42985819588032),
 .UNSPECIFIED.);
#596=B_SPLINE_SURFACE_WITH_KNOTS('',3,3,((#1068,#1069,#1070,#1071,#1072),
(#1073,#1074,#1075,#1076,#1077),(#1078,#1079,#1080,#1081,#1082),(#1083,
#1084,#1085,#1086,#1087),(#1088,#1089,#1090,#1091,#1092)),.UNSPECIFIED.,
 .F.,.F.,.F.,(4,1,4),(4,1,4),(0.,0.5,1.),(6.08024765266905E-13,0.0470830600451046,
0.109860473437767),.UNSPECIFIED.);
#597=B_SPLINE_SURFACE_WITH_KNOTS('',3,3,((#1106,#1107,#1108,#1109),(#1110,
#1111,#1112,#1113),(#1114,#1115,#1116,#1117),(#1118,#1119,#1120,#1121),
(#1122,#1123,#1124,#1125)),.UNSPECIFIED.,.F.,.F.,.F.,(4,1,4),(4,4),(0.,
0.5,1.),(0.488219134713553,1.73133714327111),.UNSPECIFIED.);
#598=B_SPLINE_SURFACE_WITH_KNOTS('',3,3,((#1140,#1141,#1142,#1143,#1144),
(#1145,#1146,#1147,#1148,#1149),(#1150,#1151,#1152,#1153,#1154),(#1155,
#1156,#1157,#1158,#1159),(#1160,#1161,#1162,#1163,#1164)),.UNSPECIFIED.,
 .F.,.F.,.F.,(4,1,4),(4,1,4),(0.,0.5,1.),(2.08985109182618E-14,0.047127472461755,
0.109964102410734),.UNSPECIFIED.);
#599=B_SPLINE_SURFACE_WITH_KNOTS('',3,3,((#1192,#1193,#1194,#1195,#1196,
#1197,#1198,#1199),(#1200,#1201,#1202,#1203,#1204,#1205,#1206,#1207),(#1208,
#1209,#1210,#1211,#1212,#1213,#1214,#1215),(#1216,#1217,#1218,#1219,#1220,
#1221,#1222,#1223),(#1224,#1225,#1226,#1227,#1228,#1229,#1230,#1231)),
 .UNSPECIFIED.,.F.,.F.,.F.,(4,1,4),(4,1,1,1,1,4),(0.,0.5,1.),(0.176156242875233,
0.485613224414386,0.640341715183962,0.949798696723114,1.0658450648003,1.25925567826227),
 .UNSPECIFIED.);
#600=B_SPLINE_SURFACE_WITH_KNOTS('',3,3,((#1242,#1243,#1244,#1245,#1246),
(#1247,#1248,#1249,#1250,#1251),(#1252,#1253,#1254,#1255,#1256),(#1257,
#1258,#1259,#1260,#1261),(#1262,#1263,#1264,#1265,#1266)),.UNSPECIFIED.,
 .F.,.F.,.F.,(4,1,4),(4,1,4),(0.,0.5,1.),(4.11492524223351E-14,0.0471278015334538,
0.109964870244671),.UNSPECIFIED.);
#601=B_SPLINE_SURFACE_WITH_KNOTS('',3,1,((#1326,#1327),(#1328,#1329),(#1330,
#1331),(#1332,#1333),(#1334,#1335),(#1336,#1337),(#1338,#1339)),
 .SURF_OF_LINEAR_EXTRUSION.,.F.,.F.,.F.,(4,1,1,1,4),(2,2),(0.59114446036187,
1.08097039416153,1.5707963279612,2.06062226176086,2.55044819556053),(0.,
1.),.UNSPECIFIED.);
#602=ADVANCED_FACE('',(#550),#592,.T.);
#603=ADVANCED_FACE('',(#551),#129,.T.);
#604=ADVANCED_FACE('',(#552),#593,.F.);
#605=ADVANCED_FACE('',(#553),#23,.T.);
#606=ADVANCED_FACE('',(#554),#594,.F.);
#607=ADVANCED_FACE('',(#555),#130,.T.);
#608=ADVANCED_FACE('',(#556),#595,.F.);
#609=ADVANCED_FACE('',(#557),#24,.T.);
#610=ADVANCED_FACE('',(#558),#596,.F.);
#611=ADVANCED_FACE('',(#559),#131,.T.);
#612=ADVANCED_FACE('',(#560),#597,.F.);
#613=ADVANCED_FACE('',(#561),#25,.T.);
#614=ADVANCED_FACE('',(#562),#598,.F.);
#615=ADVANCED_FACE('',(#563,#564),#132,.F.);
#616=ADVANCED_FACE('',(#565),#133,.T.);
#617=ADVANCED_FACE('',(#566),#599,.F.);
#618=ADVANCED_FACE('',(#567),#26,.T.);
#619=ADVANCED_FACE('',(#568),#600,.F.);
#620=ADVANCED_FACE('',(#569),#134,.F.);
#621=ADVANCED_FACE('',(#570),#135,.F.);
#622=ADVANCED_FACE('',(#571),#136,.F.);
#623=ADVANCED_FACE('',(#572),#27,.T.);
#624=ADVANCED_FACE('',(#573),#137,.F.);
#625=ADVANCED_FACE('',(#574,#575),#601,.F.);
#626=ADVANCED_FACE('',(#576,#577),#138,.F.);
#627=ADVANCED_FACE('',(#578),#139,.T.);
#628=ADVANCED_FACE('',(#579),#140,.T.);
#629=ADVANCED_FACE('',(#580),#141,.T.);
#630=ADVANCED_FACE('',(#581),#142,.T.);
#631=ADVANCED_FACE('',(#582),#143,.T.);
#632=ADVANCED_FACE('',(#583),#144,.T.);
#633=ADVANCED_FACE('',(#584,#585),#28,.T.);
#634=ADVANCED_FACE('',(#586),#145,.T.);
#635=ADVANCED_FACE('',(#587),#146,.T.);
#636=ADVANCED_FACE('',(#588),#147,.T.);
#637=ADVANCED_FACE('',(#589),#148,.T.);
#638=ADVANCED_FACE('',(#590),#149,.T.);
#639=ADVANCED_FACE('',(#591),#150,.T.);
#640=CLOSED_SHELL('',(#602,#603,#604,#605,#606,#607,#608,#609,#610,#611,
#612,#613,#614,#615,#616,#617,#618,#619,#620,#621,#622,#623,#624,#625,#626,
#627,#628,#629,#630,#631,#632,#633,#634,#635,#636,#637,#638,#639));
#641=STYLED_ITEM('',(#642),#649);
#642=PRESENTATION_STYLE_ASSIGNMENT((#643));
#643=SURFACE_STYLE_USAGE(.BOTH.,#644);
#644=SURFACE_SIDE_STYLE('',(#645));
#645=SURFACE_STYLE_FILL_AREA(#646);
#646=FILL_AREA_STYLE('',(#647));
#647=FILL_AREA_STYLE_COLOUR('',#648);
#648=COLOUR_RGB('',0.313725490196078,0.309803921568627,0.309803921568627);
#649=MANIFOLD_SOLID_BREP('1x1 R4 v6',#640);
#650=SHAPE_DEFINITION_REPRESENTATION(#1410,#651);
#651=SHAPE_REPRESENTATION('1x1 R4 v6',(#652),#1405);
#652=AXIS2_PLACEMENT_3D('',#822,#692,#693);
#653=AXIS2_PLACEMENT_3D('',#902,#694,#695);
#654=AXIS2_PLACEMENT_3D('',#942,#699,#700);
#655=AXIS2_PLACEMENT_3D('',#943,#701,#702);
#656=AXIS2_PLACEMENT_3D('',#991,#704,#705);
#657=AXIS2_PLACEMENT_3D('',#1054,#708,#709);
#658=AXIS2_PLACEMENT_3D('',#1055,#710,#711);
#659=AXIS2_PLACEMENT_3D('',#1097,#713,#714);
#660=AXIS2_PLACEMENT_3D('',#1130,#717,#718);
#661=AXIS2_PLACEMENT_3D('',#1131,#719,#720);
#662=AXIS2_PLACEMENT_3D('',#1169,#722,#723);
#663=AXIS2_PLACEMENT_3D('',#1178,#728,#729);
#664=AXIS2_PLACEMENT_3D('',#1181,#731,#732);
#665=AXIS2_PLACEMENT_3D('',#1236,#734,#735);
#666=AXIS2_PLACEMENT_3D('',#1267,#736,#737);
#667=AXIS2_PLACEMENT_3D('',#1276,#740,#741);
#668=AXIS2_PLACEMENT_3D('',#1285,#744,#745);
#669=AXIS2_PLACEMENT_3D('',#1293,#746,#747);
#670=AXIS2_PLACEMENT_3D('',#1294,#748,#749);
#671=AXIS2_PLACEMENT_3D('',#1299,#751,#752);
#672=AXIS2_PLACEMENT_3D('',#1303,#754,#755);
#673=AXIS2_PLACEMENT_3D('',#1307,#757,#758);
#674=AXIS2_PLACEMENT_3D('',#1311,#760,#761);
#675=AXIS2_PLACEMENT_3D('',#1315,#763,#764);
#676=AXIS2_PLACEMENT_3D('',#1318,#766,#767);
#677=AXIS2_PLACEMENT_3D('',#1352,#768,#769);
#678=AXIS2_PLACEMENT_3D('',#1377,#782,#783);
#679=AXIS2_PLACEMENT_3D('',#1379,#784,#785);
#680=AXIS2_PLACEMENT_3D('',#1382,#788,#789);
#681=AXIS2_PLACEMENT_3D('',#1384,#791,#792);
#682=AXIS2_PLACEMENT_3D('',#1386,#794,#795);
#683=AXIS2_PLACEMENT_3D('',#1388,#797,#798);
#684=AXIS2_PLACEMENT_3D('',#1390,#800,#801);
#685=AXIS2_PLACEMENT_3D('',#1392,#803,#804);
#686=AXIS2_PLACEMENT_3D('',#1393,#805,#806);
#687=AXIS2_PLACEMENT_3D('',#1395,#808,#809);
#688=AXIS2_PLACEMENT_3D('',#1397,#811,#812);
#689=AXIS2_PLACEMENT_3D('',#1399,#814,#815);
#690=AXIS2_PLACEMENT_3D('',#1401,#817,#818);
#691=AXIS2_PLACEMENT_3D('',#1403,#820,#821);
#692=DIRECTION('',(0.,0.,1.));
#693=DIRECTION('',(1.,0.,0.));
#694=DIRECTION('',(0.971615138247656,0.236567164095081,0.));
#695=DIRECTION('',(0.,0.,-1.));
#696=DIRECTION('',(0.236567164095081,-0.971615138247656,1.87601651749026E-16));
#697=DIRECTION('',(-0.224114776155613,0.920471402067698,-0.32016396593659));
#698=DIRECTION('',(0.,0.,1.));
#699=DIRECTION('',(0.224114776155613,-0.920471402067698,0.320163965936591));
#700=DIRECTION('',(0.661800162282726,0.384900539078389,0.643328936252461));
#701=DIRECTION('',(0.,1.,0.));
#702=DIRECTION('',(0.573462344363327,0.,0.819231920519041));
#703=DIRECTION('',(0.224114776155613,-0.920471402067698,0.32016396593659));
#704=DIRECTION('',(2.46641457811193E-17,0.328520624941273,0.944496796706159));
#705=DIRECTION('',(1.,0.,-2.61135303657282E-17));
#706=DIRECTION('',(0.224114776155613,0.920471402067698,-0.32016396593659));
#707=DIRECTION('',(-1.,0.,0.));
#708=DIRECTION('',(-0.224114776155613,-0.920471402067698,0.320163965936591));
#709=DIRECTION('',(-0.661800162282727,0.384900539078389,0.64332893625246));
#710=DIRECTION('',(0.,1.,0.));
#711=DIRECTION('',(-0.573462344363328,0.,0.819231920519041));
#712=DIRECTION('',(-0.224114776155613,-0.920471402067698,0.32016396593659));
#713=DIRECTION('',(-0.971615138247656,0.236567164095081,0.));
#714=DIRECTION('',(0.,0.,1.));
#715=DIRECTION('',(0.236567164095081,0.971615138247656,-1.87601651749026E-16));
#716=DIRECTION('',(0.,0.,-1.));
#717=DIRECTION('',(-0.236567164095081,-0.971615138247656,1.87601651749026E-16));
#718=DIRECTION('',(-0.687035652958422,0.167278245937702,-0.707106781186548));
#719=DIRECTION('',(0.,1.,0.));
#720=DIRECTION('',(-1.,0.,2.96645111828148E-15));
#721=DIRECTION('',(-0.236567164095081,-0.971615138247656,1.87601651749026E-16));
#722=DIRECTION('',(0.,1.,0.));
#723=DIRECTION('',(0.,0.,1.));
#724=DIRECTION('',(-1.,0.,0.));
#725=DIRECTION('',(0.,0.,1.));
#726=DIRECTION('',(1.,0.,-2.61135303657282E-17));
#727=DIRECTION('',(0.,0.,-1.));
#728=DIRECTION('',(0.,1.,0.));
#729=DIRECTION('',(1.,0.,8.76451466764983E-16));
#730=DIRECTION('',(1.,0.,0.));
#731=DIRECTION('',(0.,-1.93082265152201E-16,-1.));
#732=DIRECTION('',(-1.,0.,0.));
#733=DIRECTION('',(-0.236567164095081,0.971615138247656,-1.87601651749026E-16));
#734=DIRECTION('',(0.236567164095081,-0.971615138247656,1.87601651749026E-16));
#735=DIRECTION('',(0.687035652958422,0.167278245937702,-0.707106781186548));
#736=DIRECTION('',(-0.971615138247656,0.236567164095081,0.));
#737=DIRECTION('',(0.,0.,1.));
#738=DIRECTION('',(0.224114776155613,0.920471402067698,-0.32016396593659));
#739=DIRECTION('',(0.236567164095081,0.971615138247656,-1.87601651749026E-16));
#740=DIRECTION('',(0.971615138247656,0.236567164095081,0.));
#741=DIRECTION('',(0.,0.,-1.));
#742=DIRECTION('',(-0.224114776155613,0.920471402067698,-0.32016396593659));
#743=DIRECTION('',(0.236567164095081,-0.971615138247656,1.87601651749026E-16));
#744=DIRECTION('',(0.,-1.93082265152201E-16,-1.));
#745=DIRECTION('',(-1.,0.,0.));
#746=DIRECTION('',(-8.6022703382155E-14,0.0420872172746653,-0.999113940520337));
#747=DIRECTION('',(-8.34862337585136E-16,-0.999113940520337,-0.0420872172746653));
#748=DIRECTION('',(0.,0.,-1.));
#749=DIRECTION('',(-2.04391520638588E-12,1.,0.));
#750=DIRECTION('',(-8.6022703382155E-14,0.0420872172746653,-0.999113940520337));
#751=DIRECTION('',(-7.65671051465625E-16,0.,-1.));
#752=DIRECTION('',(-2.025738841425E-12,1.,1.55104958870864E-27));
#753=DIRECTION('',(-8.6022703382155E-14,0.0420872172746653,-0.999113940520337));
#754=DIRECTION('',(1.91417762866406E-15,0.,1.));
#755=DIRECTION('',(-1.99847429398368E-12,1.,3.82543478500377E-27));
#756=DIRECTION('',(-8.6022703382155E-14,0.0420872172746653,-0.999113940520337));
#757=DIRECTION('',(0.,0.,1.));
#758=DIRECTION('',(-2.04391520638588E-12,1.,0.));
#759=DIRECTION('',(-8.6022703382155E-14,0.0420872172746653,-0.999113940520337));
#760=DIRECTION('',(1.91417762866406E-15,0.,1.));
#761=DIRECTION('',(-1.99847429398368E-12,1.,3.82543478500377E-27));
#762=DIRECTION('',(-8.6022703382155E-14,0.0420872172746653,-0.999113940520337));
#763=DIRECTION('',(-7.65671051465625E-16,0.,-1.));
#764=DIRECTION('',(-2.025738841425E-12,1.,1.55104958870864E-27));
#765=DIRECTION('',(-8.6022703382155E-14,0.0420872172746653,-0.999113940520337));
#766=DIRECTION('',(2.46641457811193E-17,0.328520624941273,0.944496796706159));
#767=DIRECTION('',(1.,0.,-2.61135303657282E-17));
#768=DIRECTION('',(0.,1.,0.));
#769=DIRECTION('',(0.,0.,1.));
#770=DIRECTION('',(2.9738116731031E-16,0.,1.));
#771=DIRECTION('',(1.,0.,0.));
#772=DIRECTION('',(-1.98254111540207E-16,0.,-1.));
#773=DIRECTION('',(1.,0.,-1.91417762866406E-15));
#774=DIRECTION('',(0.,0.,-1.));
#775=DIRECTION('',(-1.,0.,7.65671051465625E-16));
#776=DIRECTION('',(-4.95635278850516E-16,0.,-1.));
#777=DIRECTION('',(-1.,0.,0.));
#778=DIRECTION('',(-9.91270557701032E-16,0.,1.));
#779=DIRECTION('',(-1.,0.,-4.78544407166016E-16));
#780=DIRECTION('',(0.,0.,1.));
#781=DIRECTION('',(1.,0.,1.38777878078145E-15));
#782=DIRECTION('',(0.,1.,0.));
#783=DIRECTION('',(1.,0.,0.));
#784=DIRECTION('',(-1.,0.,0.));
#785=DIRECTION('',(0.,0.,1.));
#786=DIRECTION('',(0.,1.,0.));
#787=DIRECTION('',(0.,1.,0.));
#788=DIRECTION('',(1.91417762866406E-15,0.,1.));
#789=DIRECTION('',(1.,0.,-1.91417762866406E-15));
#790=DIRECTION('',(0.,1.,0.));
#791=DIRECTION('',(-1.,0.,0.));
#792=DIRECTION('',(0.,0.,1.));
#793=DIRECTION('',(0.,1.,0.));
#794=DIRECTION('',(-7.65671051465625E-16,0.,-1.));
#795=DIRECTION('',(-1.,0.,7.65671051465625E-16));
#796=DIRECTION('',(0.,1.,0.));
#797=DIRECTION('',(-1.,0.,0.));
#798=DIRECTION('',(0.,0.,1.));
#799=DIRECTION('',(0.,1.,0.));
#800=DIRECTION('',(0.,0.,1.));
#801=DIRECTION('',(1.,0.,0.));
#802=DIRECTION('',(0.,1.,0.));
#803=DIRECTION('',(0.,1.,0.));
#804=DIRECTION('',(1.,0.,0.));
#805=DIRECTION('',(0.,0.,-1.));
#806=DIRECTION('',(-1.,0.,0.));
#807=DIRECTION('',(0.,1.,0.));
#808=DIRECTION('',(1.,0.,0.));
#809=DIRECTION('',(0.,0.,-1.));
#810=DIRECTION('',(0.,1.,0.));
#811=DIRECTION('',(-7.65671051465625E-16,0.,-1.));
#812=DIRECTION('',(-1.,0.,7.65671051465625E-16));
#813=DIRECTION('',(0.,1.,0.));
#814=DIRECTION('',(1.,0.,0.));
#815=DIRECTION('',(0.,0.,-1.));
#816=DIRECTION('',(0.,1.,0.));
#817=DIRECTION('',(1.91417762866406E-15,0.,1.));
#818=DIRECTION('',(1.,0.,-1.91417762866406E-15));
#819=DIRECTION('',(0.,1.,0.));
#820=DIRECTION('',(1.,0.,0.));
#821=DIRECTION('',(0.,0.,-1.));
#822=CARTESIAN_POINT('',(0.,0.,0.));
#823=CARTESIAN_POINT('',(-0.00609354742987777,0.0105277663157706,0.00546965437476397));
#824=CARTESIAN_POINT('',(-0.00609354742987789,0.011127307048514,-0.00876292128079651));
#825=CARTESIAN_POINT('',(-0.00590922442952509,0.0104428332781011,0.00546607660944089));
#826=CARTESIAN_POINT('',(-0.00590922442952521,0.0110423740108445,-0.00876649904611959));
#827=CARTESIAN_POINT('',(-0.00533962032412447,0.0102712461829965,0.00545884858162514));
#828=CARTESIAN_POINT('',(-0.0053396203241246,0.0108707869157399,-0.00877372707393534));
#829=CARTESIAN_POINT('',(-0.0038687411831135,0.0100543848518437,0.0054497133973458));
#830=CARTESIAN_POINT('',(-0.00386874118311363,0.010653925584587,-0.00878286225821468));
#831=CARTESIAN_POINT('',(-0.00195675050208774,0.00991800495554143,0.00544396845665908));
#832=CARTESIAN_POINT('',(-0.00195675050208787,0.0105175456882848,-0.0087886071989014));
#833=CARTESIAN_POINT('',(2.32558637209446E-8,0.00987720486195335,0.00544224977139804));
#834=CARTESIAN_POINT('',(2.32558635979226E-8,0.0104767455946967,-0.00879032588416244));
#835=CARTESIAN_POINT('',(0.00195666248014743,0.00991800288495195,0.00544396836943645));
#836=CARTESIAN_POINT('',(0.0019566624801473,0.0105175436176953,-0.00878860728612403));
#837=CARTESIAN_POINT('',(0.00386866324120163,0.0100543757353704,0.00544971301331855));
#838=CARTESIAN_POINT('',(0.00386866324120151,0.0106539164681138,-0.00878286264224193));
#839=CARTESIAN_POINT('',(0.00533957817718304,0.0102712384489109,0.00545884825583033));
#840=CARTESIAN_POINT('',(0.00533957817718291,0.0108707791816543,-0.00877372739973015));
#841=CARTESIAN_POINT('',(0.00590922720110419,0.0104428273373259,0.00546607635918846));
#842=CARTESIAN_POINT('',(0.00590922720110406,0.0110423680700692,-0.00876649929637201));
#843=CARTESIAN_POINT('',(0.00609354846792275,0.010527767335905,0.00546965441773667));
#844=CARTESIAN_POINT('',(0.00609354846792263,0.0111273080686483,-0.00876292123782381));
#845=CARTESIAN_POINT('',(0.0059653729926551,0.0110412935356208,-0.0079881856251947));
#846=CARTESIAN_POINT('',(0.00596388310431697,0.0110482555116528,-0.00816680346594775));
#847=CARTESIAN_POINT('',(0.00583522362266746,0.0110119141767299,-0.00853799596744095));
#848=CARTESIAN_POINT('',(0.00549962958980638,0.0109300500306888,-0.00868771592788604));
#849=CARTESIAN_POINT('',(0.00532680287801277,0.0108927894550394,-0.00868765690361698));
#850=CARTESIAN_POINT('',(0.00532680287801238,0.0108927894550393,-0.00868765690361699));
#851=CARTESIAN_POINT('',(0.00596537299265167,0.0110412935356195,-0.00798818562519453));
#852=CARTESIAN_POINT('',(0.00532680287801262,0.0108927894550393,-0.00868765690361698));
#853=CARTESIAN_POINT('',(0.00475413861404056,0.0107693259006616,-0.00868746132569283));
#854=CARTESIAN_POINT('',(0.00351313234828414,0.0106078915622891,-0.0086881906967059));
#855=CARTESIAN_POINT('',(0.00149499626499101,0.0105021394151211,-0.00868859813976801));
#856=CARTESIAN_POINT('',(8.22234878556769E-8,0.0104780574925939,-0.00868860075029894));
#857=CARTESIAN_POINT('',(-0.00149492988247753,0.0105021361313172,-0.00868859827809674));
#858=CARTESIAN_POINT('',(-0.00351311448885249,0.0106078892259634,-0.00868819079512255));
#859=CARTESIAN_POINT('',(-0.00475413861403991,0.0107693259006614,-0.00868746132569284));
#860=CARTESIAN_POINT('',(-0.00532680287801261,0.0108927894550393,-0.00868765690361699));
#861=CARTESIAN_POINT('',(-0.00532680287801238,0.0108927894550393,-0.00868765690361699));
#862=CARTESIAN_POINT('',(-0.00532680287801278,0.0108927894550394,-0.00868765690361699));
#863=CARTESIAN_POINT('',(-0.00549756514438242,0.010929604946569,-0.00868771522283077));
#864=CARTESIAN_POINT('',(-0.00583635330441407,0.0110121114726264,-0.00853667176127723));
#865=CARTESIAN_POINT('',(-0.00596386318826435,0.0110483485757284,-0.00816919113636849));
#866=CARTESIAN_POINT('',(-0.0059653729926551,0.0110412935356207,-0.00798818562519471));
#867=CARTESIAN_POINT('',(-0.00596537299265167,0.0110412935356195,-0.00798818562519453));
#868=CARTESIAN_POINT('',(-0.00606616527783122,0.010559070880916,0.00443307504489803));
#869=CARTESIAN_POINT('',(-0.00603363987025753,0.0107191431064297,0.000292628576690721));
#870=CARTESIAN_POINT('',(-0.00599990888190478,0.0108799136341802,-0.00384779079996578));
#871=CARTESIAN_POINT('',(-0.00596537299265507,0.0110412935356207,-0.00798818562519451));
#872=CARTESIAN_POINT('',(-0.00606616527755126,0.0105590708807926,0.00443307504489546));
#873=CARTESIAN_POINT('',(-0.00606616527783121,0.0105590708809159,0.00443307504489902));
#874=CARTESIAN_POINT('',(-0.00606758933695232,0.0105520624420477,0.0046143561239829));
#875=CARTESIAN_POINT('',(-0.00597813619715228,0.0104920075890277,0.00498253291634995));
#876=CARTESIAN_POINT('',(-0.00567239317315367,0.0103900102133675,0.00518127923409518));
#877=CARTESIAN_POINT('',(-0.00550706611816655,0.0103491769165165,0.00519623424594132));
#878=CARTESIAN_POINT('',(-0.00550706611816054,0.010349176916515,0.00519623424594069));
#879=CARTESIAN_POINT('',(-0.00550706611816403,0.0103491769165158,0.00519623424594153));
#880=CARTESIAN_POINT('',(-0.0052066091492133,0.0102749685626256,0.00522341272275394));
#881=CARTESIAN_POINT('',(-0.00445279168425063,0.0101379831587601,0.00527063639144671));
#882=CARTESIAN_POINT('',(-0.00300717997608786,0.0099903785362624,0.00532106696077938));
#883=CARTESIAN_POINT('',(-0.00171457480300248,0.00992262636284931,0.00534638009105959));
#884=CARTESIAN_POINT('',(-0.000708231921778054,0.00989804638781892,0.00535646355440855));
#885=CARTESIAN_POINT('',(0.000231315540029871,0.00989066199919232,0.00535963081911277));
#886=CARTESIAN_POINT('',(0.00146586448331186,0.00990948874390112,0.0053506798045501));
#887=CARTESIAN_POINT('',(0.00302762160784164,0.00999182924374239,0.0053201217578858));
#888=CARTESIAN_POINT('',(0.00446342075874713,0.0101396972914957,0.00526993304898707));
#889=CARTESIAN_POINT('',(0.00520968328659101,0.0102757278283374,0.00522313464509201));
#890=CARTESIAN_POINT('',(0.00550706611816403,0.0103491769165158,0.00519623424594153));
#891=CARTESIAN_POINT('',(0.00550706611816054,0.010349176916515,0.00519623424594069));
#892=CARTESIAN_POINT('',(0.00550706611816657,0.0103491769165164,0.00519623424594131));
#893=CARTESIAN_POINT('',(0.0056752236872643,0.0103907093077953,0.00518102319389621));
#894=CARTESIAN_POINT('',(0.00597703785327671,0.0104917862220199,0.004982307153833));
#895=CARTESIAN_POINT('',(0.00606759068480893,0.0105520558086359,0.00461452770456832));
#896=CARTESIAN_POINT('',(0.00606616527783125,0.0105590708809159,0.00443307504489902));
#897=CARTESIAN_POINT('',(0.00606616527755127,0.0105590708807926,0.00443307504489546));
#898=CARTESIAN_POINT('',(0.00596537299265507,0.0110412935356207,-0.00798818562519451));
#899=CARTESIAN_POINT('',(0.00599990888190478,0.0108799136341802,-0.00384779079996578));
#900=CARTESIAN_POINT('',(0.00603363987025753,0.0107191431064297,0.000292628576690723));
#901=CARTESIAN_POINT('',(0.00606616527783122,0.0105590708809159,0.00443307504489803));
#902=CARTESIAN_POINT('',(0.0062,0.0115,-0.009));
#903=CARTESIAN_POINT('',(0.00585302305660647,0.012925083874652,-0.008));
#904=CARTESIAN_POINT('',(0.00636269200338884,0.0108318007003673,-0.00799999999999841));
#905=CARTESIAN_POINT('',(0.009,0.,-0.008));
#906=CARTESIAN_POINT('',(0.0064786007926261,0.0103557467445714,0.00442152052393229));
#907=CARTESIAN_POINT('',(0.00644025090850212,0.0105132551972234,0.000280966057967069));
#908=CARTESIAN_POINT('',(0.00640158489713569,0.0106720620296213,-0.00385953603867844));
#909=CARTESIAN_POINT('',(0.00636269200338884,0.0108318007003673,-0.0079999999999987));
#910=CARTESIAN_POINT('',(0.00647860079260664,0.0103557467446513,0.00442152052393015));
#911=CARTESIAN_POINT('',(0.0057677915486114,0.0132751418539175,0.00340607874598474));
#912=CARTESIAN_POINT('',(0.009,0.,0.0080235193908256));
#913=CARTESIAN_POINT('',(0.009,0.,-0.009));
#914=CARTESIAN_POINT('',(0.00596537299265507,0.0110412935356207,-0.00798818562519451));
#915=CARTESIAN_POINT('',(0.00599990888190478,0.0108799136341802,-0.00384779079996578));
#916=CARTESIAN_POINT('',(0.00603363987025931,0.0107191431064212,0.000292628576911765));
#917=CARTESIAN_POINT('',(0.00606616527783296,0.0105590708809074,0.00443307504511907));
#918=CARTESIAN_POINT('',(0.00604456268826382,0.0110711590631783,-0.00798777727403584));
#919=CARTESIAN_POINT('',(0.00607934636325727,0.0109113130201575,-0.0038473273532074));
#920=CARTESIAN_POINT('',(0.00611337991187621,0.0107521975464434,0.0002931509891835));
#921=CARTESIAN_POINT('',(0.00614610368907697,0.0105942947326724,0.00443367458452861));
#922=CARTESIAN_POINT('',(0.00622893079320635,0.0110593987332777,-0.0079899628234492));
#923=CARTESIAN_POINT('',(0.006265839194103,0.0109015059762996,-0.00384944864668453));
#924=CARTESIAN_POINT('',(0.0063022405205158,0.0107448728852833,0.00029111195201427));
#925=CARTESIAN_POINT('',(0.00633780176048488,0.0105898563973673,0.00443173023765002));
#926=CARTESIAN_POINT('',(0.00634268584901945,0.0109139688343844,-0.00799664203676761));
#927=CARTESIAN_POINT('',(0.00638142356312736,0.0107550018980787,-0.00385616016429373));
#928=CARTESIAN_POINT('',(0.00641980931761643,0.0105970094342985,0.000284360543998911));
#929=CARTESIAN_POINT('',(0.00645795083812506,0.0104405590577006,0.00442493808061109));
#930=CARTESIAN_POINT('',(0.00636269200338884,0.0108318007003673,-0.0079999999999987));
#931=CARTESIAN_POINT('',(0.00640158489713569,0.0106720620296213,-0.00385953603867844));
#932=CARTESIAN_POINT('',(0.00644025090850212,0.0105132551972234,0.000280966057967069));
#933=CARTESIAN_POINT('',(0.0064786007926261,0.0103557467445714,0.00442152052393229));
#934=CARTESIAN_POINT('',(0.00636269200338997,0.0108318007003627,-0.00799999999987873));
#935=CARTESIAN_POINT('',(0.00632267969465117,0.0109961369683969,-0.00799328407341654));
#936=CARTESIAN_POINT('',(0.00612375238387358,0.0111010245907313,-0.0079873689227572));
#937=CARTESIAN_POINT('',(0.00596537299265607,0.011041293535616,-0.00798818562507454));
#938=CARTESIAN_POINT('',(0.00606616527782538,0.0105590708809447,0.00443307504415421));
#939=CARTESIAN_POINT('',(0.00622604210031331,0.0106295185844737,0.00443427412297326));
#940=CARTESIAN_POINT('',(0.00643730088361519,0.010525371370866,0.004428355636325));
#941=CARTESIAN_POINT('',(0.00647860079261716,0.0103557467446081,0.00442152052296741));
#942=CARTESIAN_POINT('',(0.00479617641036374,0.0130385746898224,0.00340607874598474));
#943=CARTESIAN_POINT('',(0.00797078590005963,0.,0.00794123515983601));
#944=CARTESIAN_POINT('',(0.00805077353048011,0.,0.009));
#945=CARTESIAN_POINT('',(0.00647860079260664,0.0103557467446513,0.00442152052393015));
#946=CARTESIAN_POINT('',(0.00647806275999845,0.0103579565213245,0.00445672700131098));
#947=CARTESIAN_POINT('',(0.00647587052520274,0.0103629234054242,0.00454983673162571));
#948=CARTESIAN_POINT('',(0.00641926463195442,0.0103586167739929,0.00479951952058638));
#949=CARTESIAN_POINT('',(0.00631618601364535,0.0103360022730082,0.00499918068491762));
#950=CARTESIAN_POINT('',(0.00624142445097125,0.0103177744324881,0.00510861022929072));
#951=CARTESIAN_POINT('',(0.00608460955711039,0.0102796578541747,0.00527063837468895));
#952=CARTESIAN_POINT('',(0.00586932324587493,0.0102272103498452,0.00540742486576676));
#953=CARTESIAN_POINT('',(0.00569181148838343,0.0101835699392522,0.00545788871678298));
#954=CARTESIAN_POINT('',(0.00557789336471177,0.0101564721093671,0.0054673140489158));
#955=CARTESIAN_POINT('',(0.00557789336471177,0.0101564721093671,0.00546731404891579));
#956=CARTESIAN_POINT('',(0.00479617641036374,0.0133670953147637,0.0043505755426909));
#957=CARTESIAN_POINT('',(0.00606616527783123,0.0105590708809159,0.00443307504489902));
#958=CARTESIAN_POINT('',(0.00606739717353563,0.010553008165114,0.0045898939432886));
#959=CARTESIAN_POINT('',(0.00601076481758126,0.0105150528999794,0.00484997976915618));
#960=CARTESIAN_POINT('',(0.00578839361552938,0.0104261903618896,0.00511624708215743));
#961=CARTESIAN_POINT('',(0.00560365415513983,0.0103730327094252,0.00518749716877483));
#962=CARTESIAN_POINT('',(0.00550706611816656,0.0103491769165164,0.00519623424594131));
#963=CARTESIAN_POINT('',(0.0061461036890633,0.0105942947326729,0.00443367458437197));
#964=CARTESIAN_POINT('',(0.00614409769364883,0.0105859671984096,0.00460786044271462));
#965=CARTESIAN_POINT('',(0.00607342110686267,0.0105369590805688,0.00488970289679202));
#966=CARTESIAN_POINT('',(0.0058226192734826,0.0104332863183371,0.00517164771016519));
#967=CARTESIAN_POINT('',(0.0056187848311143,0.0103743035808083,0.00524696159232384));
#968=CARTESIAN_POINT('',(0.00551251313950111,0.0103479741309187,0.0052562316288487));
#969=CARTESIAN_POINT('',(0.00633781339028993,0.0105898799433253,0.00443173102560245));
#970=CARTESIAN_POINT('',(0.00632669102499252,0.0105844942238671,0.00464048380370402));
#971=CARTESIAN_POINT('',(0.00621872032527795,0.0105270355915886,0.0049664526252379));
#972=CARTESIAN_POINT('',(0.00590266660606361,0.0104085410995887,0.00528056235388791));
#973=CARTESIAN_POINT('',(0.00565849728257111,0.010340252964474,0.00536419806985581));
#974=CARTESIAN_POINT('',(0.00553223154749307,0.01030922825981,0.00537454798891279));
#975=CARTESIAN_POINT('',(0.00645795083808572,0.0104405590577611,0.00442493808061955));
#976=CARTESIAN_POINT('',(0.00644901895678747,0.0104488496814356,0.00464438044446447));
#977=CARTESIAN_POINT('',(0.00633265555676771,0.0104166468742789,0.00499612479046259));
#978=CARTESIAN_POINT('',(0.00597639690658042,0.0103142014015157,0.00534397487459844));
#979=CARTESIAN_POINT('',(0.00570320231670864,0.0102453036120474,0.0054367023826278));
#980=CARTESIAN_POINT('',(0.00556266027891461,0.0102115351854403,0.00544816167462944));
#981=CARTESIAN_POINT('',(0.00647860079260664,0.0103557467446513,0.00442152052393015));
#982=CARTESIAN_POINT('',(0.00647529455829548,0.0103693259206076,0.00463786589355808));
#983=CARTESIAN_POINT('',(0.00636736563856065,0.0103500576944948,0.00499432604671637));
#984=CARTESIAN_POINT('',(0.00600524663655837,0.0102589303711851,0.00535789177442161));
#985=CARTESIAN_POINT('',(0.00572280467494848,0.0101909423227683,0.00545532440947335));
#986=CARTESIAN_POINT('',(0.00557789336471177,0.0101564721093671,0.00546731404891579));
#987=CARTESIAN_POINT('',(0.00550706611816656,0.0103491769165164,0.00519623424594131));
#988=CARTESIAN_POINT('',(0.00551796016083566,0.010346771345321,0.00531622901175609));
#989=CARTESIAN_POINT('',(0.00554742719311745,0.0102665982615135,0.00542900930034309));
#990=CARTESIAN_POINT('',(0.00557789336471177,0.0101564721093671,0.00546731404891579));
#991=CARTESIAN_POINT('',(0.0062,0.0115,0.005));
#992=CARTESIAN_POINT('',(-0.00498704065535061,0.0125831885942819,0.004623238749815));
#993=CARTESIAN_POINT('',(-0.00805077353048011,0.,0.009));
#994=CARTESIAN_POINT('',(-0.00557789336471177,0.0101564721093671,0.00546731404891578));
#995=CARTESIAN_POINT('',(0.009,0.,0.009));
#996=CARTESIAN_POINT('',(-0.00557789336471179,0.0101564721093671,0.00546731404891581));
#997=CARTESIAN_POINT('',(-0.00506023396716979,0.0100287186997091,0.00551175001749249));
#998=CARTESIAN_POINT('',(-0.00400187899481725,0.00987630154089237,0.00556476468142875));
#999=CARTESIAN_POINT('',(-0.00186871959064692,0.00970506941962199,0.00562432368013148));
#1000=CARTESIAN_POINT('',(0.0002682371182927,0.00967289552680357,0.00563551459937267));
#1001=CARTESIAN_POINT('',(0.00240115710440091,0.00974681883711099,0.00560980214361358));
#1002=CARTESIAN_POINT('',(0.0040024033113008,0.00987713993958442,0.00556447306449238));
#1003=CARTESIAN_POINT('',(0.00506023396716979,0.0100287186997091,0.00551175001749249));
#1004=CARTESIAN_POINT('',(0.00557789336471179,0.0101564721093671,0.00546731404891581));
#1005=CARTESIAN_POINT('',(0.00550706611816403,0.0103491769165158,0.00519623424594154));
#1006=CARTESIAN_POINT('',(0.00501314486075595,0.0102271857921572,0.00524091294814805));
#1007=CARTESIAN_POINT('',(0.00397042226779236,0.0100766059500917,0.00529367807411379));
#1008=CARTESIAN_POINT('',(0.00238537478390651,0.0099480503067064,0.00533908152239072));
#1009=CARTESIAN_POINT('',(0.00026689656306249,0.00987409554500547,0.00536479265327427));
#1010=CARTESIAN_POINT('',(-0.00185804845305031,0.00990674772912601,0.00535362188183518));
#1011=CARTESIAN_POINT('',(-0.00397007618591939,0.0100758566092647,0.00529397344257195));
#1012=CARTESIAN_POINT('',(-0.00501314486075595,0.0102271857921572,0.00524091294814805));
#1013=CARTESIAN_POINT('',(-0.00550706611816403,0.0103491769165158,0.00519623424594153));
#1014=CARTESIAN_POINT('',(0.00551329128540415,0.0103478023044043,0.00526480268354994));
#1015=CARTESIAN_POINT('',(0.00501741152552592,0.0102247998370053,0.00530920352316354));
#1016=CARTESIAN_POINT('',(0.00397329059389129,0.0100740366999687,0.00536192373687584));
#1017=CARTESIAN_POINT('',(0.00238682153303704,0.00994516966963276,0.00540724227649812));
#1018=CARTESIAN_POINT('',(0.000267025270914116,0.0098712182804299,0.00543295624410879));
#1019=CARTESIAN_POINT('',(-0.00185904421810091,0.0099037878972761,0.00542176113900555));
#1020=CARTESIAN_POINT('',(-0.00397293393712793,0.0100732716962887,0.00536221458728879));
#1021=CARTESIAN_POINT('',(-0.00501741152552593,0.0102247998370053,0.00530920352316354));
#1022=CARTESIAN_POINT('',(-0.00551329128540415,0.0103478023044043,0.00526480268354994));
#1023=CARTESIAN_POINT('',(0.00553434477040211,0.0103034648278681,0.00538259623514181));
#1024=CARTESIAN_POINT('',(0.00503142059086448,0.0101784260125911,0.00542652162084136));
#1025=CARTESIAN_POINT('',(0.00398281011080608,0.0100273037667403,0.00547915829017659));
#1026=CARTESIAN_POINT('',(0.00239151216736831,0.00989781229313225,0.00552433141221377));
#1027=CARTESIAN_POINT('',(0.000267416419519686,0.00982386967189034,0.00555004715741979));
#1028=CARTESIAN_POINT('',(-0.00186220825892821,0.00985627243783719,0.00553881360487021));
#1029=CARTESIAN_POINT('',(-0.00398239788586849,0.0100265076408062,0.00547944206329477));
#1030=CARTESIAN_POINT('',(-0.00503142059086448,0.0101784260125911,0.00542652162084136));
#1031=CARTESIAN_POINT('',(-0.00553434477040211,0.0103034648278681,0.00538259623514181));
#1032=CARTESIAN_POINT('',(0.00556483643402836,0.0102036690317155,0.00545089772809897));
#1033=CARTESIAN_POINT('',(0.00505159345909086,0.0100766891653804,0.00549506250848994));
#1034=CARTESIAN_POINT('',(0.00399652832931072,0.00992524098354764,0.00554774130869665));
#1035=CARTESIAN_POINT('',(0.00239826440849397,0.00979515629638492,0.00559298754779192));
#1036=CARTESIAN_POINT('',(0.000267990671101813,0.00972122771165947,0.00561870254207493));
#1037=CARTESIAN_POINT('',(-0.00186676623400359,0.00975346658503065,0.00560748813494732));
#1038=CARTESIAN_POINT('',(-0.00399603746731075,0.0099244145813467,0.00554802857799333));
#1039=CARTESIAN_POINT('',(-0.00505159345909086,0.0100766891653804,0.00549506250848993));
#1040=CARTESIAN_POINT('',(-0.00556483643402836,0.0102036690317155,0.00545089772809897));
#1041=CARTESIAN_POINT('',(0.00557789336471179,0.0101564721093671,0.00546731404891581));
#1042=CARTESIAN_POINT('',(0.00506023396716979,0.0100287186997091,0.00551175001749249));
#1043=CARTESIAN_POINT('',(0.0040024033113008,0.00987713993958442,0.00556447306449238));
#1044=CARTESIAN_POINT('',(0.00240115710440091,0.00974681883711099,0.00560980214361358));
#1045=CARTESIAN_POINT('',(0.0002682371182927,0.00967289552680357,0.00563551459937267));
#1046=CARTESIAN_POINT('',(-0.00186871959064692,0.00970506941962199,0.00562432368013148));
#1047=CARTESIAN_POINT('',(-0.00400187899481725,0.00987630154089237,0.00556476468142875));
#1048=CARTESIAN_POINT('',(-0.00506023396716979,0.0100287186997091,0.00551175001749249));
#1049=CARTESIAN_POINT('',(-0.00557789336471179,0.0101564721093671,0.00546731404891581));
#1050=CARTESIAN_POINT('',(-0.00550706611816403,0.0103491769165158,0.00519623424594153));
#1051=CARTESIAN_POINT('',(-0.00551796016083424,0.0103467713453207,0.00531622901175625));
#1052=CARTESIAN_POINT('',(-0.00554742719311712,0.0102665982615134,0.00542900930034319));
#1053=CARTESIAN_POINT('',(-0.00557789336471179,0.0101564721093671,0.00546731404891581));
#1054=CARTESIAN_POINT('',(-0.00498704065535061,0.0122546679693406,0.00367874195310884));
#1055=CARTESIAN_POINT('',(-0.00797078590005963,0.,0.00794123515983601));
#1056=CARTESIAN_POINT('',(-0.009,0.,0.0080235193908256));
#1057=CARTESIAN_POINT('',(-0.00557789336471177,0.0101564721093671,0.00546731404891579));
#1058=CARTESIAN_POINT('',(-0.00569067921471904,0.0101833006040653,0.00545798239858712));
#1059=CARTESIAN_POINT('',(-0.00591936127782823,0.0102398806603895,0.00540376253132212));
#1060=CARTESIAN_POINT('',(-0.00620691031586125,0.0103094366360671,0.00515819534625155));
#1061=CARTESIAN_POINT('',(-0.00631725518289832,0.0103361640397453,0.00499830300834704));
#1062=CARTESIAN_POINT('',(-0.00642076591987023,0.0103588214404018,0.00479574605486709));
#1063=CARTESIAN_POINT('',(-0.00647644839280011,0.0103627222442132,0.00454488492464752));
#1064=CARTESIAN_POINT('',(-0.00647809488073702,0.0103578245968691,0.00445462516205601));
#1065=CARTESIAN_POINT('',(-0.00647860079260663,0.0103557467446513,0.00442152052393014));
#1066=CARTESIAN_POINT('',(-0.00647860079260664,0.0103557467446513,0.00442152052393014));
#1067=CARTESIAN_POINT('',(-0.00595865579359827,0.0124912351334357,0.00367874195310884));
#1068=CARTESIAN_POINT('',(-0.00550706611816656,0.0103491769165164,0.00519623424594131));
#1069=CARTESIAN_POINT('',(-0.00565194854007748,0.0103849606963875,0.00518312859704347));
#1070=CARTESIAN_POINT('',(-0.0059605898371408,0.0104836071406696,0.00500804619887375));
#1071=CARTESIAN_POINT('',(-0.00606780780959155,0.0105509872394008,0.00464216743827576));
#1072=CARTESIAN_POINT('',(-0.00606616527783122,0.0105590708809159,0.00443307504489902));
#1073=CARTESIAN_POINT('',(-0.00551251313950111,0.0103479741309187,0.0052562316288487));
#1074=CARTESIAN_POINT('',(-0.0056719210801113,0.010387468405646,0.00524232653889127));
#1075=CARTESIAN_POINT('',(-0.00601314207083658,0.0104973413416018,0.00505847022812718));
#1076=CARTESIAN_POINT('',(-0.00614342902174564,0.0105831913255713,0.00466592298292129));
#1077=CARTESIAN_POINT('',(-0.0061461036890633,0.0105942947326729,0.00443367458437196));
#1078=CARTESIAN_POINT('',(-0.00553223154749318,0.0103092282598094,0.00537454798891232));
#1079=CARTESIAN_POINT('',(-0.00572163062915724,0.0103557654345118,0.00535902307105968));
#1080=CARTESIAN_POINT('',(-0.00613235200049554,0.0104809637349488,0.00515712089729359));
#1081=CARTESIAN_POINT('',(-0.00632298353238279,0.010582698965882,0.00471006876707066));
#1082=CARTESIAN_POINT('',(-0.0063378133902885,0.0105898799433224,0.00443173102560236));
#1083=CARTESIAN_POINT('',(-0.00556266027891461,0.0102115351854403,0.00544816167462944));
#1084=CARTESIAN_POINT('',(-0.00577347386881635,0.010262187953467,0.00543097269315089));
#1085=CARTESIAN_POINT('',(-0.00623613309107422,0.0103846900594641,0.00520538075258209));
#1086=CARTESIAN_POINT('',(-0.00644604163289943,0.0104516132506197,0.00471752863912864));
#1087=CARTESIAN_POINT('',(-0.00645795083808572,0.0104405590577612,0.00442493808061955));
#1088=CARTESIAN_POINT('',(-0.00557789336471177,0.0101564721093671,0.00546731404891578));
#1089=CARTESIAN_POINT('',(-0.00579526087985436,0.0102081775602475,0.00544932954426393));
#1090=CARTESIAN_POINT('',(-0.00627444547787189,0.0103266125707793,0.0052102873699669));
#1091=CARTESIAN_POINT('',(-0.00647419246904179,0.0103738523583876,0.00470998174637227));
#1092=CARTESIAN_POINT('',(-0.00647860079260664,0.0103557467446513,0.00442152052393014));
#1093=CARTESIAN_POINT('',(-0.00606616527809324,0.0105590708796264,0.00443307507825405));
#1094=CARTESIAN_POINT('',(-0.00622604209918002,0.0106295185821769,0.00443427416458776));
#1095=CARTESIAN_POINT('',(-0.00643730088046844,0.0105253713715096,0.00442835568464259));
#1096=CARTESIAN_POINT('',(-0.00647860079190341,0.0103557467475396,0.00442152056994632));
#1097=CARTESIAN_POINT('',(-0.0062,0.0115,0.005));
#1098=CARTESIAN_POINT('',(-0.0062,0.0115,-0.008));
#1099=CARTESIAN_POINT('',(-0.009,0.,-0.008));
#1100=CARTESIAN_POINT('',(-0.00636269200338884,0.0108318007003673,-0.00799999999999841));
#1101=CARTESIAN_POINT('',(-0.009,0.,0.009));
#1102=CARTESIAN_POINT('',(-0.00636269200338884,0.0108318007003673,-0.0079999999999987));
#1103=CARTESIAN_POINT('',(-0.00640158489713568,0.0106720620296213,-0.00385953603867844));
#1104=CARTESIAN_POINT('',(-0.00644025090850212,0.0105132551972234,0.000280966057967066));
#1105=CARTESIAN_POINT('',(-0.0064786007926261,0.0103557467445714,0.00442152052393228));
#1106=CARTESIAN_POINT('',(-0.00606616527783295,0.0105590708809074,0.00443307504511907));
#1107=CARTESIAN_POINT('',(-0.00603363987025931,0.0107191431064212,0.000292628576911764));
#1108=CARTESIAN_POINT('',(-0.00599990888190478,0.0108799136341802,-0.00384779079996578));
#1109=CARTESIAN_POINT('',(-0.00596537299265507,0.0110412935356207,-0.00798818562519451));
#1110=CARTESIAN_POINT('',(-0.00614610368907697,0.0105942947326724,0.00443367458452861));
#1111=CARTESIAN_POINT('',(-0.0061133799118762,0.0107521975464434,0.000293150989183502));
#1112=CARTESIAN_POINT('',(-0.00607934636325727,0.0109113130201576,-0.0038473273532074));
#1113=CARTESIAN_POINT('',(-0.00604456268826382,0.0110711590631783,-0.00798777727403585));
#1114=CARTESIAN_POINT('',(-0.00633780176048488,0.0105898563973673,0.00443173023765002));
#1115=CARTESIAN_POINT('',(-0.0063022405205158,0.0107448728852833,0.000291111952014261));
#1116=CARTESIAN_POINT('',(-0.006265839194103,0.0109015059762996,-0.00384944864668453));
#1117=CARTESIAN_POINT('',(-0.00622893079320635,0.0110593987332777,-0.0079899628234492));
#1118=CARTESIAN_POINT('',(-0.00645795083812506,0.0104405590577006,0.00442493808061109));
#1119=CARTESIAN_POINT('',(-0.00641980931761644,0.0105970094342985,0.000284360543998916));
#1120=CARTESIAN_POINT('',(-0.00638142356312736,0.0107550018980787,-0.00385616016429373));
#1121=CARTESIAN_POINT('',(-0.00634268584901945,0.0109139688343844,-0.00799664203676761));
#1122=CARTESIAN_POINT('',(-0.0064786007926261,0.0103557467445714,0.00442152052393228));
#1123=CARTESIAN_POINT('',(-0.00644025090850212,0.0105132551972234,0.000280966057967067));
#1124=CARTESIAN_POINT('',(-0.00640158489713568,0.0106720620296213,-0.00385953603867844));
#1125=CARTESIAN_POINT('',(-0.00636269200338884,0.0108318007003673,-0.0079999999999987));
#1126=CARTESIAN_POINT('',(-0.00596537299265507,0.0110412935356207,-0.00798818562519451));
#1127=CARTESIAN_POINT('',(-0.00612375238387257,0.0111010245907359,-0.00798736892287719));
#1128=CARTESIAN_POINT('',(-0.00632267969465006,0.0109961369684015,-0.00799328407353652));
#1129=CARTESIAN_POINT('',(-0.00636269200338884,0.0108318007003673,-0.0079999999999987));
#1130=CARTESIAN_POINT('',(-0.00522838486175234,0.0112634328359049,-0.008));
#1131=CARTESIAN_POINT('',(-0.00797078590005963,0.,-0.008));
#1132=CARTESIAN_POINT('',(-0.00797078590005963,0.,-0.009));
#1133=CARTESIAN_POINT('',(-0.00636269200338882,0.0108318007003673,-0.00799999999999841));
#1134=CARTESIAN_POINT('',(-0.00636250770885976,0.0108325576243277,-0.00826179938779792));
#1135=CARTESIAN_POINT('',(-0.00615160359416158,0.0107828106486144,-0.00878331386847334));
#1136=CARTESIAN_POINT('',(-0.00564452364086326,0.0106609512948072,-0.00900000000000015));
#1137=CARTESIAN_POINT('',(-0.00538997109796383,0.0105997750800339,-0.009));
#1138=CARTESIAN_POINT('',(-0.00538997109796383,0.0105997750800339,-0.009));
#1139=CARTESIAN_POINT('',(-0.00522838486175234,0.0112634328359049,-0.009));
#1140=CARTESIAN_POINT('',(-0.00596537299265507,0.0110412935356208,-0.0079881856251947));
#1141=CARTESIAN_POINT('',(-0.00596406371295794,0.011047411560467,-0.00814515088659105));
#1142=CARTESIAN_POINT('',(-0.00585636986494042,0.0110183956836558,-0.00851202262769483));
#1143=CARTESIAN_POINT('',(-0.00552412062777929,0.0109353301761227,-0.00868772429213482));
#1144=CARTESIAN_POINT('',(-0.00532680287801277,0.0108927894550394,-0.00868765690361698));
#1145=CARTESIAN_POINT('',(-0.00604456268826382,0.0110711590631783,-0.0079877772740359));
#1146=CARTESIAN_POINT('',(-0.00604347971535909,0.0110781334790325,-0.00816388082604582));
#1147=CARTESIAN_POINT('',(-0.00591913930634349,0.0110389577643373,-0.00857434030044095));
#1148=CARTESIAN_POINT('',(-0.00554695946747634,0.0109435954573988,-0.00876784345817632));
#1149=CARTESIAN_POINT('',(-0.00532610405025081,0.0108960310626081,-0.00876818623683117));
#1150=CARTESIAN_POINT('',(-0.00622892981115266,0.0110593968742631,-0.00798996288594479));
#1151=CARTESIAN_POINT('',(-0.00622851103587579,0.0110672386741251,-0.00820391895359361));
#1152=CARTESIAN_POINT('',(-0.00606497321555909,0.01101249990011,-0.00870074732609877));
#1153=CARTESIAN_POINT('',(-0.00560823374911809,0.0108940978999644,-0.00893018738328394));
#1154=CARTESIAN_POINT('',(-0.00533916601649293,0.0108354413566173,-0.00893135735715236));
#1155=CARTESIAN_POINT('',(-0.00634268584901944,0.0109139688343844,-0.00799664203676731));
#1156=CARTESIAN_POINT('',(-0.00634184001188011,0.0109207058516562,-0.00822338373969834));
#1157=CARTESIAN_POINT('',(-0.00616283230525855,0.0108687531453005,-0.00875141330866135));
#1158=CARTESIAN_POINT('',(-0.0056641853638935,0.0107433561018991,-0.00899934550893204));
#1159=CARTESIAN_POINT('',(-0.00537298603019243,0.0106785626257539,-0.009));
#1160=CARTESIAN_POINT('',(-0.00636269200338884,0.0108318007003673,-0.00799999999999841));
#1161=CARTESIAN_POINT('',(-0.0063612175466064,0.0108378565050109,-0.0082242398319897));
#1162=CARTESIAN_POINT('',(-0.00618453329234932,0.0107899086366404,-0.00874869999296111));
#1163=CARTESIAN_POINT('',(-0.00568191062735775,0.0106651439232085,-0.00900000000000017));
#1164=CARTESIAN_POINT('',(-0.00538997109796383,0.0105997750800339,-0.009));
#1165=CARTESIAN_POINT('',(-0.00532680287851046,0.0108927894551467,-0.00868765690361715));
#1166=CARTESIAN_POINT('',(-0.00532540522310527,0.0108992726703094,-0.00884871557004346));
#1167=CARTESIAN_POINT('',(-0.00535600096315365,0.0107573501716359,-0.00899999999999669));
#1168=CARTESIAN_POINT('',(-0.00538997109870019,0.0105997750801988,-0.009));
#1169=CARTESIAN_POINT('',(-1.11022302462516E-18,0.,1.23638473196892E-18));
#1170=CARTESIAN_POINT('',(-0.0031,0.,-0.00775));
#1171=CARTESIAN_POINT('',(0.00771348237507453,0.,-0.00775));
#1172=CARTESIAN_POINT('',(-0.00771348237507453,0.,-0.00775));
#1173=CARTESIAN_POINT('',(-0.00771348237507454,0.,0.0025));
#1174=CARTESIAN_POINT('',(-0.00771348237507453,-7.40148683083438E-19,0.00767654394979501));
#1175=CARTESIAN_POINT('',(0.0031,1.11022302462516E-18,0.00767654394979501));
#1176=CARTESIAN_POINT('',(0.00771348237507453,-7.40148683083438E-19,0.00767654394979501));
#1177=CARTESIAN_POINT('',(0.00771348237507453,0.,-0.0045));
#1178=CARTESIAN_POINT('',(0.00797078590005963,0.,-0.008));
#1179=CARTESIAN_POINT('',(0.00797078590005963,0.,-0.009));
#1180=CARTESIAN_POINT('',(-0.009,0.,-0.009));
#1181=CARTESIAN_POINT('',(-0.0062,0.0115,-0.009));
#1182=CARTESIAN_POINT('',(0.00488140791835881,0.0126885167105569,-0.009));
#1183=CARTESIAN_POINT('',(0.00538997109796383,0.0105997750800339,-0.009));
#1184=CARTESIAN_POINT('',(0.00538997109796383,0.0105997750800339,-0.009));
#1185=CARTESIAN_POINT('',(0.00475978002850659,0.0104639181000272,-0.009));
#1186=CARTESIAN_POINT('',(0.0037318358565518,0.0103400927981634,-0.009));
#1187=CARTESIAN_POINT('',(0.0016750445483874,0.0101957570914295,-0.009));
#1188=CARTESIAN_POINT('',(-0.000259912730237267,0.0101628923470841,-0.009));
#1189=CARTESIAN_POINT('',(-0.0028306967100057,0.0102576910888961,-0.009));
#1190=CARTESIAN_POINT('',(-0.00438166538683225,0.0103824039120233,-0.009));
#1191=CARTESIAN_POINT('',(-0.00538997109796383,0.0105997750800339,-0.009));
#1192=CARTESIAN_POINT('',(-0.0053268028780126,0.0108927894550394,-0.00868765690361698));
#1193=CARTESIAN_POINT('',(-0.00435510516558009,0.0106832962826777,-0.00868732504665742));
#1194=CARTESIAN_POINT('',(-0.00280941427470678,0.0105565315846733,-0.00868741148094711));
#1195=CARTESIAN_POINT('',(-0.000260545434997644,0.0104633667651353,-0.00868734265271945));
#1196=CARTESIAN_POINT('',(0.00166598484009272,0.0104957652595185,-0.00868736229328562));
#1197=CARTESIAN_POINT('',(0.00370258246413461,0.010638658143798,-0.00868742307152089));
#1198=CARTESIAN_POINT('',(0.00471949180774228,0.0107618562223133,-0.00868744949301725));
#1199=CARTESIAN_POINT('',(0.0053268028780126,0.0108927894550394,-0.00868765690361698));
#1200=CARTESIAN_POINT('',(-0.00532610405025069,0.0108960310626081,-0.00876818623683117));
#1201=CARTESIAN_POINT('',(-0.00435487793341612,0.0106867352690721,-0.00876790576359627));
#1202=CARTESIAN_POINT('',(-0.0028091608396949,0.0105599080111829,-0.00876797893803564));
#1203=CARTESIAN_POINT('',(-0.000260580964554668,0.0104667849714597,-0.00876792075653));
#1204=CARTESIAN_POINT('',(0.00166592024273279,0.0104991734821443,-0.00876793733536328));
#1205=CARTESIAN_POINT('',(0.0037022515995979,0.0106420302119636,-0.00876798870690564));
#1206=CARTESIAN_POINT('',(0.00471908772722908,0.0107652211916481,-0.00876801094105936));
#1207=CARTESIAN_POINT('',(0.00532610405025069,0.0108960310626081,-0.00876818623683117));
#1208=CARTESIAN_POINT('',(-0.00533916561216051,0.0108354432321681,-0.0089313591984106));
#1209=CARTESIAN_POINT('',(-0.00436022180145558,0.0106245679371841,-0.00893125897174102));
#1210=CARTESIAN_POINT('',(-0.0028135827055694,0.0104981730982164,-0.00893128549247906));
#1211=CARTESIAN_POINT('',(-0.000260398956105959,0.010404721199109,-0.00893126467600783));
#1212=CARTESIAN_POINT('',(0.00166772714696088,0.0104372005233778,-0.00893127054835725));
#1213=CARTESIAN_POINT('',(0.00370829803818741,0.0105803453926926,-0.00893128889636211));
#1214=CARTESIAN_POINT('',(0.00472732573046992,0.0107036461728031,-0.00893129655674212));
#1215=CARTESIAN_POINT('',(0.00533916561216051,0.0108354432321681,-0.0089313591984106));
#1216=CARTESIAN_POINT('',(-0.00537298603019243,0.0106785626257539,-0.009));
#1217=CARTESIAN_POINT('',(-0.00437453143927688,0.0104633724197132,-0.00900000195332689));
#1218=CARTESIAN_POINT('',(-0.00282496888729421,0.0103380895493751,-0.00900000023506461));
#1219=CARTESIAN_POINT('',(-0.000260088243990949,0.0102437433518338,-0.00900000071897859));
#1220=CARTESIAN_POINT('',(0.00167261482515145,0.0102764794130182,-0.00900000076653202));
#1221=CARTESIAN_POINT('',(0.003723966051266,0.0104204154916206,-0.00900000045320519));
#1222=CARTESIAN_POINT('',(0.00474895191087021,0.0105440687469785,-0.00900000122082931));
#1223=CARTESIAN_POINT('',(0.00537298603019243,0.0106785626257539,-0.009));
#1224=CARTESIAN_POINT('',(-0.00538997109796383,0.0105997750800339,-0.009));
#1225=CARTESIAN_POINT('',(-0.00438166538683225,0.0103824039120233,-0.009));
#1226=CARTESIAN_POINT('',(-0.0028306967100057,0.0102576910888961,-0.009));
#1227=CARTESIAN_POINT('',(-0.000259912730237267,0.0101628923470841,-0.009));
#1228=CARTESIAN_POINT('',(0.0016750445483874,0.0101957570914295,-0.009));
#1229=CARTESIAN_POINT('',(0.0037318358565518,0.0103400927981634,-0.009));
#1230=CARTESIAN_POINT('',(0.00475978002850659,0.0104639181000272,-0.009));
#1231=CARTESIAN_POINT('',(0.00538997109796383,0.0105997750800339,-0.009));
#1232=CARTESIAN_POINT('',(0.0053268028780126,0.0108927894550394,-0.00868765690361698));
#1233=CARTESIAN_POINT('',(0.00532540522248878,0.0108992726701768,-0.00884871557004536));
#1234=CARTESIAN_POINT('',(0.00535600096242103,0.0107573501714739,-0.009));
#1235=CARTESIAN_POINT('',(0.00538997109796383,0.0105997750800339,-0.009));
#1236=CARTESIAN_POINT('',(0.00488140791835881,0.0126885167105569,-0.008));
#1237=CARTESIAN_POINT('',(0.00538997109796383,0.0105997750800339,-0.009));
#1238=CARTESIAN_POINT('',(0.00564452364086327,0.0106609512948072,-0.00900000000000015));
#1239=CARTESIAN_POINT('',(0.00615160359416158,0.0107828106486144,-0.00878331386847333));
#1240=CARTESIAN_POINT('',(0.00636250770885976,0.0108325576243277,-0.00826179938779791));
#1241=CARTESIAN_POINT('',(0.00636269200338882,0.0108318007003673,-0.00799999999999841));
#1242=CARTESIAN_POINT('',(0.00532680287801277,0.0108927894550394,-0.00868765690361698));
#1243=CARTESIAN_POINT('',(0.00547479222367894,0.0109246952186351,-0.00868770744535827));
#1244=CARTESIAN_POINT('',(0.00581488019822927,0.0110055651116825,-0.00855978212985661));
#1245=CARTESIAN_POINT('',(0.00596362727420269,0.0110494509590419,-0.00819747410175462));
#1246=CARTESIAN_POINT('',(0.00596537299265507,0.0110412935356208,-0.0079881856251947));
#1247=CARTESIAN_POINT('',(0.00532610405025081,0.0108960310626081,-0.00876818623683117));
#1248=CARTESIAN_POINT('',(0.00549174676977659,0.010931704607793,-0.00876792915104492));
#1249=CARTESIAN_POINT('',(0.00587203932680345,0.0110232996548297,-0.00862702552846446));
#1250=CARTESIAN_POINT('',(0.00604311871430825,0.0110804583492498,-0.0082225836495936));
#1251=CARTESIAN_POINT('',(0.00604456268826382,0.0110711590631783,-0.0079877772740359));
#1252=CARTESIAN_POINT('',(0.00533916601649285,0.0108354413566176,-0.00893135735715273));
#1253=CARTESIAN_POINT('',(0.00554096822505337,0.0108794340713088,-0.00893047987062433));
#1254=CARTESIAN_POINT('',(0.00600513613670757,0.0109922794469394,-0.00876344589843896));
#1255=CARTESIAN_POINT('',(0.00622837144021828,0.0110698526804211,-0.00827523963476567));
#1256=CARTESIAN_POINT('',(0.00622892981115297,0.0110593968742636,-0.00798996288594478));
#1257=CARTESIAN_POINT('',(0.00537298603019243,0.0106785626257539,-0.009));
#1258=CARTESIAN_POINT('',(0.00559138705546175,0.0107271580721824,-0.0089995091282715));
#1259=CARTESIAN_POINT('',(0.00609738059427712,0.0108488778521787,-0.00881887103103012));
#1260=CARTESIAN_POINT('',(0.00634155805829216,0.0109229515868025,-0.00829896641833355));
#1261=CARTESIAN_POINT('',(0.00634268584901945,0.0109139688343844,-0.00799664203676731));
#1262=CARTESIAN_POINT('',(0.00538997109796383,0.0105997750800339,-0.009));
#1263=CARTESIAN_POINT('',(0.00560892727387915,0.0106488020547476,-0.00900000000000013));
#1264=CARTESIAN_POINT('',(0.00611889485106849,0.0107708546304464,-0.00881701074164068));
#1265=CARTESIAN_POINT('',(0.00636072604728489,0.0108398751629391,-0.00829898853035229));
#1266=CARTESIAN_POINT('',(0.00636269200338884,0.0108318007003673,-0.00799999999999841));
#1267=CARTESIAN_POINT('',(-0.00498548107719043,0.0112042910448811,0.005));
#1268=CARTESIAN_POINT('',(-0.00476165334016975,0.0121235835362161,0.00345964532850246));
#1269=CARTESIAN_POINT('',(-0.00549916185218993,0.00909453071893355,0.00451322891712247));
#1270=CARTESIAN_POINT('',(-0.00498548107719043,0.0112042910448811,-0.00775));
#1271=CARTESIAN_POINT('',(-0.00537920983578132,0.00958718903828251,-0.00775));
#1272=CARTESIAN_POINT('',(-0.00549916185237942,0.00909453071897978,0.00451322891712435));
#1273=CARTESIAN_POINT('',(-0.0054592336751282,0.00925852144697588,0.000425476210499622));
#1274=CARTESIAN_POINT('',(-0.00541924813330409,0.00942274777869994,-0.0036622664699646));
#1275=CARTESIAN_POINT('',(-0.00537921024575432,0.00958718910256505,-0.00775000000139814));
#1276=CARTESIAN_POINT('',(0.00498548107719043,0.0112042910448811,-0.009));
#1277=CARTESIAN_POINT('',(0.00457078909518288,0.0129074902566979,0.00318698212137836));
#1278=CARTESIAN_POINT('',(0.00549916185219973,0.00909453071895004,0.00451322891711674));
#1279=CARTESIAN_POINT('',(0.00537921110512423,0.00958718558358918,-0.00775000043581636));
#1280=CARTESIAN_POINT('',(0.00541924843188324,0.00942274656297183,-0.00366226671142156));
#1281=CARTESIAN_POINT('',(0.00545923367402355,0.00925852145074502,0.000425476115846357));
#1282=CARTESIAN_POINT('',(0.00549916185219973,0.00909453071894999,0.00451322891711858));
#1283=CARTESIAN_POINT('',(0.00537921109985906,0.00958718559463499,-0.00775000043535106));
#1284=CARTESIAN_POINT('',(0.0046385041337969,0.0126293749195332,-0.00775));
#1285=CARTESIAN_POINT('',(-0.0062,0.0115,-0.00775));
#1286=CARTESIAN_POINT('',(-0.00537920983998649,0.00958718903152881,-0.0077500000002845));
#1287=CARTESIAN_POINT('',(-0.00449264248657443,0.00941552206935408,-0.0077500000002845));
#1288=CARTESIAN_POINT('',(-0.00270146223372964,0.00924962014609154,-0.00774999999986791));
#1289=CARTESIAN_POINT('',(9.23143051320277E-8,0.00916800503264709,-0.00775000000003556));
#1290=CARTESIAN_POINT('',(0.00270172509023204,0.00924929812828799,-0.00774999999998984));
#1291=CARTESIAN_POINT('',(0.00449264471985879,0.00941546515890581,-0.00775));
#1292=CARTESIAN_POINT('',(0.0053792111063183,0.00958718555337666,-0.00775));
#1293=CARTESIAN_POINT('',(3.53914054777927E-17,0.0544681939568284,0.00190076397055331));
#1294=CARTESIAN_POINT('',(4.39355276041133E-17,0.0544640136845257,0.002));
#1295=CARTESIAN_POINT('',(0.000550000293720072,0.0087881709055984,0.002));
#1296=CARTESIAN_POINT('',(-0.000550000293720014,0.0087881709055984,0.002));
#1297=CARTESIAN_POINT('',(-0.000550000587440202,0.00887325834824147,-1.99018151563059E-5));
#1298=CARTESIAN_POINT('',(-0.000550000293720074,0.00884714526457276,0.0006));
#1299=CARTESIAN_POINT('',(-7.66030614904363E-17,0.0545229880435001,0.0006));
#1300=CARTESIAN_POINT('',(-0.002,0.0088877105406727,0.0006));
#1301=CARTESIAN_POINT('',(-0.002,0.00888771091295744,0.000599991162284001));
#1302=CARTESIAN_POINT('',(-0.00200000000000005,0.00893825999122214,-0.0006));
#1303=CARTESIAN_POINT('',(-1.79921852142907E-16,0.0545735374940495,-0.0006));
#1304=CARTESIAN_POINT('',(-0.000550000293720014,0.00889769471512221,-0.0006));
#1305=CARTESIAN_POINT('',(-0.000550000587439978,0.00887325834824147,-1.99018151563059E-5));
#1306=CARTESIAN_POINT('',(-0.000550000293720074,0.00895666907409656,-0.002));
#1307=CARTESIAN_POINT('',(-3.00460441237456E-16,0.0546325118530239,-0.002));
#1308=CARTESIAN_POINT('',(0.000550000293720021,0.00895666907409657,-0.002));
#1309=CARTESIAN_POINT('',(0.000550000587440213,0.00887325834824147,-1.99018151564002E-5));
#1310=CARTESIAN_POINT('',(0.000550000293720081,0.00889769471512221,-0.0006));
#1311=CARTESIAN_POINT('',(-1.79921852142907E-16,0.0545735374940495,-0.0006));
#1312=CARTESIAN_POINT('',(0.002,0.00893825999122214,-0.0006));
#1313=CARTESIAN_POINT('',(0.002,0.00893826036350688,-0.000600008837716003));
#1314=CARTESIAN_POINT('',(0.00200000000000005,0.00888771054067269,0.0006));
#1315=CARTESIAN_POINT('',(-7.66030614904363E-17,0.0545229880435001,0.0006));
#1316=CARTESIAN_POINT('',(0.000550000293720012,0.00884714526457276,0.0006));
#1317=CARTESIAN_POINT('',(0.000550000587439969,0.00887325834824147,-1.99018151564002E-5));
#1318=CARTESIAN_POINT('',(0.0062,0.0110893492188234,0.0038193790041173));
#1319=CARTESIAN_POINT('',(0.00549916185238036,0.0090945307189871,0.0045132289171183));
#1320=CARTESIAN_POINT('',(0.00459590107720752,0.00890617934626441,0.00457874243806532));
#1321=CARTESIAN_POINT('',(0.0027648851386686,0.00873040271929307,0.00463988213438201));
#1322=CARTESIAN_POINT('',(2.47893626177908E-9,0.0086432750871602,0.00467018739774109));
#1323=CARTESIAN_POINT('',(-0.00276488256345882,0.00873082628908512,0.00463973480576488));
#1324=CARTESIAN_POINT('',(-0.00459564495616713,0.00890612593893711,0.00457876101451254));
#1325=CARTESIAN_POINT('',(-0.00549916185237229,0.00909453071898605,0.00451322891710421));
#1326=CARTESIAN_POINT('',(-0.00554682774603271,0.00909411189296419,0.00475845225675956));
#1327=CARTESIAN_POINT('',(-0.00554682774603268,0.00962410705871882,-0.00782317211289426));
#1328=CARTESIAN_POINT('',(-0.00488081671078,0.00895424818010333,0.00475256056189545));
#1329=CARTESIAN_POINT('',(-0.00488081671077997,0.00948424334585796,-0.00782906380775836));
#1330=CARTESIAN_POINT('',(-0.0032047329091159,0.00874467981752359,0.00474373259057799));
#1331=CARTESIAN_POINT('',(-0.00320473290911587,0.00927467498327822,-0.00783789177907582));
#1332=CARTESIAN_POINT('',(1.1383684999634E-6,0.00863131679601209,0.00473895722520297));
#1333=CARTESIAN_POINT('',(1.13836849999096E-6,0.00916131196176672,-0.00784266714445084));
#1334=CARTESIAN_POINT('',(0.00320273964212681,0.00874404122362397,0.00474370569010237));
#1335=CARTESIAN_POINT('',(0.00320273964212683,0.00927403638937861,-0.00783791867955144));
#1336=CARTESIAN_POINT('',(0.00488085796916431,0.0089542727723891,0.00475256159783424));
#1337=CARTESIAN_POINT('',(0.00488085796916434,0.00948426793814373,-0.00782906277181958));
#1338=CARTESIAN_POINT('',(0.00554682622100862,0.00909411097554142,0.00475845221811354));
#1339=CARTESIAN_POINT('',(0.00554682622100865,0.00962410614129606,-0.00782317215154027));
#1340=CARTESIAN_POINT('',(-0.00117357676878604,0.00898558905441949,-0.00287357087845552));
#1341=CARTESIAN_POINT('',(-0.00286404786316164,0.00900998947122393,-0.00119667760204132));
#1342=CARTESIAN_POINT('',(-0.00286917318596664,0.00891055114478699,0.00117778059196396));
#1343=CARTESIAN_POINT('',(-0.00120305773407956,0.00874504000410102,0.00285974797775435));
#1344=CARTESIAN_POINT('',(0.00117535613433955,0.00874465612588754,0.00287229911472875));
#1345=CARTESIAN_POINT('',(0.00285954429037777,0.00890829292295626,0.00120152071795419));
#1346=CARTESIAN_POINT('',(0.00287416009150948,0.00900930390291951,-0.00116905379239811));
#1347=CARTESIAN_POINT('',(0.001203453611107,0.00898703348978452,-0.00286073426186203));
#1348=CARTESIAN_POINT('',(-0.00117357676878604,0.00898558905441949,-0.00287357087845552));
#1349=CARTESIAN_POINT('',(-0.00286404786316164,0.00900998947122393,-0.00119667760204132));
#1350=CARTESIAN_POINT('',(-0.00286917318596664,0.00891055114478699,0.00117778059196396));
#1351=CARTESIAN_POINT('',(-0.00258315690120733,0.00898934968068137,-0.0010804167824247));
#1352=CARTESIAN_POINT('',(-1.11022302462516E-18,0.,1.23638473196892E-18));
#1353=CARTESIAN_POINT('',(0.00055,0.,-0.0006));
#1354=CARTESIAN_POINT('',(0.00055,0.,-0.002));
#1355=CARTESIAN_POINT('',(0.00055,0.,-0.0006));
#1356=CARTESIAN_POINT('',(0.00055,0.,-0.002));
#1357=CARTESIAN_POINT('',(-0.00055,0.,-0.002));
#1358=CARTESIAN_POINT('',(-0.00055,0.,-0.002));
#1359=CARTESIAN_POINT('',(-0.00055,0.,-0.0006));
#1360=CARTESIAN_POINT('',(-0.00055,0.,-0.0006));
#1361=CARTESIAN_POINT('',(-0.002,0.,-0.0006));
#1362=CARTESIAN_POINT('',(-0.002,0.,-0.0006));
#1363=CARTESIAN_POINT('',(-0.002,0.,0.0006));
#1364=CARTESIAN_POINT('',(-0.002,0.,0.0006));
#1365=CARTESIAN_POINT('',(-0.00055,0.,0.0006));
#1366=CARTESIAN_POINT('',(-0.00055,0.,0.0006));
#1367=CARTESIAN_POINT('',(-0.00055,0.,0.002));
#1368=CARTESIAN_POINT('',(-0.00055,0.,0.002));
#1369=CARTESIAN_POINT('',(0.00055,0.,0.002));
#1370=CARTESIAN_POINT('',(0.00055,0.,0.002));
#1371=CARTESIAN_POINT('',(0.00055,0.,0.0006));
#1372=CARTESIAN_POINT('',(0.00055,0.,0.0006));
#1373=CARTESIAN_POINT('',(0.002,0.,0.0006));
#1374=CARTESIAN_POINT('',(0.002,0.,0.0006));
#1375=CARTESIAN_POINT('',(0.002,0.,-0.0006));
#1376=CARTESIAN_POINT('',(0.002,0.,-0.0006));
#1377=CARTESIAN_POINT('',(4.16333568059985E-20,0.,2.22044604925031E-18));
#1378=CARTESIAN_POINT('',(0.0028,0.,2.22044604925031E-18));
#1379=CARTESIAN_POINT('',(0.00055,0.,-0.002));
#1380=CARTESIAN_POINT('',(0.00055,0.,-0.002));
#1381=CARTESIAN_POINT('',(0.00055,0.,-0.0006));
#1382=CARTESIAN_POINT('',(-0.002,0.,-0.0006));
#1383=CARTESIAN_POINT('',(0.002,0.,-0.0006));
#1384=CARTESIAN_POINT('',(0.002,0.,-0.0006));
#1385=CARTESIAN_POINT('',(0.002,0.,0.0006));
#1386=CARTESIAN_POINT('',(-0.00055,0.,0.0006));
#1387=CARTESIAN_POINT('',(0.00055,0.,0.0006));
#1388=CARTESIAN_POINT('',(0.00055,0.,-0.002));
#1389=CARTESIAN_POINT('',(0.00055,0.,0.002));
#1390=CARTESIAN_POINT('',(-0.00055,0.,-0.002));
#1391=CARTESIAN_POINT('',(-0.00055,0.,-0.002));
#1392=CARTESIAN_POINT('',(4.16333568059985E-20,0.,2.22044604925031E-18));
#1393=CARTESIAN_POINT('',(0.00055,0.,0.002));
#1394=CARTESIAN_POINT('',(-0.00055,0.,0.002));
#1395=CARTESIAN_POINT('',(-0.00055,0.,-0.0006));
#1396=CARTESIAN_POINT('',(-0.00055,0.,0.0006));
#1397=CARTESIAN_POINT('',(-0.00055,0.,0.0006));
#1398=CARTESIAN_POINT('',(-0.002,0.,0.0006));
#1399=CARTESIAN_POINT('',(-0.002,0.,0.0006));
#1400=CARTESIAN_POINT('',(-0.002,0.,-0.0006));
#1401=CARTESIAN_POINT('',(-0.002,0.,-0.0006));
#1402=CARTESIAN_POINT('',(-0.00055,0.,-0.0006));
#1403=CARTESIAN_POINT('',(-0.00055,0.,-0.0006));
#1404=MECHANICAL_DESIGN_GEOMETRIC_PRESENTATION_REPRESENTATION('',(#641),
#1405);
#1405=(
GEOMETRIC_REPRESENTATION_CONTEXT(3)
GLOBAL_UNCERTAINTY_ASSIGNED_CONTEXT((#1406))
GLOBAL_UNIT_ASSIGNED_CONTEXT((#1409,#1408,#1407))
REPRESENTATION_CONTEXT('1x1 R4 v6','TOP_LEVEL_ASSEMBLY_PART')
);
#1406=UNCERTAINTY_MEASURE_WITH_UNIT(LENGTH_MEASURE(4.03520072162219E-5),
#1409,'DISTANCE_ACCURACY_VALUE','Maximum Tolerance applied to model');
#1407=(
NAMED_UNIT(*)
SI_UNIT($,.STERADIAN.)
SOLID_ANGLE_UNIT()
);
#1408=(
NAMED_UNIT(*)
PLANE_ANGLE_UNIT()
SI_UNIT($,.RADIAN.)
);
#1409=(
LENGTH_UNIT()
NAMED_UNIT(*)
SI_UNIT($,.METRE.)
);
#1410=PRODUCT_DEFINITION_SHAPE('','',#1411);
#1411=PRODUCT_DEFINITION('','',#1413,#1412);
#1412=PRODUCT_DEFINITION_CONTEXT('',#1419,'design');
#1413=PRODUCT_DEFINITION_FORMATION_WITH_SPECIFIED_SOURCE('','',#1415,
 .NOT_KNOWN.);
#1414=PRODUCT_RELATED_PRODUCT_CATEGORY('','',(#1415));
#1415=PRODUCT('1x1 R4 v6','1x1 R4 v6','1x1 R4 v6',(#1417));
#1416=PRODUCT_CATEGORY('','');
#1417=PRODUCT_CONTEXT('',#1419,'mechanical');
#1418=APPLICATION_PROTOCOL_DEFINITION('international standard',
'ap242_managed_model_based_3d_engineering',2020,#1419);
#1419=APPLICATION_CONTEXT('managed model based 3d engineering');
ENDSEC;
END-ISO-10303-21;
