ISO-10303-21;
HEADER;
/* Generated by software containing ST-Developer
 * from STEP Tools, Inc. (www.steptools.com) 
 */
/* OPTION: using custom renumber hook */

FILE_DESCRIPTION(
/* description */ ('STEP AP242 Edition 2',
'CAx-IF Rec.Pracs.---Representation and Presentation of Product Manufa
cturing Information (PMI)---4.0---2014-10-13',
'CAx-IF Rec.Pracs.---3D Tessellated Geometry---0.4---2014-09-14','2;1',
'CAx-IF Rec.Pracs.---User Defined Attributes---1.5---2016-08-15'),
/* implementation_level */ '2;1');

FILE_NAME(
/* name */ 'Case - Part 2',
/* time_stamp */ '2026-06-03T03:37:23Z',
/* author */ (''),
/* organization */ (''),
/* preprocessor_version */ 'ST-DEVELOPER v20',
/* originating_system */ 'ONSHAPE BY PTC INC, 1.215',
/* authorisation */ '  ');

FILE_SCHEMA (('AP242_MANAGED_MODEL_BASED_3D_ENGINEERING_MIM_LF { 1 0 10303 442 3 1 4 }'));
ENDSEC;

DATA;
#10=SHAPE_REPRESENTATION_RELATIONSHIP('','',#431,#11);
#11=ADVANCED_BREP_SHAPE_REPRESENTATION('',(#429),#703);
#12=CYLINDRICAL_SURFACE('',#448,0.001);
#13=CYLINDRICAL_SURFACE('',#451,0.001);
#14=CYLINDRICAL_SURFACE('',#461,0.001);
#15=CYLINDRICAL_SURFACE('',#462,0.001);
#16=CYLINDRICAL_SURFACE('',#463,0.001);
#17=CYLINDRICAL_SURFACE('',#464,0.001);
#18=CIRCLE('',#434,0.001);
#19=CIRCLE('',#435,0.001);
#20=CIRCLE('',#436,0.001);
#21=CIRCLE('',#437,0.001);
#22=CIRCLE('',#439,0.001);
#23=CIRCLE('',#440,0.001);
#24=CIRCLE('',#443,0.001);
#25=CIRCLE('',#444,0.001);
#26=CIRCLE('',#449,0.001);
#27=CIRCLE('',#452,0.001);
#28=CIRCLE('',#455,0.001);
#29=CIRCLE('',#456,0.001);
#30=ORIENTED_EDGE('',*,*,#146,.F.);
#31=ORIENTED_EDGE('',*,*,#147,.T.);
#32=ORIENTED_EDGE('',*,*,#148,.T.);
#33=ORIENTED_EDGE('',*,*,#149,.F.);
#34=ORIENTED_EDGE('',*,*,#150,.T.);
#35=ORIENTED_EDGE('',*,*,#151,.F.);
#36=ORIENTED_EDGE('',*,*,#152,.F.);
#37=ORIENTED_EDGE('',*,*,#153,.T.);
#38=ORIENTED_EDGE('',*,*,#154,.T.);
#39=ORIENTED_EDGE('',*,*,#155,.T.);
#40=ORIENTED_EDGE('',*,*,#156,.F.);
#41=ORIENTED_EDGE('',*,*,#157,.F.);
#42=ORIENTED_EDGE('',*,*,#158,.T.);
#43=ORIENTED_EDGE('',*,*,#159,.T.);
#44=ORIENTED_EDGE('',*,*,#156,.T.);
#45=ORIENTED_EDGE('',*,*,#160,.F.);
#46=ORIENTED_EDGE('',*,*,#161,.F.);
#47=ORIENTED_EDGE('',*,*,#162,.F.);
#48=ORIENTED_EDGE('',*,*,#163,.T.);
#49=ORIENTED_EDGE('',*,*,#164,.F.);
#50=ORIENTED_EDGE('',*,*,#165,.T.);
#51=ORIENTED_EDGE('',*,*,#166,.F.);
#52=ORIENTED_EDGE('',*,*,#167,.T.);
#53=ORIENTED_EDGE('',*,*,#162,.T.);
#54=ORIENTED_EDGE('',*,*,#168,.F.);
#55=ORIENTED_EDGE('',*,*,#154,.F.);
#56=ORIENTED_EDGE('',*,*,#169,.T.);
#57=ORIENTED_EDGE('',*,*,#170,.F.);
#58=ORIENTED_EDGE('',*,*,#171,.T.);
#59=ORIENTED_EDGE('',*,*,#172,.T.);
#60=ORIENTED_EDGE('',*,*,#173,.T.);
#61=ORIENTED_EDGE('',*,*,#166,.T.);
#62=ORIENTED_EDGE('',*,*,#174,.F.);
#63=ORIENTED_EDGE('',*,*,#175,.T.);
#64=ORIENTED_EDGE('',*,*,#148,.F.);
#65=ORIENTED_EDGE('',*,*,#176,.T.);
#66=ORIENTED_EDGE('',*,*,#177,.T.);
#67=ORIENTED_EDGE('',*,*,#178,.T.);
#68=ORIENTED_EDGE('',*,*,#179,.F.);
#69=ORIENTED_EDGE('',*,*,#180,.T.);
#70=ORIENTED_EDGE('',*,*,#146,.T.);
#71=ORIENTED_EDGE('',*,*,#181,.T.);
#72=ORIENTED_EDGE('',*,*,#182,.F.);
#73=ORIENTED_EDGE('',*,*,#183,.T.);
#74=ORIENTED_EDGE('',*,*,#152,.T.);
#75=ORIENTED_EDGE('',*,*,#184,.F.);
#76=ORIENTED_EDGE('',*,*,#151,.T.);
#77=ORIENTED_EDGE('',*,*,#185,.F.);
#78=ORIENTED_EDGE('',*,*,#186,.F.);
#79=ORIENTED_EDGE('',*,*,#184,.T.);
#80=ORIENTED_EDGE('',*,*,#150,.F.);
#81=ORIENTED_EDGE('',*,*,#187,.F.);
#82=ORIENTED_EDGE('',*,*,#188,.T.);
#83=ORIENTED_EDGE('',*,*,#185,.T.);
#84=ORIENTED_EDGE('',*,*,#149,.T.);
#85=ORIENTED_EDGE('',*,*,#178,.F.);
#86=ORIENTED_EDGE('',*,*,#189,.F.);
#87=ORIENTED_EDGE('',*,*,#187,.T.);
#88=ORIENTED_EDGE('',*,*,#190,.T.);
#89=ORIENTED_EDGE('',*,*,#191,.T.);
#90=ORIENTED_EDGE('',*,*,#158,.F.);
#91=ORIENTED_EDGE('',*,*,#192,.T.);
#92=ORIENTED_EDGE('',*,*,#170,.T.);
#93=ORIENTED_EDGE('',*,*,#193,.T.);
#94=ORIENTED_EDGE('',*,*,#177,.F.);
#95=ORIENTED_EDGE('',*,*,#194,.T.);
#96=ORIENTED_EDGE('',*,*,#179,.T.);
#97=ORIENTED_EDGE('',*,*,#195,.T.);
#98=ORIENTED_EDGE('',*,*,#182,.T.);
#99=ORIENTED_EDGE('',*,*,#186,.T.);
#100=ORIENTED_EDGE('',*,*,#188,.F.);
#101=ORIENTED_EDGE('',*,*,#189,.T.);
#102=ORIENTED_EDGE('',*,*,#164,.T.);
#103=ORIENTED_EDGE('',*,*,#196,.T.);
#104=ORIENTED_EDGE('',*,*,#172,.F.);
#105=ORIENTED_EDGE('',*,*,#197,.T.);
#106=ORIENTED_EDGE('',*,*,#157,.T.);
#107=ORIENTED_EDGE('',*,*,#198,.T.);
#108=ORIENTED_EDGE('',*,*,#199,.F.);
#109=ORIENTED_EDGE('',*,*,#200,.T.);
#110=ORIENTED_EDGE('',*,*,#199,.T.);
#111=ORIENTED_EDGE('',*,*,#201,.T.);
#112=ORIENTED_EDGE('',*,*,#190,.F.);
#113=ORIENTED_EDGE('',*,*,#202,.T.);
#114=ORIENTED_EDGE('',*,*,#155,.F.);
#115=ORIENTED_EDGE('',*,*,#175,.F.);
#116=ORIENTED_EDGE('',*,*,#203,.T.);
#117=ORIENTED_EDGE('',*,*,#160,.T.);
#118=ORIENTED_EDGE('',*,*,#174,.T.);
#119=ORIENTED_EDGE('',*,*,#168,.T.);
#120=ORIENTED_EDGE('',*,*,#161,.T.);
#121=ORIENTED_EDGE('',*,*,#203,.F.);
#122=ORIENTED_EDGE('',*,*,#194,.F.);
#123=ORIENTED_EDGE('',*,*,#176,.F.);
#124=ORIENTED_EDGE('',*,*,#147,.F.);
#125=ORIENTED_EDGE('',*,*,#180,.F.);
#126=ORIENTED_EDGE('',*,*,#195,.F.);
#127=ORIENTED_EDGE('',*,*,#181,.F.);
#128=ORIENTED_EDGE('',*,*,#153,.F.);
#129=ORIENTED_EDGE('',*,*,#183,.F.);
#130=ORIENTED_EDGE('',*,*,#173,.F.);
#131=ORIENTED_EDGE('',*,*,#196,.F.);
#132=ORIENTED_EDGE('',*,*,#163,.F.);
#133=ORIENTED_EDGE('',*,*,#167,.F.);
#134=ORIENTED_EDGE('',*,*,#171,.F.);
#135=ORIENTED_EDGE('',*,*,#192,.F.);
#136=ORIENTED_EDGE('',*,*,#165,.F.);
#137=ORIENTED_EDGE('',*,*,#197,.F.);
#138=ORIENTED_EDGE('',*,*,#191,.F.);
#139=ORIENTED_EDGE('',*,*,#201,.F.);
#140=ORIENTED_EDGE('',*,*,#198,.F.);
#141=ORIENTED_EDGE('',*,*,#159,.F.);
#142=ORIENTED_EDGE('',*,*,#200,.F.);
#143=ORIENTED_EDGE('',*,*,#202,.F.);
#144=ORIENTED_EDGE('',*,*,#193,.F.);
#145=ORIENTED_EDGE('',*,*,#169,.F.);
#146=EDGE_CURVE('',#204,#205,#242,.T.);
#147=EDGE_CURVE('',#204,#206,#18,.T.);
#148=EDGE_CURVE('',#206,#207,#243,.T.);
#149=EDGE_CURVE('',#208,#207,#19,.F.);
#150=EDGE_CURVE('',#208,#209,#244,.T.);
#151=EDGE_CURVE('',#210,#209,#20,.F.);
#152=EDGE_CURVE('',#211,#210,#245,.T.);
#153=EDGE_CURVE('',#211,#205,#21,.T.);
#154=EDGE_CURVE('',#212,#213,#246,.T.);
#155=EDGE_CURVE('',#213,#214,#247,.T.);
#156=EDGE_CURVE('',#215,#214,#248,.T.);
#157=EDGE_CURVE('',#212,#215,#249,.T.);
#158=EDGE_CURVE('',#216,#217,#250,.T.);
#159=EDGE_CURVE('',#217,#215,#251,.T.);
#160=EDGE_CURVE('',#218,#214,#252,.T.);
#161=EDGE_CURVE('',#219,#218,#253,.T.);
#162=EDGE_CURVE('',#220,#219,#254,.T.);
#163=EDGE_CURVE('',#220,#221,#22,.F.);
#164=EDGE_CURVE('',#222,#221,#255,.T.);
#165=EDGE_CURVE('',#222,#216,#23,.F.);
#166=EDGE_CURVE('',#223,#224,#256,.T.);
#167=EDGE_CURVE('',#223,#220,#257,.T.);
#168=EDGE_CURVE('',#224,#219,#258,.T.);
#169=EDGE_CURVE('',#212,#225,#259,.T.);
#170=EDGE_CURVE('',#226,#225,#260,.T.);
#171=EDGE_CURVE('',#226,#227,#24,.T.);
#172=EDGE_CURVE('',#227,#228,#261,.T.);
#173=EDGE_CURVE('',#228,#223,#25,.T.);
#174=EDGE_CURVE('',#229,#224,#262,.T.);
#175=EDGE_CURVE('',#229,#213,#263,.T.);
#176=EDGE_CURVE('',#206,#230,#264,.F.);
#177=EDGE_CURVE('',#230,#231,#265,.T.);
#178=EDGE_CURVE('',#231,#207,#266,.T.);
#179=EDGE_CURVE('',#232,#233,#267,.T.);
#180=EDGE_CURVE('',#232,#204,#268,.T.);
#181=EDGE_CURVE('',#205,#233,#269,.F.);
#182=EDGE_CURVE('',#234,#235,#270,.T.);
#183=EDGE_CURVE('',#234,#211,#271,.T.);
#184=EDGE_CURVE('',#235,#210,#272,.T.);
#185=EDGE_CURVE('',#236,#209,#273,.T.);
#186=EDGE_CURVE('',#235,#236,#26,.F.);
#187=EDGE_CURVE('',#237,#208,#274,.T.);
#188=EDGE_CURVE('',#237,#236,#275,.T.);
#189=EDGE_CURVE('',#237,#231,#27,.F.);
#190=EDGE_CURVE('',#238,#239,#276,.T.);
#191=EDGE_CURVE('',#239,#217,#277,.F.);
#192=EDGE_CURVE('',#216,#226,#278,.F.);
#193=EDGE_CURVE('',#225,#238,#279,.T.);
#194=EDGE_CURVE('',#230,#232,#28,.F.);
#195=EDGE_CURVE('',#233,#234,#29,.F.);
#196=EDGE_CURVE('',#221,#228,#280,.F.);
#197=EDGE_CURVE('',#227,#222,#281,.T.);
#198=EDGE_CURVE('',#215,#240,#282,.F.);
#199=EDGE_CURVE('',#241,#240,#283,.T.);
#200=EDGE_CURVE('',#241,#212,#284,.T.);
#201=EDGE_CURVE('',#240,#239,#285,.T.);
#202=EDGE_CURVE('',#238,#241,#286,.T.);
#203=EDGE_CURVE('',#229,#218,#287,.T.);
#204=VERTEX_POINT('',#586);
#205=VERTEX_POINT('',#587);
#206=VERTEX_POINT('',#589);
#207=VERTEX_POINT('',#591);
#208=VERTEX_POINT('',#593);
#209=VERTEX_POINT('',#595);
#210=VERTEX_POINT('',#597);
#211=VERTEX_POINT('',#599);
#212=VERTEX_POINT('',#602);
#213=VERTEX_POINT('',#603);
#214=VERTEX_POINT('',#605);
#215=VERTEX_POINT('',#607);
#216=VERTEX_POINT('',#611);
#217=VERTEX_POINT('',#612);
#218=VERTEX_POINT('',#615);
#219=VERTEX_POINT('',#617);
#220=VERTEX_POINT('',#619);
#221=VERTEX_POINT('',#621);
#222=VERTEX_POINT('',#623);
#223=VERTEX_POINT('',#627);
#224=VERTEX_POINT('',#628);
#225=VERTEX_POINT('',#633);
#226=VERTEX_POINT('',#635);
#227=VERTEX_POINT('',#637);
#228=VERTEX_POINT('',#639);
#229=VERTEX_POINT('',#642);
#230=VERTEX_POINT('',#646);
#231=VERTEX_POINT('',#648);
#232=VERTEX_POINT('',#652);
#233=VERTEX_POINT('',#653);
#234=VERTEX_POINT('',#658);
#235=VERTEX_POINT('',#659);
#236=VERTEX_POINT('',#664);
#237=VERTEX_POINT('',#668);
#238=VERTEX_POINT('',#674);
#239=VERTEX_POINT('',#675);
#240=VERTEX_POINT('',#686);
#241=VERTEX_POINT('',#688);
#242=LINE('',#585,#288);
#243=LINE('',#590,#289);
#244=LINE('',#594,#290);
#245=LINE('',#598,#291);
#246=LINE('',#601,#292);
#247=LINE('',#604,#293);
#248=LINE('',#606,#294);
#249=LINE('',#608,#295);
#250=LINE('',#610,#296);
#251=LINE('',#613,#297);
#252=LINE('',#614,#298);
#253=LINE('',#616,#299);
#254=LINE('',#618,#300);
#255=LINE('',#622,#301);
#256=LINE('',#626,#302);
#257=LINE('',#629,#303);
#258=LINE('',#630,#304);
#259=LINE('',#632,#305);
#260=LINE('',#634,#306);
#261=LINE('',#638,#307);
#262=LINE('',#641,#308);
#263=LINE('',#643,#309);
#264=LINE('',#645,#310);
#265=LINE('',#647,#311);
#266=LINE('',#649,#312);
#267=LINE('',#651,#313);
#268=LINE('',#654,#314);
#269=LINE('',#655,#315);
#270=LINE('',#657,#316);
#271=LINE('',#660,#317);
#272=LINE('',#661,#318);
#273=LINE('',#663,#319);
#274=LINE('',#667,#320);
#275=LINE('',#669,#321);
#276=LINE('',#673,#322);
#277=LINE('',#676,#323);
#278=LINE('',#677,#324);
#279=LINE('',#678,#325);
#280=LINE('',#682,#326);
#281=LINE('',#683,#327);
#282=LINE('',#685,#328);
#283=LINE('',#687,#329);
#284=LINE('',#689,#330);
#285=LINE('',#691,#331);
#286=LINE('',#692,#332);
#287=LINE('',#694,#333);
#288=VECTOR('',#471,1.);
#289=VECTOR('',#474,1.);
#290=VECTOR('',#477,1.);
#291=VECTOR('',#480,1.);
#292=VECTOR('',#483,1.);
#293=VECTOR('',#484,1.);
#294=VECTOR('',#485,1.);
#295=VECTOR('',#486,1.);
#296=VECTOR('',#489,1.);
#297=VECTOR('',#490,1.);
#298=VECTOR('',#491,1.);
#299=VECTOR('',#492,1.);
#300=VECTOR('',#493,1.);
#301=VECTOR('',#496,1.);
#302=VECTOR('',#501,1.);
#303=VECTOR('',#502,1.);
#304=VECTOR('',#503,1.);
#305=VECTOR('',#506,1.);
#306=VECTOR('',#507,1.);
#307=VECTOR('',#510,1.);
#308=VECTOR('',#513,1.);
#309=VECTOR('',#514,1.);
#310=VECTOR('',#517,1.);
#311=VECTOR('',#518,1.);
#312=VECTOR('',#519,1.);
#313=VECTOR('',#522,1.);
#314=VECTOR('',#523,1.);
#315=VECTOR('',#524,1.);
#316=VECTOR('',#527,1.);
#317=VECTOR('',#528,1.);
#318=VECTOR('',#529,1.);
#319=VECTOR('',#532,1.);
#320=VECTOR('',#537,1.);
#321=VECTOR('',#538,1.);
#322=VECTOR('',#545,1.);
#323=VECTOR('',#546,1.);
#324=VECTOR('',#547,1.);
#325=VECTOR('',#548,1.);
#326=VECTOR('',#555,1.);
#327=VECTOR('',#556,1.);
#328=VECTOR('',#559,1.);
#329=VECTOR('',#560,1.);
#330=VECTOR('',#561,1.);
#331=VECTOR('',#564,1.);
#332=VECTOR('',#565,1.);
#333=VECTOR('',#568,1.);
#334=EDGE_LOOP('',(#30,#31,#32,#33,#34,#35,#36,#37));
#335=EDGE_LOOP('',(#38,#39,#40,#41));
#336=EDGE_LOOP('',(#42,#43,#44,#45,#46,#47,#48,#49,#50));
#337=EDGE_LOOP('',(#51,#52,#53,#54));
#338=EDGE_LOOP('',(#55,#56,#57,#58,#59,#60,#61,#62,#63));
#339=EDGE_LOOP('',(#64,#65,#66,#67));
#340=EDGE_LOOP('',(#68,#69,#70,#71));
#341=EDGE_LOOP('',(#72,#73,#74,#75));
#342=EDGE_LOOP('',(#76,#77,#78,#79));
#343=EDGE_LOOP('',(#80,#81,#82,#83));
#344=EDGE_LOOP('',(#84,#85,#86,#87));
#345=EDGE_LOOP('',(#88,#89,#90,#91,#92,#93));
#346=EDGE_LOOP('',(#94,#95,#96,#97,#98,#99,#100,#101));
#347=EDGE_LOOP('',(#102,#103,#104,#105));
#348=EDGE_LOOP('',(#106,#107,#108,#109));
#349=EDGE_LOOP('',(#110,#111,#112,#113));
#350=EDGE_LOOP('',(#114,#115,#116,#117));
#351=EDGE_LOOP('',(#118,#119,#120,#121));
#352=EDGE_LOOP('',(#122,#123,#124,#125));
#353=EDGE_LOOP('',(#126,#127,#128,#129));
#354=EDGE_LOOP('',(#130,#131,#132,#133));
#355=EDGE_LOOP('',(#134,#135,#136,#137));
#356=EDGE_LOOP('',(#138,#139,#140,#141));
#357=EDGE_LOOP('',(#142,#143,#144,#145));
#358=FACE_BOUND('',#334,.T.);
#359=FACE_BOUND('',#335,.T.);
#360=FACE_BOUND('',#336,.T.);
#361=FACE_BOUND('',#337,.T.);
#362=FACE_BOUND('',#338,.T.);
#363=FACE_BOUND('',#339,.T.);
#364=FACE_BOUND('',#340,.T.);
#365=FACE_BOUND('',#341,.T.);
#366=FACE_BOUND('',#342,.T.);
#367=FACE_BOUND('',#343,.T.);
#368=FACE_BOUND('',#344,.T.);
#369=FACE_BOUND('',#345,.T.);
#370=FACE_BOUND('',#346,.T.);
#371=FACE_BOUND('',#347,.T.);
#372=FACE_BOUND('',#348,.T.);
#373=FACE_BOUND('',#349,.T.);
#374=FACE_BOUND('',#350,.T.);
#375=FACE_BOUND('',#351,.T.);
#376=FACE_BOUND('',#352,.T.);
#377=FACE_BOUND('',#353,.T.);
#378=FACE_BOUND('',#354,.T.);
#379=FACE_BOUND('',#355,.T.);
#380=FACE_BOUND('',#356,.T.);
#381=FACE_BOUND('',#357,.T.);
#382=PLANE('',#433);
#383=PLANE('',#438);
#384=PLANE('',#441);
#385=PLANE('',#442);
#386=PLANE('',#445);
#387=PLANE('',#446);
#388=PLANE('',#447);
#389=PLANE('',#450);
#390=PLANE('',#453);
#391=PLANE('',#454);
#392=PLANE('',#457);
#393=PLANE('',#458);
#394=PLANE('',#459);
#395=PLANE('',#460);
#396=PLANE('',#465);
#397=PLANE('',#466);
#398=ADVANCED_FACE('',(#358,#359),#382,.F.);
#399=ADVANCED_FACE('',(#360),#383,.F.);
#400=ADVANCED_FACE('',(#361),#384,.T.);
#401=ADVANCED_FACE('',(#362),#385,.T.);
#402=ADVANCED_FACE('',(#363),#386,.T.);
#403=ADVANCED_FACE('',(#364),#387,.F.);
#404=ADVANCED_FACE('',(#365),#388,.F.);
#405=ADVANCED_FACE('',(#366),#12,.F.);
#406=ADVANCED_FACE('',(#367),#389,.T.);
#407=ADVANCED_FACE('',(#368),#13,.F.);
#408=ADVANCED_FACE('',(#369),#390,.F.);
#409=ADVANCED_FACE('',(#370,#371),#391,.T.);
#410=ADVANCED_FACE('',(#372),#392,.F.);
#411=ADVANCED_FACE('',(#373),#393,.F.);
#412=ADVANCED_FACE('',(#374),#394,.T.);
#413=ADVANCED_FACE('',(#375),#395,.F.);
#414=ADVANCED_FACE('',(#376),#14,.F.);
#415=ADVANCED_FACE('',(#377),#15,.F.);
#416=ADVANCED_FACE('',(#378),#16,.T.);
#417=ADVANCED_FACE('',(#379),#17,.T.);
#418=ADVANCED_FACE('',(#380),#396,.F.);
#419=ADVANCED_FACE('',(#381),#397,.T.);
#420=CLOSED_SHELL('',(#398,#399,#400,#401,#402,#403,#404,#405,#406,#407,
#408,#409,#410,#411,#412,#413,#414,#415,#416,#417,#418,#419));
#421=STYLED_ITEM('',(#422),#429);
#422=PRESENTATION_STYLE_ASSIGNMENT((#423));
#423=SURFACE_STYLE_USAGE(.BOTH.,#424);
#424=SURFACE_SIDE_STYLE('',(#425));
#425=SURFACE_STYLE_FILL_AREA(#426);
#426=FILL_AREA_STYLE('',(#427));
#427=FILL_AREA_STYLE_COLOUR('',#428);
#428=COLOUR_RGB('',0.96078431372549,0.96078431372549,0.96078431372549);
#429=MANIFOLD_SOLID_BREP('Part 2',#420);
#430=SHAPE_DEFINITION_REPRESENTATION(#708,#431);
#431=SHAPE_REPRESENTATION('Part 2',(#432),#703);
#432=AXIS2_PLACEMENT_3D('',#583,#467,#468);
#433=AXIS2_PLACEMENT_3D('',#584,#469,#470);
#434=AXIS2_PLACEMENT_3D('',#588,#472,#473);
#435=AXIS2_PLACEMENT_3D('',#592,#475,#476);
#436=AXIS2_PLACEMENT_3D('',#596,#478,#479);
#437=AXIS2_PLACEMENT_3D('',#600,#481,#482);
#438=AXIS2_PLACEMENT_3D('',#609,#487,#488);
#439=AXIS2_PLACEMENT_3D('',#620,#494,#495);
#440=AXIS2_PLACEMENT_3D('',#624,#497,#498);
#441=AXIS2_PLACEMENT_3D('',#625,#499,#500);
#442=AXIS2_PLACEMENT_3D('',#631,#504,#505);
#443=AXIS2_PLACEMENT_3D('',#636,#508,#509);
#444=AXIS2_PLACEMENT_3D('',#640,#511,#512);
#445=AXIS2_PLACEMENT_3D('',#644,#515,#516);
#446=AXIS2_PLACEMENT_3D('',#650,#520,#521);
#447=AXIS2_PLACEMENT_3D('',#656,#525,#526);
#448=AXIS2_PLACEMENT_3D('',#662,#530,#531);
#449=AXIS2_PLACEMENT_3D('',#665,#533,#534);
#450=AXIS2_PLACEMENT_3D('',#666,#535,#536);
#451=AXIS2_PLACEMENT_3D('',#670,#539,#540);
#452=AXIS2_PLACEMENT_3D('',#671,#541,#542);
#453=AXIS2_PLACEMENT_3D('',#672,#543,#544);
#454=AXIS2_PLACEMENT_3D('',#679,#549,#550);
#455=AXIS2_PLACEMENT_3D('',#680,#551,#552);
#456=AXIS2_PLACEMENT_3D('',#681,#553,#554);
#457=AXIS2_PLACEMENT_3D('',#684,#557,#558);
#458=AXIS2_PLACEMENT_3D('',#690,#562,#563);
#459=AXIS2_PLACEMENT_3D('',#693,#566,#567);
#460=AXIS2_PLACEMENT_3D('',#695,#569,#570);
#461=AXIS2_PLACEMENT_3D('',#696,#571,#572);
#462=AXIS2_PLACEMENT_3D('',#697,#573,#574);
#463=AXIS2_PLACEMENT_3D('',#698,#575,#576);
#464=AXIS2_PLACEMENT_3D('',#699,#577,#578);
#465=AXIS2_PLACEMENT_3D('',#700,#579,#580);
#466=AXIS2_PLACEMENT_3D('',#701,#581,#582);
#467=DIRECTION('',(0.,0.,1.));
#468=DIRECTION('',(1.,0.,0.));
#469=DIRECTION('',(6.12323399573677E-17,1.,0.));
#470=DIRECTION('',(-1.,6.12323399573677E-17,0.));
#471=DIRECTION('',(1.,-6.12323399573677E-17,0.));
#472=DIRECTION('',(6.12323399573677E-17,1.,0.));
#473=DIRECTION('',(-1.,6.12323399573677E-17,0.));
#474=DIRECTION('',(0.,0.,1.));
#475=DIRECTION('',(6.12323399573677E-17,1.,0.));
#476=DIRECTION('',(-1.,6.12323399573677E-17,0.));
#477=DIRECTION('',(1.,-6.12323399573677E-17,0.));
#478=DIRECTION('',(6.12323399573677E-17,1.,0.));
#479=DIRECTION('',(-1.,6.12323399573677E-17,0.));
#480=DIRECTION('',(0.,0.,1.));
#481=DIRECTION('',(6.12323399573677E-17,1.,0.));
#482=DIRECTION('',(-1.,6.12323399573677E-17,0.));
#483=DIRECTION('',(0.,0.,-1.));
#484=DIRECTION('',(1.,-6.12323399573677E-17,-2.30528036674655E-16));
#485=DIRECTION('',(0.,0.,-1.));
#486=DIRECTION('',(1.,-6.12323399573677E-17,-1.72896027505991E-16));
#487=DIRECTION('',(-1.,6.12323399573677E-17,0.));
#488=DIRECTION('',(-6.12323399573677E-17,-1.,0.));
#489=DIRECTION('',(-6.12323399573677E-17,-1.,0.));
#490=DIRECTION('',(0.,0.,-1.));
#491=DIRECTION('',(6.12323399573677E-17,1.,0.));
#492=DIRECTION('',(0.,0.,1.));
#493=DIRECTION('',(-6.12323399573677E-17,-1.,0.));
#494=DIRECTION('',(-1.,6.12323399573677E-17,0.));
#495=DIRECTION('',(-6.12323399573677E-17,-1.,0.));
#496=DIRECTION('',(0.,0.,-1.));
#497=DIRECTION('',(-1.,6.12323399573677E-17,0.));
#498=DIRECTION('',(-6.12323399573677E-17,-1.,0.));
#499=DIRECTION('',(-4.61056073349311E-16,2.8231542222734E-32,-1.));
#500=DIRECTION('',(-1.,0.,4.61056073349311E-16));
#501=DIRECTION('',(-6.12323399573677E-17,-1.,0.));
#502=DIRECTION('',(1.,-6.12323399573677E-17,-4.61056073349311E-16));
#503=DIRECTION('',(1.,-6.12323399573677E-17,-4.61056073349311E-16));
#504=DIRECTION('',(-1.,6.12323399573677E-17,0.));
#505=DIRECTION('',(-6.12323399573677E-17,-1.,0.));
#506=DIRECTION('',(0.,0.,1.));
#507=DIRECTION('',(-6.12323399573677E-17,-1.,0.));
#508=DIRECTION('',(-1.,6.12323399573677E-17,0.));
#509=DIRECTION('',(-6.12323399573677E-17,-1.,0.));
#510=DIRECTION('',(0.,0.,-1.));
#511=DIRECTION('',(-1.,6.12323399573677E-17,0.));
#512=DIRECTION('',(-6.12323399573677E-17,-1.,0.));
#513=DIRECTION('',(-2.89120579329468E-16,1.7703529602173E-32,-1.));
#514=DIRECTION('',(6.12323399573677E-17,1.,0.));
#515=DIRECTION('',(1.,-6.12323399573677E-17,0.));
#516=DIRECTION('',(6.12323399573677E-17,1.,0.));
#517=DIRECTION('',(-6.12323399573677E-17,-1.,0.));
#518=DIRECTION('',(0.,0.,1.));
#519=DIRECTION('',(-6.12323399573677E-17,-1.,0.));
#520=DIRECTION('',(0.,0.,-1.));
#521=DIRECTION('',(-1.,0.,0.));
#522=DIRECTION('',(1.,-6.12323399573677E-17,0.));
#523=DIRECTION('',(-6.12323399573677E-17,-1.,0.));
#524=DIRECTION('',(-6.12323399573677E-17,-1.,0.));
#525=DIRECTION('',(1.,-6.12323399573677E-17,0.));
#526=DIRECTION('',(6.12323399573677E-17,1.,0.));
#527=DIRECTION('',(0.,0.,1.));
#528=DIRECTION('',(-6.12323399573677E-17,-1.,0.));
#529=DIRECTION('',(-6.12323399573677E-17,-1.,0.));
#530=DIRECTION('',(-6.12323399573677E-17,-1.,0.));
#531=DIRECTION('',(1.,-6.12323399573677E-17,0.));
#532=DIRECTION('',(-6.12323399573677E-17,-1.,0.));
#533=DIRECTION('',(6.12323399573677E-17,1.,0.));
#534=DIRECTION('',(-1.,6.12323399573677E-17,0.));
#535=DIRECTION('',(0.,0.,-1.));
#536=DIRECTION('',(-1.,0.,0.));
#537=DIRECTION('',(-6.12323399573677E-17,-1.,0.));
#538=DIRECTION('',(1.,-6.12323399573677E-17,0.));
#539=DIRECTION('',(-6.12323399573677E-17,-1.,0.));
#540=DIRECTION('',(1.,-6.12323399573677E-17,0.));
#541=DIRECTION('',(6.12323399573677E-17,1.,0.));
#542=DIRECTION('',(-1.,6.12323399573677E-17,0.));
#543=DIRECTION('',(-4.61056073349311E-16,2.8231542222734E-32,-1.));
#544=DIRECTION('',(-1.,0.,4.61056073349311E-16));
#545=DIRECTION('',(1.,-6.12323399573677E-17,-4.61056073349311E-16));
#546=DIRECTION('',(-0.707106781186548,-0.707106781186548,3.2601587597254E-16));
#547=DIRECTION('',(1.,-6.12323399573677E-17,-4.61056073349311E-16));
#548=DIRECTION('',(0.707106781186548,-0.707106781186548,-3.2601587597254E-16));
#549=DIRECTION('',(6.12323399573677E-17,1.,0.));
#550=DIRECTION('',(-1.,6.12323399573677E-17,0.));
#551=DIRECTION('',(6.12323399573677E-17,1.,0.));
#552=DIRECTION('',(-1.,6.12323399573677E-17,0.));
#553=DIRECTION('',(6.12323399573677E-17,1.,0.));
#554=DIRECTION('',(-1.,6.12323399573677E-17,0.));
#555=DIRECTION('',(1.,-6.12323399573677E-17,-4.61056073349311E-16));
#556=DIRECTION('',(1.,-6.12323399573677E-17,-4.61056073349311E-16));
#557=DIRECTION('',(1.72896027505991E-16,-1.05868283335253E-32,1.));
#558=DIRECTION('',(1.,0.,-1.72896027505991E-16));
#559=DIRECTION('',(0.707106781186548,0.707106781186548,-1.22255953489702E-16));
#560=DIRECTION('',(1.,-6.12323399573677E-17,-1.72896027505991E-16));
#561=DIRECTION('',(-0.707106781186548,0.707106781186548,1.22255953489702E-16));
#562=DIRECTION('',(6.12323399573677E-17,1.,0.));
#563=DIRECTION('',(-1.,6.12323399573677E-17,0.));
#564=DIRECTION('',(0.,0.,1.));
#565=DIRECTION('',(0.,0.,-1.));
#566=DIRECTION('',(2.30528036674655E-16,-1.4115771111367E-32,1.));
#567=DIRECTION('',(1.,0.,-2.30528036674655E-16));
#568=DIRECTION('',(1.,-6.12323399573677E-17,-2.30528036674655E-16));
#569=DIRECTION('',(6.12323399573677E-17,1.,0.));
#570=DIRECTION('',(-1.,6.12323399573677E-17,0.));
#571=DIRECTION('',(-6.12323399573677E-17,-1.,0.));
#572=DIRECTION('',(1.,-6.12323399573677E-17,0.));
#573=DIRECTION('',(6.12323399573677E-17,1.,0.));
#574=DIRECTION('',(-1.,6.12323399573677E-17,0.));
#575=DIRECTION('',(1.,-6.12323399573677E-17,-4.61056073349311E-16));
#576=DIRECTION('',(-4.61056073349311E-16,0.,-1.));
#577=DIRECTION('',(-1.,6.12323399573677E-17,4.61056073349311E-16));
#578=DIRECTION('',(4.61056073349311E-16,0.,1.));
#579=DIRECTION('',(-0.707106781186548,0.707106781186548,0.));
#580=DIRECTION('',(0.,0.,-1.));
#581=DIRECTION('',(-0.707106781186548,-0.707106781186548,0.));
#582=DIRECTION('',(0.,0.,-1.));
#583=CARTESIAN_POINT('',(0.,0.,0.));
#584=CARTESIAN_POINT('',(0.009525,-9.91070122691241E-19,-0.001017675));
#585=CARTESIAN_POINT('',(0.009525,-9.91070122691241E-19,-0.00327535));
#586=CARTESIAN_POINT('',(0.00602499999999991,-7.76756932840449E-19,-0.00327535));
#587=CARTESIAN_POINT('',(0.013025,-1.20538331254203E-18,-0.00327535));
#588=CARTESIAN_POINT('',(0.00602499999999991,-8.67361737988404E-19,-0.00227535));
#589=CARTESIAN_POINT('',(0.00502499999999991,1.97758476261356E-16,-0.00227535));
#590=CARTESIAN_POINT('',(0.00502499999999991,1.97758476261356E-16,-0.00353535));
#591=CARTESIAN_POINT('',(0.00502499999999991,1.97758476261356E-16,-0.001));
#592=CARTESIAN_POINT('',(0.00602499999999991,-1.7347234759768E-18,-0.001));
#593=CARTESIAN_POINT('',(0.00602499999999991,-7.76756932840449E-19,0.));
#594=CARTESIAN_POINT('',(0.009525,-9.91070122691241E-19,0.));
#595=CARTESIAN_POINT('',(0.013025,-1.20538331254203E-18,0.));
#596=CARTESIAN_POINT('',(0.013025,-1.19262238973405E-18,-0.001));
#597=CARTESIAN_POINT('',(0.014025,-1.2666156524994E-18,-0.001));
#598=CARTESIAN_POINT('',(0.014025,-1.2666156524994E-18,-0.00353535));
#599=CARTESIAN_POINT('',(0.014025,-1.2666156524994E-18,-0.00227535));
#600=CARTESIAN_POINT('',(0.013025,-8.67361737988404E-19,-0.00227535));
#601=CARTESIAN_POINT('',(0.00199999999999989,-5.30296764512042E-19,0.0005));
#602=CARTESIAN_POINT('',(0.00199999999999989,-5.30296764512042E-19,0.003));
#603=CARTESIAN_POINT('',(0.00199999999999989,-5.30296764512042E-19,-0.00503535));
#604=CARTESIAN_POINT('',(0.009525,-9.91070122691241E-19,-0.00503535));
#605=CARTESIAN_POINT('',(0.01705,1.04517089427603E-16,-0.00503535));
#606=CARTESIAN_POINT('',(0.01705,1.04517089427603E-16,0.0005));
#607=CARTESIAN_POINT('',(0.01705,-1.45184348087044E-18,0.003));
#608=CARTESIAN_POINT('',(0.009525,-9.91070122691241E-19,0.003));
#609=CARTESIAN_POINT('',(0.01705,0.0020000000000001,0.0005));
#610=CARTESIAN_POINT('',(0.01705,0.002,0.0045));
#611=CARTESIAN_POINT('',(0.01705,0.001,0.0045));
#612=CARTESIAN_POINT('',(0.01705,-1.7347234759768E-18,0.0045));
#613=CARTESIAN_POINT('',(0.01705,-1.7347234759768E-18,0.0005));
#614=CARTESIAN_POINT('',(0.01705,-0.003,-0.00503535));
#615=CARTESIAN_POINT('',(0.01705,-0.003,-0.00503535));
#616=CARTESIAN_POINT('',(0.01705,-0.003,-0.00578535));
#617=CARTESIAN_POINT('',(0.01705,-0.003,-0.00653535));
#618=CARTESIAN_POINT('',(0.01705,0.002,-0.00653535));
#619=CARTESIAN_POINT('',(0.01705,0.001,-0.00653535));
#620=CARTESIAN_POINT('',(0.01705,0.001,-0.00553535));
#621=CARTESIAN_POINT('',(0.01705,0.0020000000000001,-0.00553535));
#622=CARTESIAN_POINT('',(0.01705,0.0020000000000001,0.0005));
#623=CARTESIAN_POINT('',(0.01705,0.0020000000000001,0.0035));
#624=CARTESIAN_POINT('',(0.01705,0.001,0.0035));
#625=CARTESIAN_POINT('',(0.009525,0.002,-0.00653535));
#626=CARTESIAN_POINT('',(0.00199999999999989,0.002,-0.00653535));
#627=CARTESIAN_POINT('',(0.00199999999999989,0.001,-0.00653535));
#628=CARTESIAN_POINT('',(0.00199999999999989,-0.003,-0.00653535));
#629=CARTESIAN_POINT('',(0.009525,0.001,-0.00653535));
#630=CARTESIAN_POINT('',(0.009525,-0.003,-0.00653535));
#631=CARTESIAN_POINT('',(0.00199999999999989,0.002,0.0005));
#632=CARTESIAN_POINT('',(0.00199999999999989,-4.98436889745257E-19,0.0045));
#633=CARTESIAN_POINT('',(0.00199999999999989,-4.33680868994202E-19,0.0045));
#634=CARTESIAN_POINT('',(0.00199999999999989,0.002,0.0045));
#635=CARTESIAN_POINT('',(0.00199999999999989,0.001,0.0045));
#636=CARTESIAN_POINT('',(0.00199999999999989,0.001,0.0035));
#637=CARTESIAN_POINT('',(0.00199999999999989,0.002,0.0035));
#638=CARTESIAN_POINT('',(0.00199999999999989,0.002,0.0005));
#639=CARTESIAN_POINT('',(0.00199999999999989,0.002,-0.00553535));
#640=CARTESIAN_POINT('',(0.00199999999999989,0.001,-0.00553535));
#641=CARTESIAN_POINT('',(0.00199999999999989,-0.003,-0.00578535));
#642=CARTESIAN_POINT('',(0.00199999999999989,-0.003,-0.00503535));
#643=CARTESIAN_POINT('',(0.00199999999999989,-0.003,-0.00503535));
#644=CARTESIAN_POINT('',(0.00502499999999991,0.0020000000000002,-0.00353535));
#645=CARTESIAN_POINT('',(0.00502499999999991,0.0020000000000002,-0.00227535));
#646=CARTESIAN_POINT('',(0.00502499999999991,0.0020000000000002,-0.00227535));
#647=CARTESIAN_POINT('',(0.00502499999999991,0.0020000000000002,-0.00353535));
#648=CARTESIAN_POINT('',(0.00502499999999991,0.0020000000000002,-0.001));
#649=CARTESIAN_POINT('',(0.00502499999999991,0.0020000000000002,-0.001));
#650=CARTESIAN_POINT('',(0.009525,0.002,-0.00327535));
#651=CARTESIAN_POINT('',(0.009525,0.002,-0.00327535));
#652=CARTESIAN_POINT('',(0.00602499999999991,0.002,-0.00327535));
#653=CARTESIAN_POINT('',(0.013025,0.002,-0.00327535));
#654=CARTESIAN_POINT('',(0.00602499999999991,0.002,-0.00327535));
#655=CARTESIAN_POINT('',(0.013025,0.002,-0.00327535));
#656=CARTESIAN_POINT('',(0.014025,0.002,-0.00353535));
#657=CARTESIAN_POINT('',(0.014025,0.002,-0.00353535));
#658=CARTESIAN_POINT('',(0.014025,0.002,-0.00227535));
#659=CARTESIAN_POINT('',(0.014025,0.002,-0.001));
#660=CARTESIAN_POINT('',(0.014025,-1.36227494693997E-18,-0.00227535));
#661=CARTESIAN_POINT('',(0.014025,0.002,-0.001));
#662=CARTESIAN_POINT('',(0.013025,0.002,-0.001));
#663=CARTESIAN_POINT('',(0.013025,0.002,0.));
#664=CARTESIAN_POINT('',(0.013025,0.002,0.));
#665=CARTESIAN_POINT('',(0.013025,0.002,-0.001));
#666=CARTESIAN_POINT('',(0.009525,0.002,0.));
#667=CARTESIAN_POINT('',(0.00602499999999991,0.002,0.));
#668=CARTESIAN_POINT('',(0.00602499999999991,0.002,0.));
#669=CARTESIAN_POINT('',(0.009525,0.002,0.));
#670=CARTESIAN_POINT('',(0.00602499999999991,0.002,-0.001));
#671=CARTESIAN_POINT('',(0.00602499999999991,0.002,-0.001));
#672=CARTESIAN_POINT('',(0.009525,0.002,0.0045));
#673=CARTESIAN_POINT('',(0.009525,-0.0015,0.0045));
#674=CARTESIAN_POINT('',(0.00349999999999989,-0.0015,0.0045));
#675=CARTESIAN_POINT('',(0.01555,-0.0015,0.0045));
#676=CARTESIAN_POINT('',(0.01705,-8.12611329278186E-19,0.0045));
#677=CARTESIAN_POINT('',(0.00199999999999989,0.001,0.0045));
#678=CARTESIAN_POINT('',(0.00199999999999989,-1.35579301569282E-18,0.0045));
#679=CARTESIAN_POINT('',(0.009525,0.002,-0.001017675));
#680=CARTESIAN_POINT('',(0.00602499999999991,0.002,-0.00227535));
#681=CARTESIAN_POINT('',(0.013025,0.002,-0.00227535));
#682=CARTESIAN_POINT('',(0.009525,0.002,-0.00553535));
#683=CARTESIAN_POINT('',(0.01705,0.002,0.0035));
#684=CARTESIAN_POINT('',(0.009525,-0.0015,0.003));
#685=CARTESIAN_POINT('',(0.01705,-1.51860344159432E-18,0.003));
#686=CARTESIAN_POINT('',(0.01555,-0.0015,0.003));
#687=CARTESIAN_POINT('',(0.009525,-0.0015,0.003));
#688=CARTESIAN_POINT('',(0.00349999999999989,-0.0015,0.003));
#689=CARTESIAN_POINT('',(0.00199999999999989,-6.49800903376691E-19,0.003));
#690=CARTESIAN_POINT('',(0.009525,-0.0015,-0.001017675));
#691=CARTESIAN_POINT('',(0.01555,-0.0015,-0.001017675));
#692=CARTESIAN_POINT('',(0.00349999999999989,-0.0015,0.003));
#693=CARTESIAN_POINT('',(0.009525,-0.003,-0.00503535));
#694=CARTESIAN_POINT('',(0.009525,-0.003,-0.00503535));
#695=CARTESIAN_POINT('',(0.009525,-0.003,-0.001017675));
#696=CARTESIAN_POINT('',(0.00602499999999991,0.002,-0.00227535));
#697=CARTESIAN_POINT('',(0.013025,0.002,-0.00227535));
#698=CARTESIAN_POINT('',(0.009525,0.001,-0.00553535));
#699=CARTESIAN_POINT('',(0.009525,0.001,0.0035));
#700=CARTESIAN_POINT('',(0.01705,-1.7347234759768E-18,0.0005));
#701=CARTESIAN_POINT('',(0.00199999999999989,-4.33680868994202E-19,0.0005));
#702=MECHANICAL_DESIGN_GEOMETRIC_PRESENTATION_REPRESENTATION('',(#421),
#703);
#703=(
GEOMETRIC_REPRESENTATION_CONTEXT(3)
GLOBAL_UNCERTAINTY_ASSIGNED_CONTEXT((#704))
GLOBAL_UNIT_ASSIGNED_CONTEXT((#707,#706,#705))
REPRESENTATION_CONTEXT('Part 2','TOP_LEVEL_ASSEMBLY_PART')
);
#704=UNCERTAINTY_MEASURE_WITH_UNIT(LENGTH_MEASURE(1.E-8),#707,
'DISTANCE_ACCURACY_VALUE','Maximum Tolerance applied to model');
#705=(
NAMED_UNIT(*)
SI_UNIT($,.STERADIAN.)
SOLID_ANGLE_UNIT()
);
#706=(
NAMED_UNIT(*)
PLANE_ANGLE_UNIT()
SI_UNIT($,.RADIAN.)
);
#707=(
LENGTH_UNIT()
NAMED_UNIT(*)
SI_UNIT($,.METRE.)
);
#708=PRODUCT_DEFINITION_SHAPE('','',#709);
#709=PRODUCT_DEFINITION('','',#711,#710);
#710=PRODUCT_DEFINITION_CONTEXT('',#717,'design');
#711=PRODUCT_DEFINITION_FORMATION_WITH_SPECIFIED_SOURCE('','',#713,
 .NOT_KNOWN.);
#712=PRODUCT_RELATED_PRODUCT_CATEGORY('','',(#713));
#713=PRODUCT('Part 2','Part 2','Part 2',(#715));
#714=PRODUCT_CATEGORY('','');
#715=PRODUCT_CONTEXT('',#717,'mechanical');
#716=APPLICATION_PROTOCOL_DEFINITION('international standard',
'ap242_managed_model_based_3d_engineering',2020,#717);
#717=APPLICATION_CONTEXT('managed model based 3d engineering');
ENDSEC;
END-ISO-10303-21;
